<svg width="618" height="359" viewBox="0 0 618 359" fill="none" xmlns="http://www.w3.org/2000/svg">
<path opacity="0.5" d="M594.66 193.973L595.776 193.973L595.776 197.513L598.236 197.513L598.236 194.753L599.352 194.753L599.352 197.513L603 197.513L603 198.881L594.66 198.881L594.66 193.973ZM594.12 191.337L603 191.337L603 192.705L594.12 192.705L594.12 191.337ZM603.108 186.673C603.108 187.297 602.968 187.861 602.688 188.365C602.4 188.869 602 189.265 601.488 189.553C600.968 189.841 600.368 189.985 599.688 189.985C599.016 189.985 598.42 189.837 597.9 189.541C597.38 189.245 596.98 188.841 596.7 188.329C596.42 187.817 596.28 187.245 596.28 186.613C596.28 185.981 596.42 185.409 596.7 184.897C596.98 184.385 597.38 183.981 597.9 183.685C598.42 183.389 599.016 183.241 599.688 183.241C600.36 183.241 600.956 183.393 601.476 183.697C601.996 184.001 602.4 184.417 602.688 184.945C602.968 185.465 603.108 186.041 603.108 186.673ZM601.92 186.673C601.92 186.321 601.836 185.993 601.668 185.689C601.5 185.377 601.248 185.125 600.912 184.933C600.576 184.741 600.168 184.645 599.688 184.645C599.208 184.645 598.804 184.737 598.476 184.921C598.14 185.105 597.888 185.349 597.72 185.653C597.552 185.957 597.468 186.285 597.468 186.637C597.468 186.989 597.552 187.317 597.72 187.621C597.888 187.917 598.14 188.153 598.476 188.329C598.804 188.505 599.208 188.593 599.688 188.593C600.4 188.593 600.952 188.413 601.344 188.053C601.728 187.685 601.92 187.225 601.92 186.673ZM596.388 173.009L603 175.061L603 176.501L598.116 177.833L603 179.165L603 180.605L596.388 182.669L596.388 181.277L601.704 179.897L596.388 178.493L596.388 177.065L601.68 175.721L596.388 174.353L596.388 173.009ZM605.232 165.846C604.48 166.63 603.524 167.234 602.364 167.658C601.204 168.074 599.96 168.282 598.632 168.282C597.272 168.282 595.988 168.058 594.78 167.61C593.572 167.154 592.576 166.486 591.792 165.606L591.792 164.19L591.924 164.19C592.772 165.11 593.788 165.802 594.972 166.266C596.156 166.73 597.376 166.962 598.632 166.962C599.84 166.962 601.008 166.746 602.136 166.314C603.264 165.882 604.252 165.254 605.1 164.43L605.232 164.43L605.232 165.846ZM601.896 161.595L601.896 158.775L603 158.775L603 162.963L594.66 162.963L594.66 161.595L601.896 161.595ZM591.672 153.191L605.1 156.455L605.1 157.799L591.672 154.547L591.672 153.191ZM603.084 148.719C603.084 149.279 602.988 149.783 602.796 150.231C602.596 150.679 602.316 151.031 601.956 151.287C601.596 151.543 601.176 151.671 600.696 151.671L600.696 150.207C601.056 150.175 601.352 150.035 601.584 149.787C601.816 149.531 601.932 149.175 601.932 148.719C601.932 148.247 601.82 147.879 601.596 147.615C601.364 147.351 601.068 147.219 600.708 147.219C600.428 147.219 600.2 147.303 600.024 147.471C599.848 147.631 599.712 147.835 599.616 148.083C599.52 148.323 599.416 148.659 599.304 149.091C599.16 149.635 599.016 150.079 598.872 150.423C598.72 150.759 598.488 151.047 598.176 151.287C597.864 151.527 597.448 151.647 596.928 151.647C596.448 151.647 596.028 151.527 595.668 151.287C595.308 151.047 595.032 150.711 594.84 150.279C594.648 149.847 594.552 149.347 594.552 148.779C594.552 147.971 594.756 147.311 595.164 146.799C595.564 146.279 596.116 145.991 596.82 145.935L596.82 147.447C596.516 147.471 596.256 147.615 596.04 147.879C595.824 148.143 595.716 148.491 595.716 148.923C595.716 149.315 595.816 149.635 596.016 149.883C596.216 150.131 596.504 150.255 596.88 150.255C597.136 150.255 597.348 150.179 597.516 150.027C597.676 149.867 597.804 149.667 597.9 149.427C597.996 149.187 598.1 148.859 598.212 148.443C598.364 147.891 598.516 147.443 598.668 147.099C598.82 146.747 599.056 146.451 599.376 146.211C599.688 145.963 600.108 145.839 600.636 145.839C601.06 145.839 601.46 145.955 601.836 146.187C602.212 146.411 602.516 146.743 602.748 147.183C602.972 147.615 603.084 148.127 603.084 148.719ZM605.232 144.561L605.1 144.561C604.252 143.737 603.264 143.109 602.136 142.677C601.008 142.245 599.84 142.029 598.632 142.029C597.376 142.029 596.156 142.261 594.972 142.725C593.788 143.189 592.772 143.881 591.924 144.801L591.792 144.801L591.792 143.385C592.576 142.505 593.572 141.841 594.78 141.393C595.988 140.937 597.272 140.709 598.632 140.709C599.96 140.709 601.204 140.921 602.364 141.345C603.524 141.761 604.48 142.361 605.232 143.145L605.232 144.561Z" fill="white"/>
<path opacity="0.5" d="M544.696 304.352L541.564 312.692H539.98L536.836 304.352H538.3L540.772 311.288L543.256 304.352H544.696ZM548.708 312.8C548.084 312.8 547.52 312.66 547.016 312.38C546.512 312.092 546.116 311.692 545.828 311.18C545.54 310.66 545.396 310.06 545.396 309.38C545.396 308.708 545.544 308.112 545.84 307.592C546.136 307.072 546.54 306.672 547.052 306.392C547.564 306.112 548.136 305.972 548.768 305.972C549.4 305.972 549.972 306.112 550.484 306.392C550.996 306.672 551.4 307.072 551.696 307.592C551.992 308.112 552.14 308.708 552.14 309.38C552.14 310.052 551.988 310.648 551.684 311.168C551.38 311.688 550.964 312.092 550.436 312.38C549.916 312.66 549.34 312.8 548.708 312.8ZM548.708 311.612C549.06 311.612 549.388 311.528 549.692 311.36C550.004 311.192 550.256 310.94 550.448 310.604C550.64 310.268 550.736 309.86 550.736 309.38C550.736 308.9 550.644 308.496 550.46 308.168C550.276 307.832 550.032 307.58 549.728 307.412C549.424 307.244 549.096 307.16 548.744 307.16C548.392 307.16 548.064 307.244 547.76 307.412C547.464 307.58 547.228 307.832 547.052 308.168C546.876 308.496 546.788 308.9 546.788 309.38C546.788 310.092 546.968 310.644 547.328 311.036C547.696 311.42 548.156 311.612 548.708 311.612ZM554.86 303.812V312.692H553.492V303.812H554.86ZM562.644 306.08V312.692H561.276V311.912C561.06 312.184 560.776 312.4 560.424 312.56C560.08 312.712 559.712 312.788 559.32 312.788C558.8 312.788 558.332 312.68 557.916 312.464C557.508 312.248 557.184 311.928 556.944 311.504C556.712 311.08 556.596 310.568 556.596 309.968V306.08H557.952V309.764C557.952 310.356 558.1 310.812 558.396 311.132C558.692 311.444 559.096 311.6 559.608 311.6C560.12 311.6 560.524 311.444 560.82 311.132C561.124 310.812 561.276 310.356 561.276 309.764V306.08H562.644ZM572.453 305.972C572.973 305.972 573.437 306.08 573.845 306.296C574.261 306.512 574.585 306.832 574.817 307.256C575.057 307.68 575.177 308.192 575.177 308.792V312.692H573.821V308.996C573.821 308.404 573.673 307.952 573.377 307.64C573.081 307.32 572.677 307.16 572.165 307.16C571.653 307.16 571.245 307.32 570.941 307.64C570.645 307.952 570.497 308.404 570.497 308.996V312.692H569.141V308.996C569.141 308.404 568.993 307.952 568.697 307.64C568.401 307.32 567.997 307.16 567.485 307.16C566.973 307.16 566.565 307.32 566.261 307.64C565.965 307.952 565.817 308.404 565.817 308.996V312.692H564.449V306.08H565.817V306.836C566.041 306.564 566.325 306.352 566.669 306.2C567.013 306.048 567.381 305.972 567.773 305.972C568.301 305.972 568.773 306.084 569.189 306.308C569.605 306.532 569.925 306.856 570.149 307.28C570.349 306.88 570.661 306.564 571.085 306.332C571.509 306.092 571.965 305.972 572.453 305.972ZM582.978 309.224C582.978 309.472 582.962 309.696 582.93 309.896H577.878C577.918 310.424 578.114 310.848 578.466 311.168C578.818 311.488 579.25 311.648 579.762 311.648C580.498 311.648 581.018 311.34 581.322 310.724H582.798C582.598 311.332 582.234 311.832 581.706 312.224C581.186 312.608 580.538 312.8 579.762 312.8C579.13 312.8 578.562 312.66 578.058 312.38C577.562 312.092 577.17 311.692 576.882 311.18C576.602 310.66 576.462 310.06 576.462 309.38C576.462 308.7 576.598 308.104 576.87 307.592C577.15 307.072 577.538 306.672 578.034 306.392C578.538 306.112 579.114 305.972 579.762 305.972C580.386 305.972 580.942 306.108 581.43 306.38C581.918 306.652 582.298 307.036 582.57 307.532C582.842 308.02 582.978 308.584 582.978 309.224ZM581.55 308.792C581.542 308.288 581.362 307.884 581.01 307.58C580.658 307.276 580.222 307.124 579.702 307.124C579.23 307.124 578.826 307.276 578.49 307.58C578.154 307.876 577.954 308.28 577.89 308.792H581.55ZM590.466 314.924C589.682 314.172 589.078 313.216 588.654 312.056C588.238 310.896 588.03 309.652 588.03 308.324C588.03 306.964 588.254 305.68 588.702 304.472C589.158 303.264 589.826 302.268 590.706 301.484H592.122V301.616C591.202 302.464 590.51 303.48 590.046 304.664C589.582 305.848 589.35 307.068 589.35 308.324C589.35 309.532 589.566 310.7 589.998 311.828C590.43 312.956 591.058 313.944 591.882 314.792V314.924H590.466ZM594.716 311.588H597.536V312.692H593.348V304.352H594.716V311.588ZM598.344 314.924V314.792C599.168 313.944 599.796 312.956 600.228 311.828C600.66 310.7 600.876 309.532 600.876 308.324C600.876 307.068 600.644 305.848 600.18 304.664C599.716 303.48 599.024 302.464 598.104 301.616V301.484H599.52C600.4 302.268 601.064 303.264 601.512 304.472C601.968 305.68 602.196 306.964 602.196 308.324C602.196 309.652 601.984 310.896 601.56 312.056C601.144 313.216 600.544 314.172 599.76 314.924H598.344Z" fill="white"/>
<path opacity="0.5" d="M0.72 329.512C0.72 328.128 0.952 327.048 1.416 326.272C1.888 325.488 2.696 325.096 3.84 325.096C4.984 325.096 5.788 325.488 6.252 326.272C6.724 327.048 6.96 328.128 6.96 329.512C6.96 330.912 6.724 332.008 6.252 332.8C5.788 333.584 4.984 333.976 3.84 333.976C2.696 333.976 1.888 333.584 1.416 332.8C0.952 332.008 0.72 330.912 0.72 329.512ZM5.616 329.512C5.616 328.864 5.572 328.316 5.484 327.868C5.404 327.42 5.236 327.056 4.98 326.776C4.724 326.488 4.344 326.344 3.84 326.344C3.336 326.344 2.956 326.488 2.7 326.776C2.444 327.056 2.272 327.42 2.184 327.868C2.104 328.316 2.064 328.864 2.064 329.512C2.064 330.184 2.104 330.748 2.184 331.204C2.264 331.66 2.432 332.028 2.688 332.308C2.952 332.588 3.336 332.728 3.84 332.728C4.344 332.728 4.724 332.588 4.98 332.308C5.244 332.028 5.416 331.66 5.496 331.204C5.576 330.748 5.616 330.184 5.616 329.512Z" fill="white"/>
<path opacity="0.5" d="M2.552 250.176V249.144L6.584 243.36H8.24V248.988H9.356V250.176H8.24V252H6.896V250.176H2.552ZM6.956 244.752L4.124 248.988H6.956V244.752Z" fill="white"/>
<path opacity="0.5" d="M2.54 129.5V128.252H5.036V137H3.656V129.5H2.54ZM6.91531 132.512C6.91531 131.128 7.14731 130.048 7.61131 129.272C8.08331 128.488 8.89131 128.096 10.0353 128.096C11.1793 128.096 11.9833 128.488 12.4473 129.272C12.9193 130.048 13.1553 131.128 13.1553 132.512C13.1553 133.912 12.9193 135.008 12.4473 135.8C11.9833 136.584 11.1793 136.976 10.0353 136.976C8.89131 136.976 8.08331 136.584 7.61131 135.8C7.14731 135.008 6.91531 133.912 6.91531 132.512ZM11.8113 132.512C11.8113 131.864 11.7673 131.316 11.6793 130.868C11.5993 130.42 11.4313 130.056 11.1753 129.776C10.9193 129.488 10.5393 129.344 10.0353 129.344C9.53131 129.344 9.15131 129.488 8.89531 129.776C8.63931 130.056 8.46731 130.42 8.37931 130.868C8.29931 131.316 8.25931 131.864 8.25931 132.512C8.25931 133.184 8.29931 133.748 8.37931 134.204C8.45931 134.66 8.62731 135.028 8.88331 135.308C9.14731 135.588 9.53131 135.728 10.0353 135.728C10.5393 135.728 10.9193 135.588 11.1753 135.308C11.4393 135.028 11.6113 134.66 11.6913 134.204C11.7713 133.748 11.8113 133.184 11.8113 132.512Z" fill="white"/>
<path opacity="0.5" d="M2.54 48.5V47.252H5.036V56H3.656V48.5H2.54ZM6.74731 54.176V53.144L10.7793 47.36H12.4353V52.988H13.5513V54.176H12.4353V56H11.0913V54.176H6.74731ZM11.1513 48.752L8.31931 52.988H11.1513V48.752Z" fill="white"/>
<path opacity="0.5" d="M1.476 289.14C2.244 288.476 2.848 287.932 3.288 287.508C3.736 287.076 4.108 286.628 4.404 286.164C4.7 285.7 4.848 285.236 4.848 284.772C4.848 284.292 4.732 283.916 4.5 283.644C4.276 283.372 3.92 283.236 3.432 283.236C2.96 283.236 2.592 283.388 2.328 283.692C2.072 283.988 1.936 284.388 1.92 284.892H0.6C0.624 283.98 0.896 283.284 1.416 282.804C1.944 282.316 2.612 282.072 3.42 282.072C4.292 282.072 4.972 282.312 5.46 282.792C5.956 283.272 6.204 283.912 6.204 284.712C6.204 285.288 6.056 285.844 5.76 286.38C5.472 286.908 5.124 287.384 4.716 287.808C4.316 288.224 3.804 288.708 3.18 289.26L2.64 289.74H6.444V290.88H0.612V289.884L1.476 289.14Z" fill="white"/>
<path opacity="0.5" d="M4.196 170.428C3.364 170.012 2.948 169.356 2.948 168.46C2.948 168.028 3.056 167.632 3.272 167.272C3.488 166.912 3.812 166.628 4.244 166.42C4.676 166.204 5.204 166.096 5.828 166.096C6.444 166.096 6.968 166.204 7.4 166.42C7.84 166.628 8.168 166.912 8.384 167.272C8.6 167.632 8.708 168.028 8.708 168.46C8.708 168.908 8.592 169.304 8.36 169.648C8.136 169.984 7.836 170.244 7.46 170.428C7.916 170.596 8.276 170.872 8.54 171.256C8.804 171.632 8.936 172.076 8.936 172.588C8.936 173.108 8.804 173.568 8.54 173.968C8.276 174.368 7.908 174.676 7.436 174.892C6.964 175.108 6.428 175.216 5.828 175.216C5.228 175.216 4.692 175.108 4.22 174.892C3.756 174.676 3.392 174.368 3.128 173.968C2.864 173.568 2.732 173.108 2.732 172.588C2.732 172.068 2.864 171.62 3.128 171.244C3.392 170.868 3.748 170.596 4.196 170.428ZM7.4 168.628C7.4 168.18 7.26 167.836 6.98 167.596C6.7 167.356 6.316 167.236 5.828 167.236C5.348 167.236 4.968 167.356 4.688 167.596C4.408 167.836 4.268 168.184 4.268 168.64C4.268 169.04 4.412 169.368 4.7 169.624C4.996 169.872 5.372 169.996 5.828 169.996C6.284 169.996 6.66 169.868 6.956 169.612C7.252 169.356 7.4 169.028 7.4 168.628ZM5.828 171.028C5.3 171.028 4.868 171.16 4.532 171.424C4.204 171.68 4.04 172.052 4.04 172.54C4.04 172.996 4.2 173.368 4.52 173.656C4.84 173.936 5.276 174.076 5.828 174.076C6.372 174.076 6.8 173.932 7.112 173.644C7.432 173.356 7.592 172.988 7.592 172.54C7.592 172.06 7.428 171.688 7.1 171.424C6.78 171.16 6.356 171.028 5.828 171.028Z" fill="white"/>
<path opacity="0.5" d="M7.424 207.28C7.336 206.912 7.176 206.636 6.944 206.452C6.712 206.268 6.388 206.176 5.972 206.176C5.34 206.176 4.868 206.42 4.556 206.908C4.244 207.388 4.08 208.188 4.064 209.308C4.272 208.956 4.576 208.684 4.976 208.492C5.376 208.3 5.808 208.204 6.272 208.204C6.8 208.204 7.264 208.32 7.664 208.552C8.072 208.776 8.388 209.104 8.612 209.536C8.844 209.968 8.96 210.484 8.96 211.084C8.96 211.644 8.848 212.144 8.624 212.584C8.408 213.024 8.084 213.372 7.652 213.628C7.22 213.876 6.7 214 6.092 214C5.268 214 4.62 213.82 4.148 213.46C3.684 213.092 3.356 212.576 3.164 211.912C2.98 211.248 2.888 210.42 2.888 209.428C2.888 206.5 3.92 205.036 5.984 205.036C6.784 205.036 7.412 205.252 7.868 205.684C8.332 206.116 8.604 206.648 8.684 207.28H7.424ZM5.972 209.356C5.484 209.356 5.068 209.504 4.724 209.8C4.388 210.088 4.22 210.508 4.22 211.06C4.22 211.612 4.376 212.052 4.688 212.38C5.008 212.7 5.452 212.86 6.02 212.86C6.524 212.86 6.92 212.704 7.208 212.392C7.504 212.08 7.652 211.664 7.652 211.144C7.652 210.6 7.508 210.168 7.22 209.848C6.94 209.52 6.524 209.356 5.972 209.356Z" fill="white"/>
<path opacity="0.5" d="M2.54 84.5V83.252H5.036V92H3.656V84.5H2.54ZM7.67131 90.14C8.43931 89.476 9.04331 88.932 9.48331 88.508C9.93131 88.076 10.3033 87.628 10.5993 87.164C10.8953 86.7 11.0433 86.236 11.0433 85.772C11.0433 85.292 10.9273 84.916 10.6953 84.644C10.4713 84.372 10.1153 84.236 9.62731 84.236C9.15531 84.236 8.78731 84.388 8.52331 84.692C8.26731 84.988 8.13131 85.388 8.11531 85.892H6.79531C6.81931 84.98 7.09131 84.284 7.61131 83.804C8.13931 83.316 8.80731 83.072 9.61531 83.072C10.4873 83.072 11.1673 83.312 11.6553 83.792C12.1513 84.272 12.3993 84.912 12.3993 85.712C12.3993 86.288 12.2513 86.844 11.9553 87.38C11.6673 87.908 11.3193 88.384 10.9113 88.808C10.5113 89.224 9.99931 89.708 9.37531 90.26L8.83531 90.74H12.6393V91.88H6.80731V90.884L7.67131 90.14Z" fill="white"/>
<path opacity="0.5" d="M2.54 5.5V4.252H5.036V13H3.656V5.5H2.54ZM11.6193 6.28C11.5313 5.912 11.3713 5.636 11.1393 5.452C10.9073 5.268 10.5833 5.176 10.1673 5.176C9.53531 5.176 9.06331 5.42 8.75131 5.908C8.43931 6.388 8.27531 7.188 8.25931 8.308C8.46731 7.956 8.77131 7.684 9.17131 7.492C9.57131 7.3 10.0033 7.204 10.4673 7.204C10.9953 7.204 11.4593 7.32 11.8593 7.552C12.2673 7.776 12.5833 8.104 12.8073 8.536C13.0393 8.968 13.1553 9.484 13.1553 10.084C13.1553 10.644 13.0433 11.144 12.8193 11.584C12.6033 12.024 12.2793 12.372 11.8473 12.628C11.4153 12.876 10.8953 13 10.2873 13C9.46331 13 8.81531 12.82 8.34331 12.46C7.87931 12.092 7.55131 11.576 7.35931 10.912C7.17531 10.248 7.08331 9.42 7.08331 8.428C7.08331 5.5 8.11531 4.036 10.1793 4.036C10.9793 4.036 11.6073 4.252 12.0633 4.684C12.5273 5.116 12.7993 5.648 12.8793 6.28H11.6193ZM10.1673 8.356C9.67931 8.356 9.26331 8.504 8.91931 8.8C8.58331 9.088 8.41531 9.508 8.41531 10.06C8.41531 10.612 8.57131 11.052 8.88331 11.38C9.20331 11.7 9.64731 11.86 10.2153 11.86C10.7193 11.86 11.1153 11.704 11.4033 11.392C11.6993 11.08 11.8473 10.664 11.8473 10.144C11.8473 9.6 11.7033 9.168 11.4153 8.848C11.1353 8.52 10.7193 8.356 10.1673 8.356Z" fill="white"/>
<line x1="22.5" y1="89.5" x2="611.5" y2="89.5001" stroke="#435ABC" stroke-linecap="round" stroke-dasharray="2 2"/>
<line x1="22.5" y1="169.5" x2="585.5" y2="169.5" stroke="#435ABC" stroke-linecap="round" stroke-dasharray="2 2"/>
<line x1="22.5" y1="129.5" x2="585.5" y2="129.5" stroke="#435ABC" stroke-linecap="round" stroke-dasharray="2 2"/>
<line x1="22.5" y1="49.5" x2="611.5" y2="49.5001" stroke="#435ABC" stroke-linecap="round" stroke-dasharray="2 2"/>
<line x1="22.5" y1="9.5" x2="611.5" y2="9.50006" stroke="#435ABC" stroke-linecap="round" stroke-dasharray="2 2"/>
<line x1="22.5" y1="248.5" x2="611.5" y2="248.5" stroke="#435ABC" stroke-linecap="round" stroke-dasharray="2 2"/>
<line x1="22.5" y1="208.5" x2="585.5" y2="208.5" stroke="#435ABC" stroke-linecap="round" stroke-dasharray="2 2"/>
<line x1="22.5" y1="288.5" x2="611.5" y2="288.5" stroke="#435ABC" stroke-linecap="round" stroke-dasharray="2 2"/>
<line x1="22.5" y1="208.5" x2="585.5" y2="208.5" stroke="#435ABC" stroke-linecap="round" stroke-dasharray="2 2"/>
<line x1="22.5" y1="330.5" x2="611.5" y2="330.5" stroke="#435ABC" stroke-linecap="round" stroke-dasharray="2 2"/>
<line x1="569.801" y1="10.4326" x2="569.801" y2="331.07" stroke="#435ABC"/>
<line x1="62.0459" y1="10.4326" x2="62.0459" y2="331.07" stroke="#435ABC"/>
<line x1="118.463" y1="10.4326" x2="118.463" y2="331.07" stroke="#435ABC"/>
<line x1="174.88" y1="10.4326" x2="174.88" y2="331.07" stroke="#435ABC"/>
<line x1="231.298" y1="10.4326" x2="231.298" y2="331.07" stroke="#435ABC"/>
<line x1="344.132" y1="10.4326" x2="344.132" y2="331.07" stroke="#435ABC"/>
<line x1="456.967" y1="10.4326" x2="456.967" y2="331.07" stroke="#435ABC"/>
<line x1="287.715" y1="10.4326" x2="287.715" y2="331.07" stroke="#435ABC"/>
<line x1="400.549" y1="10.4326" x2="400.549" y2="331.07" stroke="#435ABC"/>
<line x1="513.384" y1="10.4326" x2="513.384" y2="331.07" stroke="#435ABC"/>
<path d="M40.7131 127.111C36.5972 177.546 25.2607 326.984 26.0381 327C31.9594 257.201 35.4406 218.202 43.8026 150.399C43.8026 150.399 45.3473 148.458 46.892 175.628C48.4368 202.797 63.7163 224.488 81.6486 244.521C102.994 275.146 122.584 303.712 141.121 313.415C159.658 323.119 179.323 326.164 206 327C206 327 114.86 175.628 91.6894 127.111C68.5183 78.5938 44.8289 76.675 40.7131 127.111Z" fill="#435ABC" fill-opacity="0.45" stroke="white" stroke-linecap="round" stroke-dasharray="2 6"/>
<path d="M26 325C28.3642 253.557 34.826 186.515 44.7262 117.26C47.7553 96.1563 64.2806 99.5114 71.9643 132.603C97.8229 243.121 253.268 298.666 312 322.132" stroke="#FFC725" stroke-width="1.5" stroke-miterlimit="1.5" stroke-linecap="round" stroke-linejoin="round"/>
<path d="M28 331C30.232 264.083 36.3323 201.287 45.6786 136.42C48.5383 116.653 64.139 119.796 71.3929 150.791C95.8048 254.308 242.554 306.334 298 328.313" stroke="white" stroke-width="1.5" stroke-miterlimit="1.5" stroke-linecap="round" stroke-linejoin="round"/>
<path d="M28 331C30.232 274.751 36.3323 221.966 45.6786 167.44C48.5383 150.824 64.139 153.466 71.3929 179.52C95.8048 266.534 242.554 310.267 298 328.742" stroke="white" stroke-width="1.5" stroke-miterlimit="1.5" stroke-linecap="round" stroke-linejoin="round"/>
<path opacity="0.5" d="M57.476 351.14C58.244 350.476 58.848 349.932 59.288 349.508C59.736 349.076 60.108 348.628 60.404 348.164C60.7 347.7 60.848 347.236 60.848 346.772C60.848 346.292 60.732 345.916 60.5 345.644C60.276 345.372 59.92 345.236 59.432 345.236C58.96 345.236 58.592 345.388 58.328 345.692C58.072 345.988 57.936 346.388 57.92 346.892H56.6C56.624 345.98 56.896 345.284 57.416 344.804C57.944 344.316 58.612 344.072 59.42 344.072C60.292 344.072 60.972 344.312 61.46 344.792C61.956 345.272 62.204 345.912 62.204 346.712C62.204 347.288 62.056 347.844 61.76 348.38C61.472 348.908 61.124 349.384 60.716 349.808C60.316 350.224 59.804 350.708 59.18 351.26L58.64 351.74H62.444V352.88H56.612V351.884L57.476 351.14Z" fill="white"/>
<path opacity="0.5" d="M113.552 351.176V350.144L117.584 344.36H119.24V349.988H120.356V351.176H119.24V353H117.896V351.176H113.552ZM117.956 345.752L115.124 349.988H117.956V345.752Z" fill="white"/>
<path opacity="0.5" d="M174.424 346.28C174.336 345.912 174.176 345.636 173.944 345.452C173.712 345.268 173.388 345.176 172.972 345.176C172.34 345.176 171.868 345.42 171.556 345.908C171.244 346.388 171.08 347.188 171.064 348.308C171.272 347.956 171.576 347.684 171.976 347.492C172.376 347.3 172.808 347.204 173.272 347.204C173.8 347.204 174.264 347.32 174.664 347.552C175.072 347.776 175.388 348.104 175.612 348.536C175.844 348.968 175.96 349.484 175.96 350.084C175.96 350.644 175.848 351.144 175.624 351.584C175.408 352.024 175.084 352.372 174.652 352.628C174.22 352.876 173.7 353 173.092 353C172.268 353 171.62 352.82 171.148 352.46C170.684 352.092 170.356 351.576 170.164 350.912C169.98 350.248 169.888 349.42 169.888 348.428C169.888 345.5 170.92 344.036 172.984 344.036C173.784 344.036 174.412 344.252 174.868 344.684C175.332 345.116 175.604 345.648 175.684 346.28H174.424ZM172.972 348.356C172.484 348.356 172.068 348.504 171.724 348.8C171.388 349.088 171.22 349.508 171.22 350.06C171.22 350.612 171.376 351.052 171.688 351.38C172.008 351.7 172.452 351.86 173.02 351.86C173.524 351.86 173.92 351.704 174.208 351.392C174.504 351.08 174.652 350.664 174.652 350.144C174.652 349.6 174.508 349.168 174.22 348.848C173.94 348.52 173.524 348.356 172.972 348.356Z" fill="white"/>
<path opacity="0.5" d="M228.196 348.428C227.364 348.012 226.948 347.356 226.948 346.46C226.948 346.028 227.056 345.632 227.272 345.272C227.488 344.912 227.812 344.628 228.244 344.42C228.676 344.204 229.204 344.096 229.828 344.096C230.444 344.096 230.968 344.204 231.4 344.42C231.84 344.628 232.168 344.912 232.384 345.272C232.6 345.632 232.708 346.028 232.708 346.46C232.708 346.908 232.592 347.304 232.36 347.648C232.136 347.984 231.836 348.244 231.46 348.428C231.916 348.596 232.276 348.872 232.54 349.256C232.804 349.632 232.936 350.076 232.936 350.588C232.936 351.108 232.804 351.568 232.54 351.968C232.276 352.368 231.908 352.676 231.436 352.892C230.964 353.108 230.428 353.216 229.828 353.216C229.228 353.216 228.692 353.108 228.22 352.892C227.756 352.676 227.392 352.368 227.128 351.968C226.864 351.568 226.732 351.108 226.732 350.588C226.732 350.068 226.864 349.62 227.128 349.244C227.392 348.868 227.748 348.596 228.196 348.428ZM231.4 346.628C231.4 346.18 231.26 345.836 230.98 345.596C230.7 345.356 230.316 345.236 229.828 345.236C229.348 345.236 228.968 345.356 228.688 345.596C228.408 345.836 228.268 346.184 228.268 346.64C228.268 347.04 228.412 347.368 228.7 347.624C228.996 347.872 229.372 347.996 229.828 347.996C230.284 347.996 230.66 347.868 230.956 347.612C231.252 347.356 231.4 347.028 231.4 346.628ZM229.828 349.028C229.3 349.028 228.868 349.16 228.532 349.424C228.204 349.68 228.04 350.052 228.04 350.54C228.04 350.996 228.2 351.368 228.52 351.656C228.84 351.936 229.276 352.076 229.828 352.076C230.372 352.076 230.8 351.932 231.112 351.644C231.432 351.356 231.592 350.988 231.592 350.54C231.592 350.06 231.428 349.688 231.1 349.424C230.78 349.16 230.356 349.028 229.828 349.028Z" fill="white"/>
<path opacity="0.5" d="M279.54 345.5V344.252H282.036V353H280.656V345.5H279.54ZM283.915 348.512C283.915 347.128 284.147 346.048 284.611 345.272C285.083 344.488 285.891 344.096 287.035 344.096C288.179 344.096 288.983 344.488 289.447 345.272C289.919 346.048 290.155 347.128 290.155 348.512C290.155 349.912 289.919 351.008 289.447 351.8C288.983 352.584 288.179 352.976 287.035 352.976C285.891 352.976 285.083 352.584 284.611 351.8C284.147 351.008 283.915 349.912 283.915 348.512ZM288.811 348.512C288.811 347.864 288.767 347.316 288.679 346.868C288.599 346.42 288.431 346.056 288.175 345.776C287.919 345.488 287.539 345.344 287.035 345.344C286.531 345.344 286.151 345.488 285.895 345.776C285.639 346.056 285.467 346.42 285.379 346.868C285.299 347.316 285.259 347.864 285.259 348.512C285.259 349.184 285.299 349.748 285.379 350.204C285.459 350.66 285.627 351.028 285.883 351.308C286.147 351.588 286.531 351.728 287.035 351.728C287.539 351.728 287.919 351.588 288.175 351.308C288.439 351.028 288.611 350.66 288.691 350.204C288.771 349.748 288.811 349.184 288.811 348.512Z" fill="white"/>
<path opacity="0.5" d="M334.54 345.5V344.252H337.036V353H335.656V345.5H334.54ZM339.671 351.14C340.439 350.476 341.043 349.932 341.483 349.508C341.931 349.076 342.303 348.628 342.599 348.164C342.895 347.7 343.043 347.236 343.043 346.772C343.043 346.292 342.927 345.916 342.695 345.644C342.471 345.372 342.115 345.236 341.627 345.236C341.155 345.236 340.787 345.388 340.523 345.692C340.267 345.988 340.131 346.388 340.115 346.892H338.795C338.819 345.98 339.091 345.284 339.611 344.804C340.139 344.316 340.807 344.072 341.615 344.072C342.487 344.072 343.167 344.312 343.655 344.792C344.151 345.272 344.399 345.912 344.399 346.712C344.399 347.288 344.251 347.844 343.955 348.38C343.667 348.908 343.319 349.384 342.911 349.808C342.511 350.224 341.999 350.708 341.375 351.26L340.835 351.74H344.639V352.88H338.807V351.884L339.671 351.14Z" fill="white"/>
<path opacity="0.5" d="M395.54 345.5V344.252H398.036V353H396.656V345.5H395.54ZM399.747 351.176V350.144L403.779 344.36H405.435V349.988H406.551V351.176H405.435V353H404.091V351.176H399.747ZM404.151 345.752L401.319 349.988H404.151V345.752Z" fill="white"/>
<path opacity="0.5" d="M450.54 345.5V344.252H453.036V353H451.656V345.5H450.54ZM459.619 346.28C459.531 345.912 459.371 345.636 459.139 345.452C458.907 345.268 458.583 345.176 458.167 345.176C457.535 345.176 457.063 345.42 456.751 345.908C456.439 346.388 456.275 347.188 456.259 348.308C456.467 347.956 456.771 347.684 457.171 347.492C457.571 347.3 458.003 347.204 458.467 347.204C458.995 347.204 459.459 347.32 459.859 347.552C460.267 347.776 460.583 348.104 460.807 348.536C461.039 348.968 461.155 349.484 461.155 350.084C461.155 350.644 461.043 351.144 460.819 351.584C460.603 352.024 460.279 352.372 459.847 352.628C459.415 352.876 458.895 353 458.287 353C457.463 353 456.815 352.82 456.343 352.46C455.879 352.092 455.551 351.576 455.359 350.912C455.175 350.248 455.083 349.42 455.083 348.428C455.083 345.5 456.115 344.036 458.179 344.036C458.979 344.036 459.607 344.252 460.063 344.684C460.527 345.116 460.799 345.648 460.879 346.28H459.619ZM458.167 348.356C457.679 348.356 457.263 348.504 456.919 348.8C456.583 349.088 456.415 349.508 456.415 350.06C456.415 350.612 456.571 351.052 456.883 351.38C457.203 351.7 457.647 351.86 458.215 351.86C458.719 351.86 459.115 351.704 459.403 351.392C459.699 351.08 459.847 350.664 459.847 350.144C459.847 349.6 459.703 349.168 459.415 348.848C459.135 348.52 458.719 348.356 458.167 348.356Z" fill="white"/>
<path opacity="0.5" d="M505.54 345.5V344.252H508.036V353H506.656V345.5H505.54ZM511.391 348.428C510.559 348.012 510.143 347.356 510.143 346.46C510.143 346.028 510.251 345.632 510.467 345.272C510.683 344.912 511.007 344.628 511.439 344.42C511.871 344.204 512.399 344.096 513.023 344.096C513.639 344.096 514.163 344.204 514.595 344.42C515.035 344.628 515.363 344.912 515.579 345.272C515.795 345.632 515.903 346.028 515.903 346.46C515.903 346.908 515.787 347.304 515.555 347.648C515.331 347.984 515.031 348.244 514.655 348.428C515.111 348.596 515.471 348.872 515.735 349.256C515.999 349.632 516.131 350.076 516.131 350.588C516.131 351.108 515.999 351.568 515.735 351.968C515.471 352.368 515.103 352.676 514.631 352.892C514.159 353.108 513.623 353.216 513.023 353.216C512.423 353.216 511.887 353.108 511.415 352.892C510.951 352.676 510.587 352.368 510.323 351.968C510.059 351.568 509.927 351.108 509.927 350.588C509.927 350.068 510.059 349.62 510.323 349.244C510.587 348.868 510.943 348.596 511.391 348.428ZM514.595 346.628C514.595 346.18 514.455 345.836 514.175 345.596C513.895 345.356 513.511 345.236 513.023 345.236C512.543 345.236 512.163 345.356 511.883 345.596C511.603 345.836 511.463 346.184 511.463 346.64C511.463 347.04 511.607 347.368 511.895 347.624C512.191 347.872 512.567 347.996 513.023 347.996C513.479 347.996 513.855 347.868 514.151 347.612C514.447 347.356 514.595 347.028 514.595 346.628ZM513.023 349.028C512.495 349.028 512.063 349.16 511.727 349.424C511.399 349.68 511.235 350.052 511.235 350.54C511.235 350.996 511.395 351.368 511.715 351.656C512.035 351.936 512.471 352.076 513.023 352.076C513.567 352.076 513.995 351.932 514.307 351.644C514.627 351.356 514.787 350.988 514.787 350.54C514.787 350.06 514.623 349.688 514.295 349.424C513.975 349.16 513.551 349.028 513.023 349.028Z" fill="white"/>
<path opacity="0.5" d="M561.476 351.14C562.244 350.476 562.848 349.932 563.288 349.508C563.736 349.076 564.108 348.628 564.404 348.164C564.7 347.7 564.848 347.236 564.848 346.772C564.848 346.292 564.732 345.916 564.5 345.644C564.276 345.372 563.92 345.236 563.432 345.236C562.96 345.236 562.592 345.388 562.328 345.692C562.072 345.988 561.936 346.388 561.92 346.892H560.6C560.624 345.98 560.896 345.284 561.416 344.804C561.944 344.316 562.612 344.072 563.42 344.072C564.292 344.072 564.972 344.312 565.46 344.792C565.956 345.272 566.204 345.912 566.204 346.712C566.204 347.288 566.056 347.844 565.76 348.38C565.472 348.908 565.124 349.384 564.716 349.808C564.316 350.224 563.804 350.708 563.18 351.26L562.64 351.74H566.444V352.88H560.612V351.884L561.476 351.14ZM567.646 348.512C567.646 347.128 567.878 346.048 568.342 345.272C568.814 344.488 569.622 344.096 570.766 344.096C571.91 344.096 572.714 344.488 573.178 345.272C573.65 346.048 573.886 347.128 573.886 348.512C573.886 349.912 573.65 351.008 573.178 351.8C572.714 352.584 571.91 352.976 570.766 352.976C569.622 352.976 568.814 352.584 568.342 351.8C567.878 351.008 567.646 349.912 567.646 348.512ZM572.542 348.512C572.542 347.864 572.498 347.316 572.41 346.868C572.33 346.42 572.162 346.056 571.906 345.776C571.65 345.488 571.27 345.344 570.766 345.344C570.262 345.344 569.882 345.488 569.626 345.776C569.37 346.056 569.198 346.42 569.11 346.868C569.03 347.316 568.99 347.864 568.99 348.512C568.99 349.184 569.03 349.748 569.11 350.204C569.19 350.66 569.358 351.028 569.614 351.308C569.878 351.588 570.262 351.728 570.766 351.728C571.27 351.728 571.65 351.588 571.906 351.308C572.17 351.028 572.342 350.66 572.422 350.204C572.502 349.748 572.542 349.184 572.542 348.512Z" fill="white"/>
</svg>
