<svg width="20" height="24" viewBox="0 0 20 24" fill="none" xmlns="http://www.w3.org/2000/svg">
<path d="M17 8.424V7C17 5.14348 16.2625 3.36301 14.9498 2.05025C13.637 0.737498 11.8565 0 10 0C8.14349 0 6.36301 0.737498 5.05025 2.05025C3.7375 3.36301 3 5.14348 3 7V8.424C2.10936 8.8127 1.35129 9.45252 0.818499 10.2652C0.285705 11.0779 0.00127838 12.0282 0 13V19C0.00158786 20.3256 0.528882 21.5964 1.46622 22.5338C2.40356 23.4711 3.67441 23.9984 5 24H15C16.3256 23.9984 17.5964 23.4711 18.5338 22.5338C19.4711 21.5964 19.9984 20.3256 20 19V13C19.9987 12.0282 19.7143 11.0779 19.1815 10.2652C18.6487 9.45252 17.8906 8.8127 17 8.424ZM5 7C5 5.67392 5.52679 4.40215 6.46447 3.46447C7.40215 2.52678 8.67392 2 10 2C11.3261 2 12.5979 2.52678 13.5355 3.46447C14.4732 4.40215 15 5.67392 15 7V8H5V7ZM18 19C18 19.7956 17.6839 20.5587 17.1213 21.1213C16.5587 21.6839 15.7957 22 15 22H5C4.20435 22 3.44129 21.6839 2.87868 21.1213C2.31607 20.5587 2 19.7956 2 19V13C2 12.2043 2.31607 11.4413 2.87868 10.8787C3.44129 10.3161 4.20435 10 5 10H15C15.7957 10 16.5587 10.3161 17.1213 10.8787C17.6839 11.4413 18 12.2043 18 13V19Z" fill="#DADADA"/>
<path d="M10 14C9.73478 14 9.48043 14.1054 9.29289 14.2929C9.10536 14.4804 9 14.7348 9 15V17C9 17.2652 9.10536 17.5196 9.29289 17.7071C9.48043 17.8946 9.73478 18 10 18C10.2652 18 10.5196 17.8946 10.7071 17.7071C10.8946 17.5196 11 17.2652 11 17V15C11 14.7348 10.8946 14.4804 10.7071 14.2929C10.5196 14.1054 10.2652 14 10 14Z" fill="#DADADA"/>
</svg>
