<svg width="67" height="71" viewBox="0 0 67 71" fill="none" xmlns="http://www.w3.org/2000/svg">
<path fill-rule="evenodd" clip-rule="evenodd" d="M33.4913 9.93987C25.5463 -5.81013 3.69026 -0.770134 1.59026 20.2299L1.07526 38.1299C1.01626 38.9199 1.18726 39.7099 1.59026 40.4999C1.77226 41.2999 1.72426 42.2399 1.34626 43.3999C1.05726 44.4299 0.926265 45.5099 1.07526 46.6599V48.4799C1.06626 48.5799 1.11726 48.6799 1.22126 48.7799C1.11526 48.8399 1.05826 48.9199 1.07526 49.0199L0.710265 65.4699C0.606265 67.3399 1.63826 68.6699 3.81726 69.4499L6.41126 70.2099C7.74026 70.5699 9.00026 70.6499 10.1923 70.4299L32.1323 66.8899C34.1593 66.4199 35.3493 65.2399 35.3753 63.0899L36.2183 33.4399L60.1973 34.7999C67.4933 34.6399 69.7363 13.5999 60.1973 11.2799L36.7273 11.0999C35.9053 10.4999 34.9153 10.0399 33.4913 9.93987Z" fill="#2B4098" stroke="#153683" stroke-width="0.375" stroke-linecap="round" stroke-linejoin="round"/>
<path d="M36.0012 10.5113L36.001 10.5C36.0014 10.5038 36.0015 10.5076 36.0012 10.5113L36.5009 34L35.5009 63C35.0009 67 32.5009 67 23.5009 68.5L9.50086 71C8.16753 70.8333 5.40086 70.1 5.00086 68.5C4.60086 66.9 5.16753 35.8333 5.50086 20.5C5.60955 15.5 7.80098 8.3 11.001 5.5C14.201 2.7 18.001 1 22.501 1C24.6322 1.5 29.416 3.4 31.501 7C33.562 10.5585 35.98 10.8275 36.0012 10.5113Z" fill="white"/>
<path d="M25.0005 9.99986L34.5005 9.99986L36.5006 10.9999V33.4999L35.5006 33.9999L32.5006 34.4999L30.5006 33.9999H26.5006L23.5006 34.4999C21.6672 34.6665 17.5005 33.4999 15.5005 27.4999C13.0005 19.9999 15.0005 15.4999 17.5005 12.4999C19.5005 10.0999 23.5005 9.66653 25.0005 9.99986Z" fill="#2B4098"/>
<path d="M60 11.5H29.9999C29.4999 12.3333 24.9999 14.5875 25 21C25.0002 30 28.9999 32 30.0002 33C40.3335 33.6667 60.1999 35 60.9999 35C61.9999 35 66.4999 31.5 66.4999 22C66.4999 14.4 62.1667 12.1667 60 11.5Z" fill="white"/>
<path fill-rule="evenodd" clip-rule="evenodd" d="M33.4913 9.93987C25.5463 -5.81013 3.69026 -0.770134 1.59026 20.2299L1.07526 38.1299C1.01626 38.9199 1.18726 39.7099 1.59026 40.4999C1.77226 41.2999 1.72426 42.2399 1.34626 43.3999C1.05726 44.4299 0.926265 45.5099 1.07526 46.6599V48.4799C1.06626 48.5799 1.11726 48.6799 1.22126 48.7799C1.11526 48.8399 1.05826 48.9199 1.07526 49.0199L0.710265 65.4699C0.606265 67.3399 1.63826 68.6699 3.81726 69.4499L6.41126 70.2099C7.74026 70.5699 9.00026 70.6499 10.1923 70.4299L32.1323 66.8899C34.1593 66.4199 35.3493 65.2399 35.3753 63.0899L36.2183 33.4399L60.1973 34.7999C67.4933 34.6399 69.7363 13.5999 60.1973 11.2799L36.7273 11.0999C35.9053 10.4999 34.9153 10.0399 33.4913 9.93987Z" stroke="#153683" stroke-width="0.375" stroke-linecap="round" stroke-linejoin="round"/>
<path d="M36.9859 11.0999L30.2549 11.1699" stroke="#153683" stroke-width="0.375" stroke-linecap="round" stroke-linejoin="round"/>
<path d="M36.4549 33.4399L29.6719 33.1299" stroke="#153683" stroke-width="0.375" stroke-linecap="round" stroke-linejoin="round"/>
<path d="M28.4676 32.14L22.1846 31.71" stroke="#153683" stroke-width="0.225" stroke-linecap="round" stroke-linejoin="round"/>
<path d="M29.3179 11.7598L22.4209 12.0898" stroke="#153683" stroke-width="0.225" stroke-linecap="round" stroke-linejoin="round"/>
<path d="M1.44531 48.8198L4.00831 49.3098V67.0598C4.06331 68.3898 4.64231 69.3898 6.04631 69.8698" stroke="#153683" stroke-width="0.225" stroke-linecap="round" stroke-linejoin="round"/>
<path d="M26.4516 10.0098C15.8016 12.1598 16.5846 32.3198 26.4096 33.9998" stroke="#153683" stroke-width="0.375" stroke-linecap="round" stroke-linejoin="round"/>
<path d="M33.4888 9.94995C23.1088 11.64 21.9308 29.27 30.9788 34" stroke="#153683" stroke-width="0.375" stroke-linecap="round" stroke-linejoin="round"/>
<path fill-rule="evenodd" clip-rule="evenodd" d="M59.3093 12.45C62.6153 12.45 65.2993 17.17 65.2993 22.98C65.2993 28.8 62.6153 33.51 59.3093 33.51C56.0043 33.51 53.3203 28.8 53.3203 22.98C53.3203 17.17 56.0043 12.45 59.3093 12.45Z" fill="#2B4098" stroke="#153683" stroke-width="0.375" stroke-linecap="round" stroke-linejoin="round"/>
<path d="M33.5903 9.89993L26.5103 9.99993C8.73332 6.64993 12.2323 38.4599 26.5103 34.0099H31.0053C32.9283 34.6499 34.6843 34.3799 36.3233 33.4499" stroke="#153683" stroke-width="0.375" stroke-linecap="round" stroke-linejoin="round"/>
<path fill-rule="evenodd" clip-rule="evenodd" d="M27.2318 41.24H27.2998C27.3218 41.24 27.3368 41.23 27.3498 41.22C27.3618 41.21 27.3668 41.2 27.3658 41.18C27.3638 41.16 27.3568 41.15 27.3448 41.14C27.3328 41.13 27.3118 41.13 27.2818 41.13L27.2218 41.14L27.2318 41.24ZM27.2368 41.3L27.2498 41.44H27.1878L27.1548 41.09L27.2748 41.08C27.3198 41.07 27.3548 41.08 27.3808 41.1C27.4078 41.11 27.4218 41.14 27.4258 41.17C27.4288 41.21 27.4128 41.23 27.3768 41.26C27.4138 41.27 27.4338 41.29 27.4388 41.34L27.4408 41.36C27.4428 41.39 27.4468 41.4 27.4528 41.41L27.4538 41.42L27.3908 41.43C27.3858 41.42 27.3818 41.4 27.3798 41.37C27.3768 41.35 27.3758 41.33 27.3738 41.33C27.3668 41.3 27.3468 41.29 27.3128 41.29L27.2368 41.3ZM27.0388 41.28C27.0428 41.33 27.0588 41.38 27.0858 41.41C27.1128 41.45 27.1478 41.48 27.1888 41.5C27.2308 41.52 27.2758 41.53 27.3228 41.52C27.3698 41.52 27.4118 41.5 27.4498 41.48C27.4868 41.45 27.5158 41.42 27.5348 41.37C27.5538 41.33 27.5618 41.28 27.5578 41.24C27.5528 41.19 27.5378 41.15 27.5108 41.11C27.4848 41.07 27.4498 41.04 27.4068 41.02C27.3658 41 27.3208 40.99 27.2738 41C27.2268 41 27.1858 41.02 27.1468 41.04C27.1088 41.07 27.0798 41.11 27.0608 41.15C27.0418 41.19 27.0338 41.24 27.0388 41.28ZM26.9878 41.29C26.9828 41.23 26.9908 41.18 27.0138 41.13C27.0368 41.08 27.0708 41.04 27.1158 41C27.1618 40.97 27.2118 40.95 27.2678 40.95C27.3238 40.94 27.3768 40.95 27.4278 40.97C27.4778 41 27.5188 41.03 27.5508 41.08C27.5828 41.12 27.6008 41.18 27.6068 41.23C27.6118 41.29 27.6028 41.34 27.5808 41.39C27.5588 41.44 27.5258 41.48 27.4798 41.52C27.4348 41.55 27.3828 41.57 27.3248 41.57C27.2678 41.58 27.2138 41.57 27.1628 41.55C27.1118 41.52 27.0708 41.49 27.0398 41.44C27.0088 41.4 26.9928 41.34 26.9878 41.29Z" fill="#2B4098"/>
<path fill-rule="evenodd" clip-rule="evenodd" d="M20.1248 44.2099L20.1178 44.2199C20.0308 44.2199 19.8918 44.2299 19.6948 44.2499L19.5388 44.2599L19.4768 43.6199C19.4768 43.6199 19.4648 43.4999 19.4558 43.4099C19.4478 43.3499 19.4378 43.2099 19.4278 43.1399C19.4118 43.0399 19.3908 42.8399 19.3528 42.7399C19.3088 42.6099 19.2538 42.4999 19.0738 42.3699C18.8748 42.2099 18.3948 42.2399 18.1668 42.4899C17.8838 42.7999 17.8828 43.1799 18.1688 43.5299C18.2458 43.6199 18.3758 43.6899 18.5148 43.7299C18.5958 43.7499 18.6808 43.7599 18.7388 43.7599C18.8538 43.7499 18.9808 43.7499 19.0908 43.7399C19.0918 43.7399 19.1808 43.7299 19.1818 43.7299L19.2478 44.2899C19.1118 44.2999 18.8308 44.3299 18.6968 44.3299C18.5998 44.3399 18.4568 44.3299 18.3208 44.2899C18.0888 44.2199 17.8448 44.0599 17.7148 43.8999C17.2568 43.3499 17.2648 42.6399 17.6858 42.1099C18.0148 41.6999 18.8348 41.5199 19.3478 41.8699C19.6608 42.0899 19.8358 42.3499 19.9088 42.5599C19.9848 42.7799 20.0148 43.0399 20.0408 43.2199C20.0598 43.3399 20.0798 43.5899 20.0898 43.6999C20.1148 43.9599 20.1238 44.0599 20.1318 44.1699C20.1368 44.2099 20.1398 44.2099 20.1248 44.2099ZM26.1668 41.0499L25.7098 42.8899L24.8188 41.1699L24.1778 41.2299L25.4758 43.6399L25.4598 43.6799C25.4108 43.8599 25.3388 43.9899 25.2478 44.0799C25.1578 44.1699 25.0298 44.2199 24.8648 44.2199H24.8378L24.8898 44.7799H24.9128C24.9408 44.7799 24.9688 44.7799 24.9968 44.7799C25.5348 44.7299 25.8938 44.3699 26.0658 43.7199L26.7908 40.9899L26.1668 41.0499ZM22.2498 42.4699L23.6548 42.3399C23.5998 42.1599 23.5068 42.0299 23.3788 41.9399C23.2428 41.8499 23.0888 41.8199 22.9198 41.8299C22.7268 41.8499 22.5688 41.9199 22.4518 42.0399C22.3398 42.1499 22.2718 42.2999 22.2498 42.4699ZM23.8288 41.5999C24.0908 41.8399 24.2408 42.1499 24.2758 42.5299C24.2808 42.5899 24.2818 42.6599 24.2768 42.7599L24.2758 42.7799L22.3018 42.9599C22.3598 43.1299 22.4578 43.2599 22.5958 43.3399C22.7428 43.4199 22.9178 43.4599 23.1178 43.4399C23.3938 43.4199 23.5948 43.2899 23.7128 43.0799L23.7238 43.0599L24.2368 43.2999L24.2228 43.3299C24.0078 43.7199 23.6508 43.9499 23.1638 43.9899C22.7538 44.0299 22.4048 43.9299 22.1298 43.6999C21.8528 43.4699 21.6948 43.1499 21.6588 42.7599C21.6238 42.3799 21.7198 42.0399 21.9458 41.7599C22.1708 41.4799 22.4828 41.3199 22.8738 41.2899C23.2448 41.2499 23.5648 41.3599 23.8288 41.5999ZM20.5378 40.7299C20.3598 40.9299 20.2848 41.2099 20.3178 41.5599L20.5578 44.1599L21.1458 44.1099L20.9608 42.1099L21.5488 42.0599L21.4958 41.4799L20.9068 41.5299L20.9048 41.5099C20.8888 41.3399 20.9208 41.2099 20.9978 41.1199C21.0828 41.0299 21.2248 40.9799 21.4218 40.9799H21.4488L21.3948 40.3999L21.3718 40.4099C20.9958 40.4199 20.7148 40.5199 20.5378 40.7299ZM16.9878 43.3099C17.0938 43.4099 17.1558 43.5599 17.1718 43.7399C17.1948 43.9899 17.1178 44.1899 16.9408 44.3499C16.7668 44.5099 16.5338 44.6099 16.2508 44.6299C16.0008 44.6499 15.7798 44.6199 15.5898 44.5299C15.4008 44.4399 15.2538 44.2999 15.1548 44.1199L15.1438 44.0999L15.6238 43.7499L15.6368 43.7799C15.7418 44.0099 15.9258 44.1099 16.1998 44.0799C16.4678 44.0599 16.5908 43.9599 16.5738 43.7899C16.5678 43.7099 16.5218 43.6599 16.4338 43.6199C16.3408 43.5799 16.2258 43.5499 16.0928 43.5299C15.9568 43.4999 15.8188 43.4699 15.6828 43.4399C15.5418 43.3999 15.4178 43.3299 15.3138 43.2299C15.2078 43.1199 15.1468 42.9799 15.1308 42.8099C15.1088 42.5699 15.1818 42.3599 15.3478 42.1999C15.5128 42.0399 15.7298 41.9499 15.9938 41.9199C16.2018 41.8999 16.3968 41.9299 16.5698 42.0099C16.7428 42.0899 16.8828 42.2199 16.9878 42.3799L17.0008 42.3999L16.5298 42.7199L16.5158 42.6999C16.4148 42.5199 16.2618 42.4499 16.0438 42.4699C15.9458 42.4799 15.8648 42.5099 15.8038 42.5499C15.7448 42.5999 15.7198 42.6599 15.7268 42.7399C15.7338 42.8199 15.7798 42.8699 15.8678 42.9099C15.9608 42.9499 16.0758 42.9799 16.2078 42.9999C16.3428 43.0299 16.4808 43.0499 16.6178 43.0899C16.7578 43.1299 16.8838 43.1999 16.9878 43.3099Z" fill="#2B4098"/>
</svg>
