<svg width="18" height="24" viewBox="0 0 18 24" fill="none" xmlns="http://www.w3.org/2000/svg">
<path fill-rule="evenodd" clip-rule="evenodd" d="M12.3334 10.9888C11.3467 11.6481 10.1867 12 9 12C7.40919 11.9984 5.88399 11.3658 4.75911 10.2409C3.63424 9.11601 3.00159 7.59081 3 6C3 4.81331 3.35189 3.65328 4.01118 2.66658C4.67047 1.67989 5.60754 0.910851 6.7039 0.456725C7.80026 0.00259972 9.00666 -0.11622 10.1705 0.115291C11.3344 0.346802 12.4035 0.918247 13.2426 1.75736C14.0818 2.59648 14.6532 3.66557 14.8847 4.82946C15.1162 5.99335 14.9974 7.19975 14.5433 8.2961C14.0892 9.39246 13.3201 10.3295 12.3334 10.9888ZM11.2223 2.67412C10.5645 2.2346 9.79113 2 9 2C7.93913 2 6.92172 2.42143 6.17157 3.17158C5.42143 3.92172 5 4.93914 5 6C5 6.79113 5.2346 7.56449 5.67412 8.22228C6.11365 8.88008 6.73836 9.39277 7.46927 9.69552C8.20017 9.99827 9.00444 10.0775 9.78036 9.92314C10.5563 9.7688 11.269 9.38784 11.8284 8.82843C12.3878 8.26902 12.7688 7.55629 12.9231 6.78036C13.0775 6.00444 12.9983 5.20017 12.6955 4.46927C12.3928 3.73836 11.8801 3.11365 11.2223 2.67412ZM2.63896 16.639C4.32622 14.9517 6.61386 14.0027 9 14C11.3861 14.0027 13.6738 14.9517 15.361 16.639C17.0483 18.3262 17.9974 20.6139 18 23C18 23.2652 17.8946 23.5196 17.7071 23.7071C17.5196 23.8947 17.2652 24 17 24C16.7348 24 16.4804 23.8947 16.2929 23.7071C16.1054 23.5196 16 23.2652 16 23C16 21.1435 15.2625 19.363 13.9497 18.0503C12.637 16.7375 10.8565 16 9 16C7.14348 16 5.36301 16.7375 4.05025 18.0503C2.7375 19.363 2 21.1435 2 23C2 23.2652 1.89464 23.5196 1.70711 23.7071C1.51957 23.8947 1.26522 24 1 24C0.734783 24 0.48043 23.8947 0.292893 23.7071C0.105357 23.5196 0 23.2652 0 23C0.00264685 20.6139 0.951708 18.3262 2.63896 16.639Z" fill="#DADADA"/>
</svg>
