<?xml version="1.0" encoding="utf-8"?>
<!-- Generator: Adobe Illustrator 26.0.2, SVG Export Plug-In . SVG Version: 6.00 Build 0)  -->
<svg version="1.1" id="Layer_1" xmlns="http://www.w3.org/2000/svg" xmlns:xlink="http://www.w3.org/1999/xlink" x="0px" y="0px"
	 viewBox="0 0 525.9 607.2" style="enable-background:new 0 0 525.9 607.2;" xml:space="preserve">
<style type="text/css">
	.st0{fill-rule:evenodd;clip-rule:evenodd;fill:#67BC93;}
	.st1{fill-rule:evenodd;clip-rule:evenodd;fill:#E5E5E5;}
	.st2{fill-rule:evenodd;clip-rule:evenodd;fill:#F19780;}
	.st3{fill-rule:evenodd;clip-rule:evenodd;fill:#FFFFFF;}
	.st4{clip-path:url(#SVGID_00000056416956090358966190000005796671912625824128_);}
	
		.st5{fill-rule:evenodd;clip-rule:evenodd;fill:#2B4098;stroke:#153683;stroke-width:0.375;stroke-linecap:round;stroke-linejoin:round;}
	.st6{fill:#FFFFFF;}
	.st7{fill:#2B4098;}
	.st8{fill:none;stroke:#153683;stroke-width:0.375;stroke-linecap:round;stroke-linejoin:round;}
	.st9{fill:none;stroke:#153683;stroke-width:0.225;stroke-linecap:round;stroke-linejoin:round;}
	.st10{fill-rule:evenodd;clip-rule:evenodd;fill:#2B4098;}
	.st11{fill-rule:evenodd;clip-rule:evenodd;fill:#FFED00;}
	.st12{fill-rule:evenodd;clip-rule:evenodd;fill:#3E3872;}
	.st13{fill-rule:evenodd;clip-rule:evenodd;fill:#AF4EA6;}
	.st14{fill-rule:evenodd;clip-rule:evenodd;fill:#F8B797;}
	.st15{fill-rule:evenodd;clip-rule:evenodd;fill:#CC4362;}
	.st16{fill-rule:evenodd;clip-rule:evenodd;fill:#2E2954;}
	.st17{fill:none;stroke:#F19780;stroke-width:2;stroke-linecap:round;stroke-linejoin:round;}
	.st18{fill-rule:evenodd;clip-rule:evenodd;fill:#F8B797;filter:url(#Adobe_OpacityMaskFilter);}
	.st19{mask:url(#mask0_201_175_00000062891919428630185260000000849195216963299762_);}
	.st20{fill:#F19780;}
</style>
<path class="st0" d="M491.9,258.3c0,0,0.3-7.1-5.8-17.9c-6.1-10.8-14.2-18.9-14.2-18.9s3.7,0,9.7,6.1c6.1,6.1,9.5,11.8,9.5,11.8
	s0.5-7.4-7.4-20.3c-7.9-12.9-14.5-21.6-14.5-21.6s13.9,6.6,20.5,17.1c6.6,10.5,8.4,15.5,8.4,15.5s0-11.1,0-19.2c0-8.2,0.8-20,0.8-20
	s3.4,9.2,4.2,21.1c0.8,11.8,1.1,21.6,1.1,21.6s0.3-10.5,3.2-21.6c2.9-11.1,8.4-22.4,8.4-22.4s0.8,19.2-1.3,30
	c-2.1,10.8-4.7,20-4.7,20s1.1-4.2,5.8-10.8c4.7-6.6,10.3-10.8,10.3-10.8s-9.2,18.4-10.3,25.3c-1.1,6.8-1.3,14.5-1.3,14.5"/>
<path class="st0" d="M451.1,278.8c0,0-5.8-7.4-5.8-11.8s4.5,2.1,4.5,2.1s-9.5-17.4-8.7-24.5c0.8-7.1,7.9,12.4,7.9,12.4
	s-2.4-40,1.6-38.7c3.9,1.3,8.9,38.9,8.9,41.3c0,2.4,3.4-16.6,6.1-11.1c2.6,5.5,2.6,18.7,2.6,18.7s3.4-20,6.1-13.2
	c2.6,6.8-3.2,25-3.2,25"/>
<path class="st0" d="M380.6,279.6c0,0,2.4-4.5-2.4-11.3c-4.7-6.8-10.5-12.9-10.5-12.9s10,3.7,12.9,6.8c2.9,3.2,5.5,7.1,5.3,6.3
	c-0.3-0.8-4.2-8.2-8.4-16.6c-4.2-8.4-8.2-16.6-8.2-16.6s5.5,7.4,11.8,13.4c6.3,6.1,10.3,13.7,10.3,13.7s-2.9-15.3-2.9-22.1
	s1.3-18.4,1.3-18.4s4.7,11.6,5.8,20c1.1,8.4,1.3,17.9,1.3,17.9s0.5-2.6,2.6-11.6c2.1-8.9,6.8-21.1,6.8-21.1s0.5,10,0.3,20
	c-0.3,10-4.5,21.8-4.5,21.8s3.9-4.5,7.1-8.7c3.2-4.2,4.5-6.6,4.5-6.6s-6.8,16.3-7.6,18.2c-0.8,1.8-2.4,7.9-2.4,7.9L380.6,279.6z"/>
<path class="st1" d="M527.7,325.1v-0.6H367.7v-11.8h159.4v12.4H527.7v-0.6V325.1h0.6v-13c0-0.1-0.1-0.3-0.2-0.4
	c-0.1-0.1-0.2-0.2-0.4-0.2H367.2c-0.1,0-0.3,0.1-0.4,0.2c-0.1,0.1-0.2,0.2-0.2,0.4v13c0,0.1,0.1,0.3,0.2,0.4
	c0.1,0.1,0.2,0.2,0.4,0.2h160.5c0.1,0,0.3-0.1,0.4-0.2c0.1-0.1,0.2-0.2,0.2-0.4H527.7z"/>
<path class="st1" d="M405.8,289v-0.6h-27.4v-8.3h26.9v8.9H405.8v-0.6V289h0.6v-9.5c0-0.1-0.1-0.3-0.2-0.4c-0.1-0.1-0.2-0.2-0.4-0.2
	h-28c-0.1,0-0.3,0.1-0.4,0.2c-0.1,0.1-0.2,0.3-0.2,0.4v9.5c0,0.1,0.1,0.3,0.2,0.4c0.1,0.1,0.3,0.2,0.4,0.2h28c0.1,0,0.3-0.1,0.4-0.2
	c0.1-0.1,0.2-0.2,0.2-0.4H405.8z"/>
<path class="st1" d="M402.4,312v-0.6h-20.9l-10.1-21.9h40.7l-10.2,22.2L402.4,312v-0.6V312l0.5,0.2l10.6-23c0.1-0.2,0.1-0.4,0-0.5
	c-0.1-0.2-0.3-0.3-0.5-0.3h-42.4c-0.2,0-0.4,0.1-0.5,0.3c-0.1,0.2-0.1,0.4,0,0.5l10.6,23c0.1,0.2,0.3,0.3,0.5,0.3h21.2
	c0.2,0,0.4-0.1,0.5-0.3L402.4,312z"/>
<path class="st1" d="M435.5,253.1v-0.6H419c-0.1,0-0.3,0.1-0.4,0.2c-0.1,0.1-0.2,0.2-0.2,0.4v59c0,0.1,0.1,0.3,0.2,0.4
	c0.1,0.1,0.2,0.2,0.4,0.2h16.6c0.1,0,0.3-0.1,0.4-0.2c0.1-0.1,0.2-0.2,0.2-0.4v-59c0-0.1-0.1-0.3-0.2-0.4c-0.1-0.1-0.2-0.2-0.4-0.2
	V253.1H435v58.4h-15.4v-57.9h16V253.1H435H435.5z"/>
<path class="st1" d="M477.5,296.3v15.2h-31.3V295c0-0.3-0.3-0.6-0.6-0.6c-0.3,0-0.6,0.3-0.6,0.6v17.1c0,0.1,0.1,0.3,0.2,0.4
	c0.1,0.1,0.3,0.2,0.4,0.2h32.4c0.1,0,0.3-0.1,0.4-0.2c0.1-0.1,0.2-0.2,0.2-0.4v-15.8c0-0.3-0.3-0.6-0.6-0.6
	C477.7,295.7,477.5,296,477.5,296.3z"/>
<path class="st1" d="M478,294.1h0.6V279c0-0.1-0.1-0.3-0.2-0.4c-0.1-0.1-0.3-0.2-0.4-0.2h-32.4c-0.1,0-0.3,0.1-0.4,0.2
	c-0.1,0.1-0.2,0.2-0.2,0.4v17.3c0,2.5,2,4.4,4.4,4.4h0.2c2.5,0,4.4-2,4.4-4.4v-2.2h-0.6v0.6h0.2v-0.6h-0.6v2.2c0,2.5,2,4.4,4.4,4.4
	h0.2c2.5,0,4.4-2,4.4-4.4v-2.2h-0.6v0.6h0.2v-0.6h-0.6v2.2c0,2.5,2,4.4,4.4,4.4h0.2c2.5,0,4.4-2,4.4-4.4v-2.2h-0.6v0.6h0.2v-0.6
	h-0.6v2.2c0,2.5,2,4.4,4.4,4.4h0.2c2.5,0,4.4-2,4.4-4.4v-2.2c0-0.1-0.1-0.3-0.2-0.4c-0.1-0.1-0.3-0.2-0.4-0.2H478V294.1h0.6H478v0.6
	h0.1L478,294.1h-0.5v2.2c0,1.8-1.5,3.3-3.3,3.3H474c-1.8,0-3.3-1.5-3.3-3.3v-2.2c0-0.1-0.1-0.3-0.2-0.4c-0.1-0.1-0.2-0.2-0.4-0.2
	h-0.2c-0.1,0-0.3,0.1-0.4,0.2c-0.1,0.1-0.2,0.2-0.2,0.4v2.2c0,1.8-1.5,3.3-3.3,3.3h-0.2c-1.8,0-3.3-1.5-3.3-3.3v-2.2
	c0-0.1-0.1-0.3-0.2-0.4c-0.1-0.1-0.2-0.2-0.4-0.2h-0.2c-0.1,0-0.3,0.1-0.4,0.2c-0.1,0.1-0.2,0.2-0.2,0.4v2.2c0,1.8-1.5,3.3-3.3,3.3
	h-0.2c-1.8,0-3.3-1.5-3.3-3.3v-2.2c0-0.1-0.1-0.3-0.2-0.4c-0.1-0.1-0.3-0.2-0.4-0.2h-0.2c-0.1,0-0.3,0.1-0.4,0.2
	c-0.1,0.1-0.2,0.2-0.2,0.4v2.2c0,1.8-1.5,3.3-3.3,3.3h-0.2c-1.8,0-3.3-1.5-3.3-3.3v-16.7h31.3v14.5c0,0.1,0.1,0.3,0.2,0.4
	c0.1,0.1,0.3,0.2,0.4,0.2V294.1z"/>
<path class="st1" d="M516.9,300v-0.6h-30.6V258h30.1V300H516.9v-0.6V300h0.6v-42.6c0-0.1-0.1-0.3-0.2-0.4c-0.1-0.1-0.2-0.2-0.4-0.2
	h-31.2c-0.1,0-0.3,0.1-0.4,0.2c-0.1,0.1-0.2,0.2-0.2,0.4V300c0,0.1,0.1,0.3,0.2,0.4c0.1,0.1,0.3,0.2,0.4,0.2h31.2
	c0.1,0,0.3-0.1,0.4-0.2c0.1-0.1,0.2-0.2,0.2-0.4H516.9z"/>
<path class="st1" d="M513.8,312.1v-0.6h-24.5v-10.8h24v11.4H513.8v-0.6V312.1h0.6v-11.9c0-0.1-0.1-0.3-0.2-0.4
	c-0.1-0.1-0.3-0.2-0.4-0.2h-25.1c-0.1,0-0.3,0.1-0.4,0.2c-0.1,0.1-0.2,0.2-0.2,0.4v11.9c0,0.1,0.1,0.3,0.2,0.4
	c0.1,0.1,0.3,0.2,0.4,0.2h25.1c0.1,0,0.3-0.1,0.4-0.2c0.1-0.1,0.2-0.3,0.2-0.4H513.8z"/>
<path class="st0" d="M420.9,244.7c-1.6,0-2.9-1.3-2.9-2.9c0-1.6,1.3-2.9,2.9-2.9s2.9,1.3,2.9,2.9
	C423.8,243.4,422.5,244.7,420.9,244.7z M420.9,234.8c-3.9,0-7,3.1-7,7c0,3.9,3.1,7,7,7c3.9,0,7-3.1,7-7
	C427.9,237.9,424.8,234.8,420.9,234.8z"/>
<path class="st0" d="M427.9,237c-1.2,0-2.2-1-2.2-2.2c0-1.2,1-2.2,2.2-2.2c1.2,0,2.2,1,2.2,2.2C430.1,236,429.1,237,427.9,237z
	 M427.9,229.6c-2.9,0-5.2,2.3-5.2,5.2c0,2.9,2.3,5.2,5.2,5.2c2.9,0,5.2-2.3,5.2-5.2C433.1,231.9,430.8,229.6,427.9,229.6z"/>
<path class="st0" d="M432.1,247c-1.2,0-2.2-1-2.2-2.2c0-1.2,1-2.2,2.2-2.2s2.2,1,2.2,2.2C434.3,246,433.3,247,432.1,247z
	 M432.1,239.6c-2.9,0-5.2,2.3-5.2,5.2c0,2.9,2.3,5.2,5.2,5.2c2.9,0,5.2-2.3,5.2-5.2C437.3,241.9,435,239.6,432.1,239.6z"/>
<path class="st0" d="M426.3,252.5c-1.2,0-2.2-1-2.2-2.2c0-1.2,1-2.2,2.2-2.2c1.2,0,2.2,1,2.2,2.2
	C428.5,251.6,427.5,252.5,426.3,252.5z M426.3,245.1c-2.9,0-5.2,2.3-5.2,5.2c0,2.9,2.3,5.2,5.2,5.2c2.9,0,5.2-2.3,5.2-5.2
	C431.5,247.5,429.2,245.1,426.3,245.1z"/>
<path class="st0" d="M427.9,222.5c-1.2,0-2.2-1-2.2-2.2c0-1.2,1-2.2,2.2-2.2c1.2,0,2.2,1,2.2,2.2
	C430.1,221.6,429.1,222.5,427.9,222.5z M427.9,215.1c-2.9,0-5.2,2.3-5.2,5.2c0,2.9,2.3,5.2,5.2,5.2c2.9,0,5.2-2.3,5.2-5.2
	C433.1,217.5,430.8,215.1,427.9,215.1z"/>
<path class="st0" d="M425.5,229.4c-1.2,0-2.2-1-2.2-2.2c0-1.2,1-2.2,2.2-2.2c1.2,0,2.2,1,2.2,2.2
	C427.7,228.4,426.7,229.4,425.5,229.4z M425.5,222c-2.9,0-5.2,2.3-5.2,5.2c0,2.9,2.3,5.2,5.2,5.2c2.9,0,5.2-2.3,5.2-5.2
	C430.7,224.3,428.4,222,425.5,222z"/>
<path class="st0" d="M418.4,227.3c-1.2,0-2.2-1-2.2-2.2c0-1.2,1-2.2,2.2-2.2c1.2,0,2.2,1,2.2,2.2
	C420.6,226.3,419.6,227.3,418.4,227.3z M418.4,219.9c-2.9,0-5.2,2.3-5.2,5.2c0,2.9,2.3,5.2,5.2,5.2s5.2-2.3,5.2-5.2
	C423.6,222.2,421.3,219.9,418.4,219.9z"/>
<path class="st0" d="M434.5,230.2c-1.2,0-2.2-1-2.2-2.2c0-1.2,1-2.2,2.2-2.2c1.2,0,2.2,1,2.2,2.2
	C436.6,229.2,435.7,230.2,434.5,230.2z M434.5,222.8c-2.9,0-5.2,2.3-5.2,5.2c0,2.9,2.3,5.2,5.2,5.2c2.9,0,5.2-2.3,5.2-5.2
	C439.7,225.1,437.4,222.8,434.5,222.8z"/>
<path class="st1" d="M167.1,440.2h0.6v-87.4h111v86.9H167.1V440.2h0.6H167.1v0.6h112.7v-89.1H166.5v89.1h0.6V440.2z M157.8,142.8
	v-0.6H44.4V53.5h112.8v89.3H157.8v-0.6V142.8h0.6V52.3H43.3v91h115.1v-0.6H157.8z M157.8,241.6v-0.6H44.4v-87.8h112.8v88.4H157.8
	v-0.6V241.6h0.6v-89.5H43.3v90.1h115.1v-0.6H157.8z M157.8,342.3v-0.6H44.4v-89.7h112.8v90.3H157.8v-0.6V342.3h0.6v-91.4H43.3v92
	h115.1v-0.6H157.8z M157.8,440.2v-0.6H44.4v-86.9h112.8v87.4H157.8v-0.6V440.2h0.6v-88.6H43.3v89.1h115.1v-0.6H157.8z M167.1,251.5
	v0.6h111.6v89.7h-111v-90.3H167.1v0.6V251.5h-0.6v91.4h113.3v-92H166.5v0.6H167.1z M167.1,152.7v0.6h111.6v87.8h-111v-88.4H167.1
	v0.6V152.7h-0.6v89.5h113.3v-90.1H166.5v0.6H167.1z M167.1,52.9v0.6h111.6v88.8h-111V52.9H167.1v0.6V52.9h-0.6v90.5h113.3v-91H166.5
	v0.6H167.1z M34.6,43H34v407.6h255V42.5H34V43H34.6v0.6h253.3v405.9H35.1V43H34.6v0.6V43z"/>
<path class="st2" d="M300.8,146.1c2.1-0.1,4.2-0.3,6.3-0.8c0.8-0.2,1.8-0.4,2.5,0.1c0.6,0.4,0.9,1.3,0.7,2c-0.1,0.8-0.6,1.4-1.1,2
	c-1.5,1.7-3.4,3-5.5,3.8c-1.1,0.4-2.3,0.7-3.4,0.6c-1.2-0.1-2.4-0.5-3.4-1c-1.7-0.8-3.2-1.9-4.5-3.4c-0.5-0.6-0.9-1.2-1.1-2
	c-0.1-0.8,0.1-1.6,0.7-2c0.7-0.5,1.6-0.3,2.5-0.1C296.6,145.7,298.7,145.9,300.8,146.1z"/>
<path class="st2" d="M214.4,143.3c1.3,1.3,2,3.4,1,4.8c-0.8,1.2-2.5,1.5-3.9,1.1c-1.4-0.4-2.5-1.4-3.6-2.4
	c-4.7-4.6-8.2-10.4-8.2-17.2c0-4.8,3.6-9.6,8.5-5.4c2.2,1.9,2.8,5.3,1.5,7.9c-0.7,1.2-1.8,2.3-2,3.7c-0.3,1.8,1,3.4,2.4,4.5
	C211.5,141.3,213.2,142,214.4,143.3z"/>
<path class="st3" d="M301.5,194.2C301.5,194.2,301.5,194.2,301.5,194.2c-6.6,0.5-13.3-2.1-18.3-6.5c-5.1-4.5-8.7-10.6-10.8-17.1
	c-0.6-1.9-1-4.3,0.5-5.7c1.2-1.1,3.1-1,4.7-0.8c7.1,0.8,14.2,1.6,21.3,1.3c7.2-0.2,14.3-1.1,21.5-2.1c1.1-0.2,2.2-0.3,3.3-0.5
	c1.6-0.3,3.5-0.5,4.8,0.5c1.5,1.3,1.3,3.7,0.8,5.6c-1.7,6.6-4.9,12.9-9.8,17.6C314.7,191.4,308.2,194.4,301.5,194.2z"/>
<g>
	<defs>
		
			<rect id="SVGID_1_" x="0.9" y="170.4" transform="matrix(0.9729 -0.2312 0.2312 0.9729 -54.2241 22.5736)" width="136.6" height="144.6"/>
	</defs>
	<clipPath id="SVGID_00000013906695002335105080000006645111466767026061_">
		<use xlink:href="#SVGID_1_"  style="overflow:visible;"/>
	</clipPath>
	<g style="clip-path:url(#SVGID_00000013906695002335105080000006645111466767026061_);">
		<path class="st5" d="M57.5,193.4c-22.5-26.7-62.3-7-56.8,34.4l7.2,34.7c0.2,1.5,0.9,3,2.1,4.3c0.7,1.5,1.1,3.3,0.9,5.7
			c-0.1,2.1,0.2,4.3,1,6.4l0.8,3.5c0,0.2,0.2,0.4,0.4,0.5c-0.2,0.2-0.2,0.3-0.2,0.5l6.8,31.9c0.7,3.7,3.3,5.7,7.8,6.2l5.3,0.3
			c2.7,0.1,5.2-0.3,7.4-1.3l40.7-16.9c3.7-1.8,5.4-4.7,4.5-8.8l-12-57.5l46.8-8.4c14-3.6,8.7-45.2-10.8-45.3l-45.3,10.4
			C62.4,193.4,60.3,192.9,57.5,193.4z"/>
		<path class="st6" d="M62.6,193.4L62.6,193.4C62.6,193.3,62.6,193.3,62.6,193.4l11.7,45l11.4,56.3c0.9,7.9-3.9,9.1-20.6,16.1
			L39.2,322c-2.6,0.3-8.3,0.1-9.8-2.8c-1.5-2.9-14.6-63-21-92.7c-2.1-9.7-1.2-24.6,3.7-31.4c4.9-6.9,11.4-11.9,20.1-13.9
			c4.3,0,14.4,1.5,20.1,7.4C57.9,194.6,62.7,194,62.6,193.4z"/>
		<path class="st7" d="M41.1,197.4l18.3-4.3l4.3,1l10.3,43.3l-1.7,1.4l-5.6,2.3l-4.1,0L55,243l-5.6,2.3c-3.5,1.2-12,0.8-18.6-9.8
			c-8.3-13.3-6.5-22.9-3-29.8C30.6,200.1,38.1,197.4,41.1,197.4z"/>
		<path class="st6" d="M109.3,184.3L51.5,198c-0.6,1.8-8.2,8.2-5.3,20.6c4.1,17.3,12.7,19.4,15.1,20.8c20.2-3.4,59.1-10,60.6-10.3
			c1.9-0.5,9-9.3,4.6-27.6C123.1,186.9,113.7,184.6,109.3,184.3z"/>
		<path class="st8" d="M57.5,193.4c-22.5-26.7-62.3-7-56.8,34.4l7.2,34.7c0.2,1.5,0.9,3,2.1,4.3c0.7,1.5,1.1,3.3,0.9,5.7
			c-0.1,2.1,0.2,4.3,1,6.4l0.8,3.5c0,0.2,0.2,0.4,0.4,0.5c-0.2,0.2-0.2,0.3-0.2,0.5l6.8,31.9c0.7,3.7,3.3,5.7,7.8,6.2l5.3,0.3
			c2.7,0.1,5.2-0.3,7.4-1.3l40.7-16.9c3.7-1.8,5.4-4.7,4.5-8.8l-12-57.5l46.8-8.4c14-3.6,8.7-45.2-10.8-45.3l-45.3,10.4
			C62.4,193.4,60.3,192.9,57.5,193.4z"/>
		<path class="st8" d="M64.7,194l-12.9,3.2"/>
		<path class="st8" d="M74,237.3l-13.2,2.5"/>
		<path class="st9" d="M58,238.5l-12.3,2"/>
		<path class="st9" d="M50.3,198.8l-13.1,3.8"/>
		<path class="st9" d="M13.5,283l5.2-0.2l8.1,34.2c0.7,2.5,2.3,4.2,5.2,4.5"/>
		<path class="st8" d="M43.9,196.8c-19.5,9-8.8,47.5,10.9,46.2"/>
		<path class="st8" d="M57.5,193.4c-19.2,8-13.4,42.5,6.2,47.5"/>
		<path class="st5" d="M108.4,186.4c6.4-1.5,13.7,6.4,16.4,17.5c2.7,11.2-0.3,21.5-6.7,23c-6.4,1.5-13.7-6.3-16.4-17.5
			C99,198.2,102,187.9,108.4,186.4z"/>
		<path class="st8" d="M57.7,193.3l-13.6,3.4c-35.8,1.7-14.5,61.4,11,46.3l8.7-2.1c4,0.4,7.3-1,10-3.5"/>
		<path class="st10" d="M59.7,256.6l0.1,0c0,0,0.1,0,0.1-0.1c0,0,0,0,0-0.1c0,0,0-0.1-0.1-0.1c0,0-0.1,0-0.1,0l-0.1,0L59.7,256.6z
			 M59.8,256.7l0.1,0.3l-0.1,0l-0.2-0.7l0.2-0.1c0.1,0,0.2,0,0.2,0c0.1,0,0.1,0.1,0.1,0.1c0,0.1,0,0.1-0.1,0.2c0.1,0,0.1,0,0.2,0.1
			l0,0c0,0.1,0,0.1,0,0.1l0,0l-0.1,0c0,0,0-0.1,0-0.1c0,0,0-0.1,0-0.1c0-0.1-0.1-0.1-0.1,0L59.8,256.7z M59.4,256.7
			c0,0.1,0.1,0.2,0.2,0.2c0.1,0.1,0.2,0.1,0.2,0.1c0.1,0,0.2,0,0.3,0c0.1,0,0.2-0.1,0.2-0.1c0.1-0.1,0.1-0.1,0.1-0.3
			c0-0.1,0-0.2,0-0.3c0-0.1-0.1-0.2-0.2-0.2c-0.1-0.1-0.1-0.1-0.2-0.1c-0.1,0-0.2,0-0.3,0c-0.1,0-0.2,0.1-0.2,0.1
			c-0.1,0.1-0.1,0.2-0.1,0.3C59.4,256.6,59.4,256.7,59.4,256.7z M59.3,256.8c0-0.1,0-0.2,0-0.3c0-0.1,0.1-0.2,0.1-0.3
			c0.1-0.1,0.2-0.1,0.3-0.2c0.1,0,0.2,0,0.3,0c0.1,0,0.2,0.1,0.3,0.2c0.1,0.1,0.1,0.2,0.2,0.3c0,0.1,0,0.2,0,0.3
			c0,0.1-0.1,0.2-0.1,0.3c-0.1,0.1-0.2,0.1-0.3,0.2c-0.1,0-0.2,0.1-0.3,0c-0.1,0-0.2-0.1-0.3-0.2C59.4,257,59.3,256.9,59.3,256.8z"
			/>
		<path class="st10" d="M47.4,265.5L47.4,265.5c-0.2,0.1-0.4,0.1-0.8,0.3l-0.3,0.1l-0.4-1.2c0,0-0.1-0.2-0.1-0.4
			c0-0.1-0.1-0.4-0.2-0.5c-0.1-0.2-0.2-0.6-0.3-0.7c-0.1-0.2-0.3-0.4-0.7-0.6c-0.5-0.2-1.4,0.1-1.7,0.6c-0.4,0.7-0.2,1.5,0.5,2
			c0.2,0.1,0.5,0.2,0.8,0.2c0.2,0,0.3,0,0.4,0c0.2-0.1,0.5-0.1,0.7-0.2c0,0,0.2-0.1,0.2-0.1l0.4,1c-0.3,0.1-0.8,0.3-1,0.3
			c-0.2,0.1-0.5,0.1-0.7,0.1c-0.5,0-1-0.2-1.3-0.5c-1.1-0.9-1.4-2.2-0.9-3.4c0.4-0.9,1.9-1.7,3.1-1.2c0.7,0.3,1.2,0.7,1.4,1.1
			c0.2,0.4,0.4,0.9,0.6,1.2c0.1,0.2,0.2,0.7,0.3,0.9C47.3,265.1,47.3,265.3,47.4,265.5C47.4,265.5,47.4,265.5,47.4,265.5z
			 M57.6,256.7l0,3.8l-2.5-2.9l-1.2,0.4l3.6,4l0,0.1c0,0.4-0.1,0.7-0.2,0.9c-0.1,0.2-0.4,0.4-0.7,0.4l-0.1,0l0.4,1.1l0,0
			c0.1,0,0.1,0,0.2,0c1-0.3,1.5-1.2,1.6-2.5l0.1-5.6L57.6,256.7z M50.7,261.2l2.6-0.9c-0.2-0.3-0.4-0.5-0.7-0.6
			c-0.3-0.1-0.6-0.1-0.9,0c-0.4,0.1-0.6,0.3-0.8,0.6C50.7,260.6,50.7,260.9,50.7,261.2z M53.4,258.8c0.6,0.3,1,0.9,1.3,1.6
			c0,0.1,0.1,0.2,0.1,0.4l0,0l-3.7,1.2c0.2,0.3,0.4,0.5,0.7,0.6c0.3,0.1,0.7,0.1,1.1,0c0.5-0.2,0.9-0.5,1-1l0,0l1.1,0.2l0,0.1
			c-0.2,0.8-0.8,1.5-1.7,1.8c-0.8,0.3-1.5,0.2-2.1-0.1c-0.6-0.3-1.1-0.9-1.3-1.6c-0.2-0.7-0.2-1.4,0.1-2.1c0.3-0.6,0.8-1.1,1.6-1.3
			C52.1,258.4,52.7,258.5,53.4,258.8z M46.6,258.7c-0.3,0.5-0.3,1,0,1.7l1.7,4.9l1.1-0.4l-1.3-3.8l1.1-0.4l-0.4-1.1l-1.1,0.4l0,0
			c-0.1-0.3-0.1-0.6,0-0.8c0.1-0.2,0.4-0.4,0.8-0.5l0.1,0l-0.4-1.1l0,0C47.4,257.8,46.9,258.2,46.6,258.7z M41,265.2
			c0.2,0.1,0.4,0.4,0.6,0.7c0.2,0.5,0.1,0.9-0.2,1.3c-0.3,0.4-0.7,0.7-1.2,0.9c-0.5,0.2-0.9,0.2-1.3,0.1c-0.4-0.1-0.8-0.3-1-0.6l0,0
			l0.8-0.9l0,0.1c0.3,0.4,0.7,0.5,1.2,0.3c0.5-0.2,0.7-0.4,0.6-0.7c0-0.2-0.2-0.2-0.3-0.3c-0.2,0-0.4,0-0.7,0c-0.3,0-0.6,0-0.8,0
			c-0.3,0-0.6-0.1-0.8-0.2c-0.3-0.2-0.4-0.4-0.5-0.7c-0.2-0.5-0.1-0.9,0.1-1.3c0.2-0.4,0.6-0.7,1.1-0.8c0.4-0.1,0.8-0.2,1.2-0.1
			c0.4,0.1,0.7,0.3,1,0.5l0,0l-0.8,0.8l0,0c-0.3-0.3-0.6-0.4-1-0.2c-0.2,0.1-0.3,0.2-0.4,0.3c-0.1,0.1-0.1,0.3-0.1,0.4
			c0.1,0.2,0.2,0.2,0.4,0.3c0.2,0,0.4,0,0.7,0c0.3,0,0.5,0,0.8,0C40.4,265,40.7,265.1,41,265.2z"/>
	</g>
</g>
<path class="st11" d="M267.7,223.5C267.7,223.5,267.7,223.5,267.7,223.5C267.7,223.5,267.7,223.4,267.7,223.5
	C267.7,223.4,267.7,223.5,267.7,223.5z"/>
<path class="st12" d="M336.8,108.6c3.2,0,5.9,3.9,5.9,8.7c0,4.8-2.6,8.7-5.9,8.7s-5.9-3.9-5.9-8.7
	C330.9,112.4,333.6,108.6,336.8,108.6z"/>
<path class="st12" d="M275.6,79.3c0.4,0.4,0.6,1.1,0.4,1.6c-0.2,0.5-0.7,0.9-1.2,1.1c-1.5,0.7-3.1,0.8-4.7,1
	c-3.3,0.4-6.6,1.2-9.7,2.3c-2.8,1-5.5,2.2-8.1,3.7c-0.7,0.4-2.1,1.2-2.8,0.5c-0.9-0.8,0.5-2.2,1-2.8c3.5-4.1,8.8-6.3,13.9-7.7
	c3.2-0.9,6.6-1.5,9.7-0.5C274.7,78.6,275.2,78.8,275.6,79.3z"/>
<path class="st12" d="M214.9,54.6c3.3-8.5,8-16.5,13.8-23.5c17.1-20.5,44.2-32.3,70.8-30.9c26.7-1.4,53.7,10.4,70.8,30.9
	c5.9,7,10.5,15,13.8,23.5l0.2-0.1c17.9,40.3,33.8,92,30,130.7c-0.9,9.7-3.1,19.5-8,27.9c-1.5,2.6-3.4,5.2-5.9,6.9
	c-2.6,1.7-6,2.3-8.7,1c-2.8-1.3-4.5-4.9-3.2-7.6c-2.4,4-5.1,8.1-9.2,10.4c-3.1,1.7-7.3,1.9-10.3-0.1c-0.7-0.5-1.2-1.4-1.9-1.8
	c-0.5-0.3-0.6,0.1-1.1,0.5c-0.4,0.4-0.9,0.7-1.4,1.1c-1.9,1.2-4,2-6.2,2.3c-0.8,0.1-1.5,0.1-2.3,0.1c-3.9-0.3-7.7-2.3-10.1-5.5
	c-4.4,2.9-9.8,4.2-14.9,3.3c5-2.7,9.7-5.9,14-9.6c14.1-12.2,23.6-29,29.8-46.6c0.9-2.5,1.7-5,2.4-7.5c8.4-1,16.8-4.4,22.6-10.6
	c6-6.4,8.9-15.9,6.3-24.3c-1.5-4.6-4.7-8.8-9.2-10.4c-3.6-1.3-8.1-0.6-10.9,1.9c-0.2,0.2-0.5,0.4-0.7,0.7
	c-11.7-9.2-21.8-20.5-29.9-33c-16.1-1.9-30.9-8.4-41.8-18.7c0.4,1.4,0.3,2.8-0.2,4.1c-1.4,3.4-5.1,5.4-8.8,5.6
	c-3.7,0.2-7.2-1.1-10.5-2.8c-14.7-7.5-24.9-21.8-31.5-37c-5.9,32-23.8,61.6-49.4,81.8c-0.2-0.2-0.4-0.5-0.7-0.7
	c-2.8-2.5-7.3-3.2-10.9-1.9c-4.5,1.6-7.8,5.9-9.2,10.4c-2.6,8.4,0.3,17.9,6.3,24.3c5.8,6.2,14.1,9.6,22.6,10.6
	c0.7,2.5,1.5,5,2.4,7.5c6.1,17.6,15.7,34.3,29.8,46.6c4.3,3.7,9,7,14,9.6c0,0,0,0,0,0c-5.1,0.9-10.5-0.4-14.9-3.3
	c-2.3,3.2-6.1,5.2-10.1,5.5c-0.8,0.1-1.5,0-2.3-0.1c-2.2-0.2-4.4-1-6.2-2.3c-0.5-0.3-0.9-0.7-1.4-1.1c-0.5-0.4-0.6-0.8-1.1-0.5
	c-0.7,0.4-1.2,1.4-1.9,1.8c-3,2-7.2,1.8-10.3,0.1c-4.1-2.2-6.7-6.4-9.2-10.4c1.3,2.8-0.4,6.3-3.2,7.6c-2.8,1.3-6.2,0.7-8.7-1
	c-2.6-1.7-4.4-4.2-5.9-6.9c-4.9-8.4-7-18.2-8-27.9c-3.8-38.7,12.1-90.4,30-130.7L214.9,54.6z"/>
<path class="st11" d="M213.5,117c-0.2,0.1-0.4,0.3-0.5,0.4c-0.1-0.4-0.1-0.7-0.2-1.1C213,116.5,213.3,116.7,213.5,117z"/>
<path class="st2" d="M399.5,129.6c0,6.7-3.5,12.6-8.2,17.2c-1,1-2.2,2-3.6,2.4c-1.4,0.4-3.1,0.1-3.9-1.1c-1-1.5-0.3-3.6,1-4.8
	c1.3-1.3,2.9-2,4.4-3.1c1.4-1.1,2.7-2.7,2.4-4.5c-0.2-1.4-1.3-2.5-2-3.7c-1.4-2.5-0.7-6,1.5-7.9C395.8,120,399.4,124.8,399.5,129.6z
	"/>
<path class="st13" d="M186,434.1c-1-7.4-2.7-14.4-2.9-22.1c-0.3-8.6-0.3-17.3,0-26c0-1.2,0.1-2.4,0.2-3.7c0.3-5.5,0.7-11.1,1.2-16.6
	c3.2,3.5,6.4,6.9,9.8,10.1c-2.5,0.8-4.7,2.5-6,4.7c-1.6,2.8-1.9,6.4-0.6,9.4c0.7,1.6,1.8,3.1,2,4.8c0.6,3.9-3.1,7.3-3,11.2
	c0.1,4,4,6.8,5.8,10.4c2.9,5.7,0.5,12.6,2,18.8c1.9,8,9.9,12.9,17.3,16.4c12.9,5.9,27,8.1,40.6,12.3c39.3,12,67.2,39.9,104.4,54.3
	c16.4,6.3,33.3,11.8,50.7,13.9c0.2,0,0.5,0.1,0.7,0.1c1.2,25.2,4,50.2,8.4,75H181.3c10-56.2,11.7-113.8,5.1-170.5
	C186.3,435.8,186.1,434.9,186,434.1z"/>
<path class="st11" d="M386.3,116.3c-0.1,0.4-0.1,0.7-0.2,1.1c-0.2-0.1-0.4-0.3-0.5-0.4C385.8,116.7,386.1,116.5,386.3,116.3z"/>
<path class="st14" d="M391.3,146.8c4.7-4.6,8.2-10.4,8.2-17.2c0-4.8-3.6-9.6-8.5-5.4c-2.2,1.9-2.8,5.3-1.5,7.9
	c0.7,1.2,1.8,2.3,2,3.7c0.3,1.8-1,3.4-2.4,4.5c-1.4,1.1-3.1,1.8-4.4,3.1c-1.3,1.3-2,3.4-1,4.8c0.8,1.2,2.5,1.5,3.9,1.1
	C389.1,148.8,390.2,147.8,391.3,146.8z M386.2,117.4c0.1-0.4,0.1-0.7,0.2-1.1c2.9-2.5,7.3-3.2,10.9-1.9c4.5,1.6,7.8,5.9,9.2,10.4
	c2.6,8.4-0.3,17.9-6.3,24.3c-5.8,6.2-14.1,9.6-22.6,10.6C381.7,146,384.1,131.7,386.2,117.4z"/>
<path class="st2" d="M358.4,130.4c8.1,0,14.7,6.6,14.7,14.7c0,8.1-6.6,14.7-14.7,14.7c-8.1,0-14.7-6.6-14.7-14.7
	C343.7,137,350.3,130.4,358.4,130.4z"/>
<path class="st12" d="M346.9,86.6c0.5,0.6,1.9,2,1,2.8c-0.7,0.7-2.1-0.1-2.8-0.5c-2.6-1.4-5.3-2.7-8.2-3.7c-3.1-1.1-6.4-1.9-9.7-2.3
	c-1.6-0.2-3.3-0.3-4.7-1c-0.5-0.2-1-0.6-1.2-1.1c-0.2-0.6,0-1.2,0.4-1.6c0.4-0.4,1-0.7,1.5-0.9c3.1-1,6.6-0.4,9.7,0.5
	C338.1,80.3,343.3,82.5,346.9,86.6z"/>
<path class="st12" d="M260.6,108.6c3.2,0,5.9,3.9,5.9,8.7c0,4.8-2.6,8.7-5.9,8.7c-3.2,0-5.9-3.9-5.9-8.7
	C254.7,112.4,257.3,108.6,260.6,108.6z"/>
<path class="st11" d="M331.4,223.5c-0.1,0.1-0.3,0.1-0.4,0.2c0-0.1,0-0.2,0-0.3C331.2,223.4,331.3,223.4,331.4,223.5z"/>
<path class="st2" d="M244,130.4c8.1,0,14.7,6.6,14.7,14.7c0,8.1-6.6,14.7-14.7,14.7c-8.1,0-14.7-6.6-14.7-14.7
	C229.2,137,235.8,130.4,244,130.4z"/>
<path class="st14" d="M215.4,148.1c1-1.5,0.3-3.6-1-4.8c-1.3-1.3-2.9-2-4.4-3.1c-1.4-1.1-2.7-2.7-2.4-4.5c0.2-1.4,1.3-2.5,2-3.7
	c1.4-2.5,0.7-6-1.5-7.9c-4.9-4.2-8.5,0.6-8.5,5.4c-0.1,6.7,3.5,12.6,8.2,17.2c1,1,2.2,2,3.6,2.4
	C212.8,149.7,214.6,149.3,215.4,148.1z M213,117.4c2.1,14.3,4.5,28.6,8.6,42.4c-8.5-1-16.8-4.4-22.6-10.6c-6-6.4-8.9-15.9-6.3-24.3
	c1.5-4.6,4.7-8.8,9.2-10.4c3.6-1.3,8.1-0.6,10.9,1.9C212.9,116.7,212.9,117,213,117.4z"/>
<path class="st14" d="M258.7,145.1c0-8.1-6.6-14.7-14.7-14.7c-8.1,0-14.7,6.6-14.7,14.7c0,8.1,6.6,14.7,14.7,14.7
	C252.1,159.9,258.7,153.3,258.7,145.1z M266.4,117.2c0-4.8-2.6-8.7-5.9-8.7c-3.2,0-5.9,3.9-5.9,8.7c0,4.8,2.6,8.7,5.9,8.7
	C263.8,125.9,266.4,122,266.4,117.2z M276.1,80.9c0.2-0.6,0-1.2-0.4-1.6c-0.4-0.4-1-0.7-1.5-0.9c-3.1-1-6.6-0.4-9.7,0.5
	c-5.1,1.4-10.3,3.6-13.9,7.7c-0.5,0.6-1.9,2-1,2.8c0.7,0.7,2.1-0.1,2.8-0.5c2.6-1.4,5.3-2.7,8.1-3.7c3.1-1.1,6.4-1.9,9.7-2.3
	c1.6-0.2,3.3-0.3,4.7-1C275.4,81.8,275.9,81.4,276.1,80.9z M310.3,147.4c0.1-0.8-0.1-1.6-0.7-2c-0.7-0.5-1.6-0.3-2.5-0.1
	c-2.1,0.5-4.2,0.7-6.3,0.8c-2.1-0.1-4.2-0.3-6.3-0.8c-0.8-0.2-1.8-0.4-2.5,0.1c-0.6,0.4-0.9,1.3-0.7,2c0.1,0.8,0.6,1.4,1.1,2
	c1.2,1.4,2.7,2.6,4.5,3.4c1.1,0.5,2.2,0.9,3.4,1c1.2,0.1,2.4-0.2,3.4-0.6c2.1-0.7,4.1-2.1,5.5-3.8
	C309.7,148.8,310.2,148.2,310.3,147.4z M329.3,169.1c0.5-1.9,0.8-4.4-0.8-5.6c-1.3-1.1-3.1-0.8-4.8-0.5c-1.1,0.2-2.2,0.4-3.3,0.5
	c-7.1,1-14.3,1.8-21.5,2.1c-7.2,0.2-14.2-0.5-21.3-1.3c-1.6-0.2-3.5-0.4-4.7,0.8c-1.5,1.4-1.1,3.8-0.5,5.7
	c2.1,6.5,5.6,12.6,10.8,17.1c5,4.4,11.7,7,18.3,6.5c0,0,0,0,0,0c6.6,0.2,13.2-2.8,17.9-7.4C324.4,182,327.5,175.7,329.3,169.1z
	 M342.7,117.2c0-4.8-2.6-8.7-5.9-8.7s-5.9,3.9-5.9,8.7c0,4.8,2.6,8.7,5.9,8.7S342.7,122,342.7,117.2z M373.1,145.1
	c0-8.1-6.6-14.7-14.7-14.7c-8.1,0-14.7,6.6-14.7,14.7c0,8.1,6.6,14.7,14.7,14.7C366.5,159.9,373.1,153.3,373.1,145.1z M267.7,223.5
	C267.7,223.4,267.7,223.4,267.7,223.5c-5-2.7-9.7-5.9-14-9.6c-14.1-12.2-23.6-29-29.8-46.6c-0.9-2.5-1.7-5-2.4-7.5
	c-4.1-13.8-6.5-28.1-8.6-42.4c0.2-0.1,0.4-0.3,0.5-0.4c25.6-20.1,43.5-49.8,49.4-81.8c6.6,15.2,16.8,29.5,31.5,37
	c3.3,1.7,6.8,3,10.5,2.8c3.7-0.2,7.4-2.2,8.8-5.6c0.5-1.3,0.6-2.8,0.2-4.1c10.9,10.2,25.6,16.8,41.8,18.7
	c8.1,12.5,18.2,23.8,29.9,33c0.2,0.1,0.4,0.3,0.5,0.4c-2.1,14.3-4.5,28.6-8.6,42.4c-0.7,2.5-1.5,5-2.4,7.5
	c-6.1,17.6-15.7,34.3-29.8,46.6c-4.3,3.7-9,7-14,9.6c-0.1,0-0.3,0-0.4-0.1c0,0.1,0,0.2,0,0.3c-9.7,5.1-20.6,8-31.4,7.8
	C288.5,231.7,277.5,228.7,267.7,223.5z M333,78.9c-3.2-0.9-6.6-1.5-9.7-0.5c-0.6,0.2-1.1,0.4-1.5,0.9c-0.4,0.4-0.6,1.1-0.4,1.6
	c0.2,0.5,0.7,0.9,1.2,1.1c1.5,0.7,3.1,0.8,4.7,1c3.3,0.4,6.6,1.2,9.7,2.3c2.8,1,5.5,2.2,8.2,3.7c0.7,0.4,2.1,1.2,2.8,0.5
	c0.9-0.8-0.5-2.2-1-2.8C343.3,82.5,338.1,80.3,333,78.9z"/>
<path class="st2" d="M267.7,233.8c9.8,5.3,20.8,8.3,31.9,8c10.9,0.2,21.7-2.7,31.4-7.8c0-0.1,0-0.2,0-0.3c0.1,0,0.3,0.1,0.4,0.1
	c0.1,0,0.2-0.1,0.2-0.1c-0.7-3.2-0.8-6.6-0.7-10c-9.7,5.1-20.6,8-31.4,7.8c-11,0.2-22-2.8-31.9-8c0,0,0,0,0,0
	c-0.2,3.3-0.6,6.5-1.3,9.6C266.8,233.3,267.2,233.5,267.7,233.8C267.7,233.8,267.7,233.8,267.7,233.8z"/>
<path class="st14" d="M331.7,233.6c-0.1,0-0.2,0.1-0.2,0.1c-0.1,0-0.3,0-0.4-0.1c0,0.1,0,0.2,0,0.3c-9.7,5.1-20.6,8-31.4,7.8
	c-11,0.2-22-2.8-31.9-8c0,0,0,0,0,0c-0.4-0.2-0.9-0.5-1.3-0.7c-2.4,10.8-8.5,20.4-25.6,28.1c4.2,10.9,8.7,21.8,15.4,31.4
	c7.4,10.5,17.7,19.5,30.2,22.5c17,4.2,35.5-3.6,47.3-16.5c10.2-11.2,16.1-25.6,19.2-40.5C339.3,251,333.5,242.7,331.7,233.6z"/>
<path class="st15" d="M391.2,557c0.5-0.7,0.9-1.4,1.8-1.4c0.1,0,0.4,0.2,0.3,0.2c-0.4,1,0.2,1.7,0.6,2.4c0.2,0.3,0.5,0.4,0.8,0.2
	c0.1,0,0.1-0.1,0.2-0.1c0.4,0,0.9,0.3,0.8,0.7c0,0.2,0,0.5-0.2,0.7c-0.3,0.6-0.3,1,0.2,1.5c0.3,0.3,0.2,0.8-0.1,1
	c-0.3,0.2-0.7,0.4-1.1,0.5c-0.4,0.1-0.9-0.2-0.9-0.6c0.1-1.6-0.8-2.7-1.7-3.9C391.8,557.9,391.4,557.6,391.2,557L391.2,557z"/>
<path class="st15" d="M370.4,547.9c-0.1,0.1-0.1,0.2-0.2,0.2c-0.1,0-0.4,0-0.4,0c-0.2-0.3-0.4-0.6-0.6-1c-0.1-0.2,0.1-0.5,0.3-0.5
	c0.1,0,0.3,0,0.4,0.1C370.3,547,370.5,547.4,370.4,547.9z"/>
<path class="st15" d="M405.4,564c0,0.1,0,0.2-0.1,0.2c-0.2,0.3-0.4,0.5-0.8,0.5c-0.1,0-0.3-0.1-0.4-0.2c-0.1-0.2,0-0.5,0.2-0.6
	c0.3-0.1,0.6-0.2,0.9,0C405.3,563.9,405.3,563.9,405.4,564z"/>
<path class="st15" d="M365.7,541.8c0,0.1,0,0.2-0.1,0.2c-0.4,0.4-0.9,0.3-1.2-0.1c0-0.1,0-0.2,0-0.2c0.2-0.3,0.9-0.4,1.2,0
	C365.7,541.7,365.7,541.8,365.7,541.8z"/>
<path class="st15" d="M411.5,567c-0.4,0-0.7-0.2-0.7-0.5c0-0.3,0.4-0.5,0.7-0.4c0.2,0.1,0.4,0.3,0.4,0.5
	C411.8,566.7,411.6,566.8,411.5,567z"/>
<path class="st15" d="M58.7,327c0.1-0.1,0.1-0.3,0.2-0.3c0.1,0,0.3,0.1,0.3,0.2c0,0.1-0.1,0.3-0.1,0.4
	C58.9,327.2,58.8,327.1,58.7,327z"/>
<path class="st15" d="M61.7,323.9c-0.1,0.1-0.2,0.2-0.3,0.2c-0.2,0-0.3-0.3-0.2-0.5c0.1-0.1,0.3-0.1,0.4-0.1
	C61.6,323.6,61.6,323.7,61.7,323.9z"/>
<path class="st15" d="M406.8,563.4c0.1-0.1,0.2-0.2,0.3-0.2c0.2,0,0.4,0.3,0.3,0.4c-0.1,0.1-0.3,0.1-0.4,0.1
	C407,563.7,406.9,563.5,406.8,563.4z"/>
<path class="st15" d="M389.1,561.5c0,0.1-0.1,0.1-0.1,0.2c-0.1-0.1-0.2-0.1-0.3-0.2c0,0,0.1-0.1,0.1-0.2
	C389,561.3,389,561.4,389.1,561.5z"/>
<path class="st15" d="M369.7,542.4c-0.1-0.1-0.2-0.2-0.3-0.2c0.1-0.1,0.2-0.2,0.3-0.3c0,0,0.1,0.1,0.2,0.1
	C370,542.2,369.9,542.3,369.7,542.4z"/>
<path class="st15" d="M367.9,541.9c-0.1,0.1-0.2,0.2-0.3,0.2c-0.2,0-0.4-0.3-0.3-0.4c0.1-0.1,0.3-0.1,0.4-0.1
	C367.8,541.6,367.9,541.8,367.9,541.9z"/>
<path class="st15" d="M381.4,556.9c0,0.1,0.1,0.1,0.1,0.2c-0.1,0.2-0.2,0.2-0.2,0C381.2,557,381.3,556.9,381.4,556.9z"/>
<path class="st15" d="M411.5,563.3c0,0.1-0.1,0.1-0.1,0.2c0-0.1-0.1-0.1-0.1-0.2C411.3,563,411.4,563,411.5,563.3z"/>
<path class="st15" d="M409.3,563.2c-0.1-0.1-0.2-0.1-0.4-0.2c0,0,0.1-0.1,0.1-0.1c0.1,0,0.2,0.1,0.3,0.2
	C409.4,563.1,409.3,563.2,409.3,563.2z"/>
<path class="st16" d="M390.6,201.5c0-0.1-0.1-0.1-0.1-0.2c0,0-0.1,0-0.2,0c0,0.1,0.1,0.2,0.1,0.2
	C390.4,201.5,390.5,201.5,390.6,201.5z M389.1,204.4c-0.1,0.1-0.2,0.2-0.2,0.3c0,0,0.1,0.2,0.1,0.2c0.1-0.1,0.3-0.1,0.4-0.2
	C389.4,204.5,389.3,204.4,389.1,204.4z M406.4,205.2c0-0.1,0-0.2,0-0.2c-0.1-0.2-0.3-0.3-0.4-0.5c-0.1,0.1-0.2,0.2-0.3,0.3
	c-0.1,0.1-0.1,0.3-0.1,0.4c0,0.1,0.1,0.3,0.2,0.3c0.1,0.1,0.3,0,0.4,0C406.3,205.5,406.3,205.3,406.4,205.2z M379.2,204.1
	c0.1,0.1,0.1,0.4,0.2,0.5c0.2,0.1,0.4-0.1,0.6-0.2c0.2-0.1,0.3-0.4,0.1-0.6c-0.1-0.2-0.3-0.3-0.5-0.5c-0.2-0.2-0.4,0-0.5,0.3
	C379.2,203.7,379.2,203.9,379.2,204.1z M359.6,204.3c0.2,0,0.3,0.1,0.5,0.1c0.2,0,0.5-0.3,0.4-0.4c-0.2-0.3-0.3-0.5-0.5-0.8
	c-0.2-0.2-0.4-0.3-0.6-0.1c-0.2,0.2-0.5,0.4-0.8,0.4c-0.5,0.1-0.6,0.3-0.5,0.8c0,0.1,0.1,0.3,0.2,0.4c0.1,0.1,0.3,0,0.4-0.1
	C358.9,204.3,359.2,204.1,359.6,204.3z M361.3,207.3c0,0.8,0.1,1.4,0.1,2c0,0.3,0.5,0.5,0.7,0.3c0.4-0.3,0.9-0.7,1.2-1.1
	c0.5-0.6,0.8-1.3,1.3-1.9c0.1-0.2,0.4-0.2,0.6-0.3c0.3,0,0.6,0,0.9,0c0.1,0,0.2-0.1,0.2-0.1c0-0.1-0.1-0.3-0.2-0.4
	c-0.7-0.6-1.1-0.7-1.8-0.1c-0.7,0.5-1,0.5-1.5-0.2c-0.1-0.1-0.1-0.3-0.3-0.4c-0.1-0.1-0.3-0.2-0.4-0.1c-0.4,0.5-0.9,0.5-1.5,0.5
	c0,0-0.1,0.1-0.1,0.2c0,0.1,0,0.1,0.1,0.2c0.2,0.1,0.5,0.1,0.6,0.3c0.3,0.2,0.2,0.6,0,0.9C361.3,207.2,361.3,207.4,361.3,207.3z
	 M391.9,202.3L391.9,202.3L391.9,202.3c0.1,0.3,0.2,0.6,0.3,0.8c0.1,0.2,0.4,0.3,0.5,0c0.2-0.5,0.4-0.8,1-0.7c0.1,0,0.3,0,0.5,0
	c0.1,0,0.2-0.2,0.3-0.3c0,0,0-0.2-0.1-0.2c-0.3-0.2-0.6-0.5-0.9-0.7c-0.2-0.1-0.5-0.1-0.6,0.1C392.8,201.9,392.3,202.1,391.9,202.3z
	 M358.8,210.8c0.3-0.3,0.4-0.7,0.3-1.1c0-0.2,0-0.5-0.3-0.5c-0.1,0-0.2,0-0.2,0.1c0,0.1,0,0.3,0,0.4
	C358.6,210,358.7,210.4,358.8,210.8L358.8,210.8L358.8,210.8z M394.8,207.9L394.8,207.9c-0.1-0.2-0.1-0.4-0.2-0.6
	c-0.1-0.1-0.2-0.2-0.3-0.3c0,0-0.1,0-0.2,0.1c-0.1,0.2-0.1,0.5,0.1,0.6C394.3,207.8,394.6,207.9,394.8,207.9z M383.9,209.4l-0.1-0.1
	L383.9,209.4c0.1,0.1,0.2,0.2,0.3,0.3c0,0,0.2,0,0.2,0C384.3,209.4,384,209.4,383.9,209.4z M371.5,207c0.1,0,0.3,0,0.4-0.1
	c0,0,0.1-0.1,0.1-0.1C371.8,206.6,371.7,206.9,371.5,207l-0.1,0.1L371.5,207z M391.4,206.6l-0.1-0.1L391.4,206.6
	c0.1,0,0.1,0,0.2,0.1C391.6,206.6,391.5,206.6,391.4,206.6z M359.7,207.9L359.7,207.9L359.7,207.9L359.7,207.9z M356.4,207.5
	l-0.1-0.1L356.4,207.5l0.1,0.1L356.4,207.5z M407.6,207.5l0.1,0.1L407.6,207.5l-0.1-0.1L407.6,207.5z M368.2,204.6
	c0-0.2,0-0.5,0-0.7c0-0.4,0.4-0.5,0.7-0.4c0.2,0.1,0.4,0.2,0.6,0.4c0.6,0.6,1.1,0.4,1.7,0c0.3-0.2,0.7-0.4,1-0.6
	c0.4-0.2,0.7-0.3,1.1-0.2c0.5,0.1,0.5,0.5,0.6,0.9c0,0.1,0.1,0.1,0.2,0.1c0,0,0.2,0,0.2,0c0.2-0.7,0.6-1.4,1.1-2.1
	c0.3-0.4,0-0.8,0-1.1c-0.1-0.5,0.6-1,1.1-0.8c0.1,0,0.3,0.2,0.3,0.3c-0.1,0.9,0.6,1.6,0.5,2.5c-0.1,0.3,0.3,0.5,0.6,0.6
	c0.2,0.1,0.6,0,0.5-0.2c-0.1-0.8,0.1-1.2,0.9-1.4c0.4-0.1,0.8-0.1,1.2-0.1c0.1,0,0.2,0,0.2,0c0.1,0.1,0.3,0.2,0.3,0.3
	c0,0.5,0,1,0.4,1.3c0.3,1.1,0.3,2.2-0.4,3.2c-0.2,0.2,0.2,0.6,0.5,0.7c0.4,0,0.9-0.2,0.9-0.5c0-0.1,0-0.2,0-0.2
	c-0.2-0.8,0.3-1.1,0.9-1.4c0.4-0.2,0.7-0.2,1.1,0c0.1,0,0.1,0.1,0.2,0.2c0.9,0.4,1.6,0.3,2-0.6c0.5-1.1,1.3-1.9,2.2-2.8
	c0.2-0.2,0.3-0.5,0.1-0.6c-0.1-0.1-0.3-0.2-0.4-0.2c-0.7-0.1-1.4-0.2-2-0.6c-0.6-0.3-0.9-0.8-1-1.5c-0.1-0.3,0.3-0.9,0.6-0.9
	c0.3-0.1,0.6-0.1,0.9-0.1c0.8-0.1,1.6,0,2.3-0.2c0.7-0.2,1.3-0.1,1.7,0.4c0.6,0.7,1.5,0.8,2.2,1.2c0.7,0.5,1.5,0.5,2.3,0.5
	c0.5,0,0.7,0.3,0.7,0.7c0.1,0.9,0.1,1.9-0.7,2.6c-0.3,0.3,0,0.3,0.2,0.4c0.1,0,0.2,0,0.2,0.1c0.2,0.1,0.3,0.3,0.3,0.6
	c0,0.2-0.2,0.6-0.1,0.7c0.5,0.6,0.6,1.4,1,2.1c0.2,0.3,0.7,0.3,0.8,0.1c0.2-0.3,0.3-0.6,0.4-0.8c0.5-0.6,0.9-1.3,1.9-1.2
	c0.4,0,0.8-0.1,1.1-0.3c0.9-0.5,1.6-0.3,2.3,0.4c0,0,0.2,0,0.2,0c0.1,0,0.1-0.1,0.1-0.2c-0.1-0.6-0.2-1.2-0.2-1.9
	c0-0.7-0.3-1.2-1-1.4c-0.1,0-0.3-0.2-0.4-0.3c-0.1-0.1-0.2-0.3-0.1-0.4c0.1-0.2,0.3-0.5,0.4-0.5c0.5-0.1,1.1-0.1,1.6-0.1
	c0.1,0,0.4,0.1,0.4,0.2c0.1,0.7,0.6,1.1,1.1,1.5c0.1,0.1,0.1,0.3,0.2,0.4c0.1,0.2,0.2,0.4,0.4,0.5c0.7,0.3,1.5,0.6,2.2,0.9
	c0.4,0.2,0.7,0.3,1,0.6c0.4,0.2,0.5,0.6,0.4,1c-0.1,0.4-0.2,0.8-0.3,1.1c-1.3,3.3-2.8,6.5-4.8,9.5c-0.9,1.3-1.9,2.5-3.1,3.6
	c-1.6,1.4-3.5,2.4-5.7,2.7c-2.2,0.4-4.2-0.2-6-1.6c-1.3-1-1.9-2.5-2.1-4.1c0-0.1-0.2-0.2-0.3-0.3c0,0-0.2,0-0.2,0.1
	c-0.2,0.2-0.3,0.3-0.5,0.5c-0.3,0.5-0.6,0.9-0.9,1.4c-1.1,1.6-2.5,3.1-3.9,4.4c-1.9,1.7-4.1,2.7-6.6,3c-2,0.3-3.9-0.1-5.7-1.1
	c-0.7-0.4-1.3-1.1-2-1.7c-0.3-0.2-0.6-0.3-0.9-0.1c-0.3,0.2-0.6,0.5-0.9,0.7c-2.5,1.9-5.3,2.8-8.4,2.8c-3.1,0-5.9-1.1-8.3-2.9
	c-0.9-0.7-1.4-1.7-2.5-2.1c-1,0.5-2,0.9-3,1.4c-3.1,1.4-6.3,1.9-9.7,1.7c-0.3,0-0.6-0.1-0.9-0.2c-0.1,0-0.3-0.2-0.3-0.3
	c0-0.1,0-0.4,0.1-0.4c0.5-0.4,1-0.7,1.6-1c7.5-4.4,14-9.9,19.7-16.5c1.4-1.7,2.8-3.4,4.2-5.1c0.3-0.3,0.9-0.4,1.3-0.1
	c0.2,0.2,0.5,0.4,0.7,0.6c0.3,0.4,0.7,0.6,1.2,0.5c0.3,0,0.7,0.1,0.9,0.3c1,1,2.3,1.3,3.7,1.3C367.1,203.6,367.7,204,368.2,204.6
	c0,0.3,0,0.6,0,1c-0.5,0.5-0.9,1-1.4,1.5c0,0,0,0.1,0,0.2c0.1,0,0.1,0.1,0.2,0.1c0.3,0,0.6-0.1,0.9-0.1c0.3-0.1,0.4-0.4,0.3-0.7
	c0-0.3-0.1-0.6-0.1-0.9C368.6,205,368.6,205,368.2,204.6z"/>
<path class="st16" d="M242.5,212.1l0.2,0.1l0-0.2L242.5,212.1z M224.1,208.4c0-0.1,0-0.2-0.1-0.2c-0.1-0.1-0.2-0.1-0.4-0.2
	c-0.1,0.1-0.1,0.3-0.1,0.4c0,0.3,0.2,0.5,0.4,0.4C224,208.7,224,208.5,224.1,208.4z M205.2,208c-0.1-0.2-0.2-0.3-0.3-0.5
	c0,0-0.2-0.1-0.2-0.1c-0.2,0.2-0.2,0.4-0.1,0.6c0.1,0.1,0.2,0.1,0.4,0.2C205,208.2,205.1,208.1,205.2,208z M210.5,209.9
	c-0.1-0.1-0.3-0.2-0.4-0.2c-0.2,0-0.5,0.3-0.4,0.5c0,0.1,0.1,0.1,0.2,0.2c0.2,0.1,0.5,0.1,0.6-0.2
	C210.5,210,210.5,209.9,210.5,209.9z M210.8,201.5c-0.1,0.1-0.2,0.1-0.2,0.1c0.2,0.3,0.4,0.6,0.6,0.9c0,0.1,0.1,0.1,0.2,0.1
	c0-0.1,0.1-0.3,0.1-0.4C211.5,201.9,211.2,201.6,210.8,201.5z M230.4,203c0-0.4-0.1-0.5-0.6-0.9c-0.1,0-0.2-0.1-0.2-0.1
	c-0.2,0.1-0.2,0.2-0.1,0.4c0.2,0.3,0.5,0.5,0.8,0.8C230.4,203.1,230.4,203.1,230.4,203z M228.7,206.7c0-0.1,0-0.1,0-0.2
	c0-0.1-0.1-0.1-0.2-0.1c-0.6,0.1-1.2,0.3-1.9,0.4c0,0-0.1,0.1-0.1,0.2c0,0.1,0.1,0.2,0.1,0.2c0.6-0.1,1.2-0.2,1.9-0.3
	C228.6,206.8,228.6,206.7,228.7,206.7z M208,206.6c0.4-0.2,1.1,0.1,1.7-0.4c0.1,0,0.1-0.1,0.1-0.2c0-0.1-0.1-0.2-0.1-0.2
	c-0.7,0.2-1.4,0.2-2.1,0.2c-0.1,0-0.1,0.1-0.2,0.2C207.2,206.4,207.5,206.6,208,206.6z M235.7,206c0.7,0.1,1.2-0.2,1.6-0.8
	c0,0,0-0.2-0.1-0.2c-0.3-0.2-0.6,0-0.9,0.2c-0.6,0.3-1.1,0.7-1.8,0.4c-0.2-0.1-0.3,0-0.2,0.2c0,0.1,0.1,0.1,0.2,0.1
	C234.9,205.9,235.3,206,235.7,206z M214.1,203.2c-0.6,0.3-0.8,1.3-1.7,1.1c0,0-0.1,0.1-0.1,0.1c0,0.1,0.1,0.2,0.1,0.2
	c0.5,0.2,0.6,0.6,0.6,1.2c0,0.7,0.8,1.2,1.1,1.8c0,0.1,0.3,0.1,0.4,0c0.5-0.3,0.6-0.8,0.2-1.2c-0.2-0.2-0.5-0.4-0.7-0.6
	c0,0-0.1-0.2-0.1-0.2c0.1-0.1,0.2-0.3,0.3-0.2c0.9,0.3,1.8,0.6,2.7,0.9c0.2,0.1,0.3,0.4,0.4,0.6c0.1,0.1,0.1,0.3,0.1,0.4
	c0,0,0.1,0.1,0.2,0.1c0.1,0,0.2-0.1,0.2-0.1c0.2-0.8-0.2-1.6,0.4-2.3c0,0-0.1-0.1-0.1-0.2c-0.1,0-0.2,0-0.2,0
	c-0.3,0.1-0.6,0.3-0.9,0.4c-0.5,0.2-0.9,0.2-1.4,0c-0.2-0.1-0.4-0.2-0.7-0.3C214.3,204.5,214.1,203.9,214.1,203.2
	c0.1-0.1,0.2-0.2,0.3-0.3c0,0,0-0.1-0.1-0.2C214.1,202.8,214.2,203,214.1,203.2z M192.3,206.6L192.3,206.6c0,0.2,0.1,0.4,0.1,0.7
	c0.1,0.5,0.2,0.5,0.6,0.3c0.3-0.2,0.5-0.3,0.9-0.2c0.2,0.1,0.4,0.2,0.7,0.2c0.1,0,0.3-0.1,0.4-0.1c0,0,0-0.2,0-0.2
	c-0.1-0.3-0.3-0.6-0.4-0.8c-0.3-0.4-0.5-0.5-0.9-0.2C193.2,206.6,192.8,206.6,192.3,206.6z M219.4,209c0.1,0.1,0.1,0.2,0.2,0.3
	c0,0,0.2,0,0.2,0C219.8,209,219.6,209,219.4,209c0-0.4,0-0.8-0.2-1.1c-0.1-0.1-0.3-0.1-0.4-0.1c-0.1,0.1-0.2,0.3-0.2,0.3
	C218.9,208.5,219.2,208.7,219.4,209z M194.8,209c0.2,0.1,0.4,0.2,0.7,0.2c0.1,0,0.3,0,0.4-0.1c-0.1-0.1-0.2-0.3-0.3-0.3
	C195.3,208.7,195,208.6,194.8,209L194.8,209L194.8,209z M233,203.7c-0.1,0.2-0.3,0.3-0.4,0.5c0,0.1,0.1,0.3,0.1,0.4
	c0.1-0.1,0.2-0.2,0.2-0.2C233,204.1,233,203.9,233,203.7c0.1-0.1,0.2-0.2,0.3-0.3c0,0,0-0.1-0.1-0.2
	C233.2,203.4,233.1,203.5,233,203.7z M213.6,211.4L213.6,211.4c-0.1-0.1-0.3-0.1-0.4-0.2c0,0,0,0.1-0.1,0.1
	C213.3,211.3,213.5,211.4,213.6,211.4z M234.5,208c0,0.2,0.1,0.3,0.1,0.1C234.6,208.1,234.5,208.1,234.5,208
	c-0.1-0.1-0.1-0.3-0.2-0.4c0,0-0.1,0.1-0.1,0.1C234.3,207.8,234.4,207.9,234.5,208z M206.9,212.4L206.9,212.4l0.1,0.1L206.9,212.4z
	 M237.4,208.1c-0.2,0.1-0.3,0.1-0.1,0.2C237.3,208.2,237.3,208.1,237.4,208.1c0-0.1,0.2-0.1,0.1-0.1c0-0.1-0.1-0.2-0.2-0.4l-0.1-0.1
	l0.1,0.1C237.4,207.7,237.4,207.9,237.4,208.1z M234.5,202.3c0,0.2,0,0.3,0.1,0.5c0.2,0.6,0.6,0.8,1.1,0.7c0.4-0.1,0.8-0.2,1.2-0.3
	c0.5-0.1,0.9,0.1,1.3,0.4c0.4,0.5,0.5,1,0.4,1.6c0,0.1,0,0.2,0,0.2c0.1,0.2,0.2,0.2,0.4,0c0.5-0.5,1.4-0.5,1.8-1.1
	c0.2-0.2,0.7-0.1,0.9,0.1c0.4,0.4,0.7,0.9,1,1.3c0.1,0.2,0,0.6-0.2,0.6c-0.2,0-0.3,0-0.5-0.1c-0.1-0.1-0.2-0.2-0.3-0.4
	c-0.2-0.5-0.5-0.5-1-0.4c-0.3,0.1-0.6,0.2-0.9,0.4c-0.1,0-0.1,0.1-0.1,0.2c-0.1,0.2,0,0.3,0.2,0.4c0.2,0.1,0.5,0.1,0.7,0.2
	c0.4,0.2,0.9,0.3,1.3,0.6c0.8,0.5,1.6,0.2,2.2-0.3c0.2-0.1,0.3-0.4,0.3-0.6c0-0.3,0-0.6,0-1c0-0.3,0.3-0.6,0.6-0.6
	c0.2,0,0.5,0.1,0.6,0.3c0.2,0.2,0.3,0.4,0.4,0.6c0.1,0.2,0.1,0.5,0.3,0.6c0.8,0.6,1.5,1.3,2,2c0.9,0.4,1.4,1.1,2,1.7
	c4.9,4.9,10.4,9.2,16.4,12.7c0.4,0.2,0.8,0.5,1.2,0.8c0.1,0.1,0.2,0.3,0.2,0.4c-0.1,0.2-0.3,0.4-0.5,0.5c-0.2,0.1-0.5,0.1-0.7,0.1
	c-3.5,0.3-6.9-0.4-10.1-1.8c-0.4-0.2-0.9-0.4-1.3-0.6c-1.8-0.9-1.5-1-3,0.5c-1.8,1.8-4,3-6.5,3.6c-3.7,0.9-7.2,0.3-10.5-1.7
	c-0.8-0.5-1.4-1-2.2-1.6c-0.3-0.2-0.6-0.2-0.9,0c-0.2,0.2-0.4,0.3-0.5,0.5c-2.1,2.3-4.8,2.7-7.8,2.3c-2.6-0.4-4.9-1.6-6.8-3.4
	c-1.4-1.3-2.6-2.8-3.8-4.4c-0.4-0.5-0.8-1-1.1-1.5c0,0-0.1-0.1-0.2-0.1c-0.1,0-0.1,0.1-0.2,0.2c-0.2,0.5-0.3,1.1-0.5,1.6
	c-0.9,2.1-2.4,3.6-4.7,4.1c-2.6,0.6-5,0.1-7.2-1.3c-1.8-1.1-3.3-2.5-4.6-4.3c-2.3-3.2-4-6.8-5.4-10.5c-0.1-0.4-0.2-0.8,0-1.2
	c0.2-0.3,0.1-0.6-0.1-0.8c-1.2-0.8-1.4-2.1-1.5-3.4c0-0.2,0.3-0.5,0.5-0.4c0.8,0.2,1.5,0.6,2.3,0.7c1.2,0.1,1.9,0.6,2.3,1.8
	c0.1,0.3,0.4,0.5,0.6,0.7c0.3,0.3,0.7,0.7,1,1c0.2,0.2,0.5,0.4,0.9,0.4c0.3,0,0.6,0,0.9,0.2c1.3,0.7,1.3,0.7,2,2.2
	c0.1,0.3,0.3,0.6,0.5,0.8c0.1,0.1,0.3,0.2,0.4,0.2c0.4,0,0.8-0.7,0.8-1.1c0-0.3-0.2-0.4-0.5-0.5c-0.3-0.1-0.7-0.2-0.8-0.5
	c-0.1-0.5-0.2-1.1,0.2-1.6c0.3-0.4,0.9-0.5,1.3-0.1c0.3,0.3,0.4,0.7,0.7,1c0.4,0.6,0.9,0.6,1.4,0.1c0.4-0.4,0.8-0.6,1.3-0.4
	c0.9,0.4,1.7,0.2,2.5-0.2c0.9-0.5,1.9-0.9,2.9-1c0.3,0,0.4-0.4,0.2-0.7c-0.1-0.2-0.3-0.4-0.5-0.5c-0.2-0.3-0.4-0.5-0.5-0.8
	c-0.2-0.4,0.1-1-0.4-1.3c-0.4-0.3-0.9-0.3-1.2-0.7c-0.5-0.5-1.1-0.5-1.8-0.3c-0.3,0.1-0.6-0.3-0.5-0.6c0.2-0.9,0.5-1.2,1.3-1.2
	c0.4,0,0.8,0,1.2,0.2c0.4,0.2,0.8,0.1,1.1-0.1c0.3-0.1,0.6-0.1,0.9,0.2c0.4,0.4,0.7,0.9,1.1,1.3c0.8,0.7,1.5,1.4,2.7,1.5
	c0.9,0.1,1.7,0.5,2.5,0.8l0.1,0.1c0.1,0.4,0.1,0.8,0.6,0.9c0.5,0.1,0.9,0.2,1.4,0.2c0.4,0,0.8-0.3,1.1,0c0.5,0.4,0.9,0.8,0.9,1.6
	c0,0.3,0.2,0.4,0.5,0.3c0.4-0.1,0.8-0.2,1.1-0.4c0.1-0.1,0.2-0.2,0.4-0.3c0.6-0.3,1.1,0,1.2,0.9c0,0.1,0,0.2,0,0.2
	c-0.8-0.2-1.4,0.5-2.2,0.6c-0.1,0-0.1,0.1-0.1,0.1c0.1,0.1,0.1,0.3,0.3,0.3c0.2,0.1,0.5,0.2,0.6,0.1c0.5-0.4,0.9-0.8,1.4-1.2
	c0.3,0,0.7,0,0.9,0.3c0.5,0.7,1.1,0.6,1.7,0.2c1-0.5,2-1,3.1-1.2c0.2,0,0.3-0.4,0.2-0.6c-0.1-0.2-0.3-0.4-0.4-0.6
	c-0.5-0.4-0.8-1-0.8-1.7c0-0.2-0.2-0.5-0.3-0.6c-0.5-0.3-1-0.5-1.5-0.8c-0.5-0.3-1.1-0.1-1.6-0.1c-0.1,0-0.3-0.2-0.3-0.3
	c0-0.9,0.4-1.4,1.2-1.5c0.2,0,0.5,0,0.7,0c0.4,0,0.6,0.6,1.1,0.4c0.3-0.1,0.6-0.3,0.9-0.4c0.2,0,0.5,0.1,0.6,0.2
	c0.4,0.5,0.8,1,1.3,1.4c0.7,0.6,1.5,1.1,2.5,1.3c0.9,0.1,1.7,0.5,2.5,0.8L234.5,202.3z"/>
<path class="st16" d="M403.1,201.6c-0.1,0.1-0.3,0.3-0.4,0.3c-0.5-0.2-1-0.5-1.4-0.8c-0.2-0.1-0.3-0.6-0.2-0.9
	c0.2-0.3,0.7-0.5,1-0.3C402.7,200.2,403.1,200.8,403.1,201.6z"/>
<path class="st16" d="M398.3,201c0-0.4,0-0.6,0.1-0.9c0-0.1,0.3-0.2,0.4-0.2c0.3,0.2,0.6,0.5,0.9,0.8c0.4,0.5,0.1,1.3-0.6,1.5
	c-0.2,0.1-0.6-0.1-0.6-0.3C398.4,201.6,398.3,201.2,398.3,201z"/>
<path class="st16" d="M198.1,202.5c0,0.7-0.3,1.1-0.8,1.4c-0.1,0-0.2,0-0.2,0c-0.1,0-0.1-0.1-0.2-0.1c-0.3-0.5,0-1.3,0.6-1.5
	C197.7,202.2,197.9,202.4,198.1,202.5z"/>
<path class="st16" d="M411.7,201.4c-0.1,0.1-0.1,0.3-0.2,0.4c-0.5,0.2-0.9,0.1-1.3-0.2c-0.1-0.1-0.2-0.3-0.2-0.4
	c0-0.2,0.3-0.4,0.5-0.4c0.4,0.1,0.7,0.3,1.1,0.4C411.6,201.2,411.7,201.3,411.7,201.4z"/>
<path class="st16" d="M207,203c-0.1,0.2-0.3,0.4-0.4,0.5c-0.2,0.1-0.6-0.3-0.6-0.6c0-0.3,0.5-0.7,0.6-0.5
	C206.8,202.5,206.9,202.8,207,203z"/>
<path class="st16" d="M225.8,203.6c-0.1,0.1-0.1,0.4-0.3,0.5c-0.2,0.2-0.6-0.3-0.6-0.6c0-0.3,0.2-0.4,0.5-0.5
	C225.6,203,225.8,203.2,225.8,203.6z"/>
<path class="st16" d="M385.6,193.2c0.2,0,0.4-0.1,0.6-0.1c0,0,0.1,0.3,0.1,0.4c-0.1,0.1-0.3,0.2-0.4,0.1
	C385.8,193.6,385.7,193.4,385.6,193.2z"/>
<path class="st16" d="M189.2,196.2c-0.1,0.1-0.2,0.2-0.3,0.2c-0.3,0-0.4-0.2-0.3-0.5c0.1-0.2,0.2-0.2,0.4-0.1
	C189,195.9,189.1,196.1,189.2,196.2z"/>
<path class="st16" d="M386.2,202.8c-0.1,0.1-0.2,0.3-0.3,0.3c-0.2,0-0.3-0.1-0.2-0.2c0.1-0.1,0.2-0.2,0.4-0.2
	C386.1,202.6,386.2,202.7,386.2,202.8z"/>
<path class="st16" d="M398.6,203.3c0.1,0.1,0.2,0.2,0.2,0.3c-0.1,0.1-0.2,0.1-0.3,0.2c0,0-0.1-0.1-0.1-0.2
	C398.5,203.5,398.6,203.4,398.6,203.3z"/>
<path class="st16" d="M202.4,204.8c0,0.1,0,0.2-0.1,0.2c-0.2,0.1-0.2,0-0.2-0.2c0-0.1,0.1-0.1,0.2-0.1
	C202.3,204.6,202.4,204.7,202.4,204.8z"/>
<path class="st16" d="M403.1,198.4l0.1-0.1l0.1,0.2L403.1,198.4z"/>
<path class="st16" d="M367.1,198.7c-0.1,0-0.1,0-0.2,0c0,0,0-0.1,0-0.1c0.1,0,0.1,0,0.2-0.1C367.1,198.6,367.1,198.6,367.1,198.7z"
	/>
<path class="st16" d="M385.6,199.5l0.2-0.1l0,0.2L385.6,199.5z"/>
<path class="st16" d="M215.5,201.7c0.1-0.1,0.2-0.1,0.2-0.2C215.7,201.6,215.7,201.7,215.5,201.7L215.5,201.7z"/>
<path class="st16" d="M234.4,202.2c0.1-0.1,0.2-0.1,0.3-0.2c-0.1,0.1-0.1,0.2-0.2,0.3L234.4,202.2z"/>
<path class="st16" d="M363.5,206.7c-0.1,0-0.3,0-0.4,0c0-0.1,0-0.3,0-0.4c0,0,0.2-0.1,0.2,0C363.4,206.5,363.4,206.6,363.5,206.7z"
	/>
<path class="st15" d="M427.6,356.4l-0.1-0.1l0.2-0.1L427.6,356.4z"/>
<path class="st15" d="M292.7,502.5c0,0.1,0,0.1,0,0.2c0,0-0.1,0.1-0.2,0c-0.2-0.1-0.2-0.2,0-0.3
	C292.5,502.4,292.6,502.5,292.7,502.5z"/>
<path class="st15" d="M311.9,507.9c-0.1,0.1-0.2,0.1-0.3,0.2c0,0-0.1-0.1-0.1-0.2c0-0.2,0.1-0.3,0.3-0.2
	C311.9,507.7,311.9,507.8,311.9,507.9z"/>
<path class="st15" d="M322.3,516.6c-0.1,0-0.1,0.1-0.2,0.1c-0.2,0-0.3-0.1-0.1-0.2c0,0,0.1-0.1,0.2,0
	C322.3,516.5,322.3,516.6,322.3,516.6z"/>
<path class="st2" d="M435.2,406.5c-0.1,0-0.2,0.1-0.2,0c-0.2-0.1-0.1-0.3,0-0.3c0,0,0.2,0,0.2,0.1
	C435.2,406.3,435.2,406.4,435.2,406.5z"/>
<path class="st2" d="M443.2,410.8h0.1l-0.1,0.2L443.2,410.8z"/>
<path class="st15" d="M436.3,390.2l0,0.1l-0.2-0.1L436.3,390.2z"/>
<path class="st15" d="M350.8,534.6l-0.1-0.1l0.1,0L350.8,534.6z"/>
<path class="st15" d="M415.5,326.2l0.1,0.1L415.5,326.2L415.5,326.2z"/>
<path class="st15" d="M415.5,326.1L415.5,326.1L415.5,326.1L415.5,326.1z"/>
<path class="st15" d="M409.5,325.9l-0.2,0.1l0-0.2L409.5,325.9z"/>
<path class="st15" d="M440.7,424.3c0,0.1,0.1,0.2,0.1,0.4c-0.1,0-0.3-0.1-0.4-0.1C440.6,424.4,440.7,424.4,440.7,424.3z"/>
<path class="st15" d="M218.7,460.5l-0.1-0.2l0.1,0L218.7,460.5z"/>
<path class="st2" d="M435.8,416.2c0.2-0.2,0.3-0.3,0.5-0.5c0.3,0.1,0.6,0.1,0.9,0.2c0.3,0.1,0.3,0.6,0,0.8
	C436.6,417,436.4,416.9,435.8,416.2z"/>
<path class="st15" d="M437,424.5c-0.1,0.1-0.3,0.1-0.4,0.2c0-0.1-0.2-0.3-0.1-0.4c0-0.1,0.2-0.1,0.4-0.2
	C436.9,424.2,436.9,424.3,437,424.5z"/>
<path class="st15" d="M409.5,339.1c0,0-0.1-0.1-0.1-0.1c0,0,0,0,0,0c0,0,0,0,0,0C409.4,339.1,409.4,339.1,409.5,339.1z"/>
<path class="st15" d="M411.9,345.5c0.1-0.1,0.3-0.1,0.4-0.2c0,0,0,0,0,0c0,0,0,0,0,0C412.1,345.4,412,345.5,411.9,345.5z"/>
<path class="st15" d="M428.2,367.6C428.2,367.6,428.2,367.6,428.2,367.6C428.2,367.6,428.2,367.6,428.2,367.6L428.2,367.6z"/>
<path class="st15" d="M414.1,387.9c0,0.6,0.1,1.3,0.1,1.9c0,0.1,0.2,0.2,0.2,0.2c0-0.1,0.1-0.1,0.1-0.2c0-1.1,0.1-2.3,0.1-3.4
	c0-0.2,0-0.3,0-0.5l-0.7,0.3C414.1,386.8,414.1,387.3,414.1,387.9z"/>
<path class="st15" d="M418.5,359.4C418.5,359.4,418.5,359.4,418.5,359.4C418.5,359.4,418.5,359.4,418.5,359.4
	C418.5,359.4,418.5,359.4,418.5,359.4C418.5,359.4,418.5,359.4,418.5,359.4z"/>
<path class="st15" d="M438.3,422.3C438.3,422.3,438.3,422.3,438.3,422.3l0.1-0.1L438.3,422.3C438.3,422.3,438.3,422.3,438.3,422.3z"
	/>
<path class="st15" d="M411.2,339.6l0.1-0.1c0,0,0,0,0,0c0,0,0,0,0,0L411.2,339.6z"/>
<path class="st2" d="M433.1,418.5C433,418.5,433,418.4,433.1,418.5C433,418.4,433,418.4,433.1,418.5
	C433,418.4,433,418.4,433.1,418.5C433,418.5,433,418.5,433.1,418.5z"/>
<path class="st15" d="M432.9,432.8l0.1,0.1c0,0,0,0,0,0c0,0,0,0,0,0L432.9,432.8z"/>
<path class="st15" d="M429.6,392.2L429.6,392.2c0.1,0.1,0.1,0.1,0.1,0.1C429.7,392.3,429.7,392.3,429.6,392.2L429.6,392.2z"/>
<path class="st15" d="M424.8,383.1C424.8,383.1,424.8,383.1,424.8,383.1c-0.1,0-0.1,0.1-0.1,0.1
	C424.8,383.1,424.8,383.1,424.8,383.1C424.8,383.1,424.8,383.1,424.8,383.1z"/>
<path class="st15" d="M429.5,441.6c0,0,0.1,0.1,0.1,0.1c0,0,0,0,0,0c0,0,0,0,0,0C429.6,441.6,429.5,441.6,429.5,441.6z"/>
<path class="st15" d="M430.6,390.4C430.6,390.4,430.6,390.4,430.6,390.4c0-0.1,0-0.1,0-0.1c0,0,0,0,0,0
	C430.6,390.4,430.6,390.4,430.6,390.4z"/>
<path class="st2" d="M434,398.6C434,398.6,434,398.6,434,398.6C434,398.6,434,398.6,434,398.6L434,398.6z"/>
<path class="st2" d="M437.9,412.2C437.9,412.2,437.9,412.1,437.9,412.2C437.9,412.1,437.9,412.1,437.9,412.2
	C437.9,412.1,437.9,412.1,437.9,412.2C437.9,412.1,437.9,412.1,437.9,412.2z"/>
<path class="st15" d="M436,440.7C435.9,440.7,435.9,440.7,436,440.7C435.9,440.7,435.9,440.7,436,440.7
	C435.9,440.7,435.9,440.7,436,440.7C435.9,440.7,435.9,440.7,436,440.7z"/>
<path class="st2" d="M55.4,329.1c0.7,0.1,1.2-0.5,1.8-0.6c0.8-0.2,1.5,0.6,1.4,1.4c0,0.3-0.3,0.7-0.6,0.7c-0.4,0-0.8,0-1.2,0
	c-0.5,0-0.9-0.3-1.2-0.7C55.5,329.7,55.5,329.3,55.4,329.1L55.4,329.1z"/>
<path class="st2" d="M11.4,344.2c0.1-0.1,0.2-0.2,0.3-0.3c0.1,0.1,0.2,0.2,0.2,0.3c0,0-0.1,0.1-0.1,0.1
	C11.7,344.4,11.5,344.3,11.4,344.2z"/>
<path class="st2" d="M56.9,332.7c-0.1,0.1-0.1,0.3-0.2,0.4c-0.1,0.1-0.3,0.1-0.3-0.1c0-0.1,0.1-0.3,0.1-0.4
	C56.7,332.6,56.8,332.7,56.9,332.7z"/>
<path class="st2" d="M28.5,343.3c-0.1,0-0.1,0.1-0.2,0.1c-0.2,0-0.3-0.1-0.1-0.3c0,0,0.2-0.1,0.2,0
	C28.5,343.2,28.5,343.3,28.5,343.3z"/>
<path class="st2" d="M19.2,342.2c0.1,0,0.2,0,0.2,0.1c0,0.2-0.1,0.2-0.2,0.2c0,0-0.1-0.1-0.1-0.2C19,342.3,19.1,342.2,19.2,342.2z"
	/>
<path class="st2" d="M55.3,332c0.1,0.1,0.2,0.2,0.3,0.3c0,0,0.1,0.2,0,0.2c-0.1,0.2-0.2,0.1-0.3-0.1C55.4,332.2,55.4,332.1,55.3,332
	L55.3,332z"/>
<path class="st2" d="M55.4,331.9c-0.1-0.1-0.2-0.2-0.3-0.3c0,0,0-0.2,0.1-0.2C55.4,331.5,55.3,331.8,55.4,331.9L55.4,331.9z"/>
<path class="st2" d="M9.6,336.6c-0.1,0-0.1,0.1-0.2,0.1c-0.2-0.1-0.2-0.2,0-0.2C9.4,336.4,9.5,336.5,9.6,336.6z"/>
<path class="st17" d="M307.2,103.3c-0.8,9.1-0.1,18.3,2.1,27.1"/>
<path class="st14" d="M26.5,264.1c0.3,1.6,0,3.4-1,4.7c-1.2,1.5-3.1,2.2-5,2.1c-0.1,0-0.2,0-0.3,0c-1.8-1.4-3.8-2.4-5.7-2.3h0
	c-1.8-1.1-3.4-2.4-4.6-4.2c-2.9-4.3-1.4-10.3,3.8-11.4c3.9-0.8,8.6,3.6,10.8,6.6C25.4,260.9,26.2,262.4,26.5,264.1z"/>
<path class="st14" d="M14.5,281.7c-0.1,0-0.1,0-0.2,0l0,0c-1.7-0.9-3.3-2.1-4.4-3.6c-2.9-3.8-1.4-9.2,3.8-10.2
	c0.3-0.1,0.5-0.1,0.8-0.1h0c1.9-0.1,3.9,0.8,5.7,2.1c1.7,1.2,3.3,2.7,4.2,3.9c0.9,1.2,1.7,2.5,2,4c0.3,1.5,0,3.1-1,4.2
	c-1,1.2-2.5,1.7-4.1,1.8C19.3,282.4,16.8,281.3,14.5,281.7z"/>
<path class="st14" d="M10.2,292.6c0,0-0.1-0.1-0.1-0.1c-3.2-4.2-1.5-10.2,4-11.4c0.1,0,0.1,0,0.2,0c2.5-0.5,5.3,0.8,7.6,2.5
	c1.8,1.3,3.3,2.9,4.3,4.2c1,1.3,1.9,2.9,2.2,4.5s0,3.4-1.1,4.7c-1.3,1.5-3.5,2.2-5.5,2c-1.5-0.1-2.9-0.5-4.2-1.1
	c-0.5-0.2-1.1-0.5-1.6-0.8C13.8,295.9,11.7,294.5,10.2,292.6z"/>
<path class="st14" d="M113.9,408.6c6.5-21,12.9-42,19.4-63c16.3,4.6,32.6,9.2,49,13.8c-0.3,7.3-0.3,14.5,0,21.8
	c0.2,6.5,1.6,12.3,2.5,18.5c-5,20.1-10.5,40.1-17.5,59.6c-4.5,12.6-9.7,25.2-18.7,35.2c-9,9.9-22.4,16.8-35.7,14.9
	c-11.7-1.7-21.6-9.8-28.1-19.6c-6.5-9.8-10.1-21.1-13.6-32.3c-9.1-28.9-16.2-54.6-25.7-83.4c-9.6-29.2-24.3-49.8-36.5-82.5
	c1.4,1.9,3.5,3.3,5.6,4.4c0.5,0.3,1,0.5,1.5,0.7c5,26.3,13,24.3,21,22.3l38.7-15.8c0.4,0,1,0,1.4,0c0.9-5.2,1.4-4.5,4-9
	c1.5-2.6,3.3-5.1,3.8-8.1c0.5-3.5-0.9-6.9-1.5-10.4c-1-5.3-0.2-10.9,2.2-15.7c0.9-1.7,2-3.4,3.7-4.4c1.7-1,4-1.1,5.5,0.1
	c1.4,1.2,1.7,3.1,2,4.9c0.8,5.7,1.6,11.3,2.5,17c1.2,8.5,2.5,17.1,1.4,25.6c-0.7,5.6-3,9.7-4.7,14.8c-2,5.9,0.5,13.6,0.7,19.8
	c0.4,14,3.3,27.7,7.2,41.1C107,389,110.5,398.8,113.9,408.6z"/>
<defs>
	<filter id="Adobe_OpacityMaskFilter" filterUnits="userSpaceOnUse" x="29.1" y="302.5" width="49.9" height="21.4">
		<feColorMatrix  type="matrix" values="1 0 0 0 0  0 1 0 0 0  0 0 1 0 0  0 0 0 1 0"/>
	</filter>
</defs>
<mask maskUnits="userSpaceOnUse" x="29.1" y="302.5" width="49.9" height="21.4" id="mask0_201_175_00000062891919428630185260000000849195216963299762_">
	<path class="st18" d="M115.9,407.6c6.5-21,12.9-42,19.4-63c16.3,4.6,32.6,9.2,49,13.8c-0.3,7.3-0.3,14.5,0,21.8
		c0.2,6.5,1.6,12.3,2.5,18.5c-5,20.1-10.5,40.1-17.5,59.6c-4.5,12.6-9.7,25.2-18.7,35.2c-9,9.9-22.4,16.8-35.7,14.9
		c-11.7-1.7-21.6-9.8-28.1-19.6c-6.5-9.8-10.1-21.1-13.6-32.3c-9.1-28.9-16.2-54.6-25.7-83.4c-9.6-29.2-25.3-48.8-37.5-81.5
		c1.4,1.9,3.5,3.3,5.6,4.4c0.5,0.3,1,0.5,1.5,0.7c5,26.3,14,23.3,22,21.3l38.7-15.8c0.4,0,1,0,1.4,0c0.9-5.2,1.4-4.5,4-9
		c1.5-2.6,3.3-5.1,3.8-8.1c0.5-3.5-0.9-6.9-1.5-10.4c-1-5.3-0.2-10.9,2.2-15.7c0.9-1.7,2-3.4,3.7-4.4c1.7-1,4-1.1,5.5,0.1
		c1.4,1.2,1.7,3.1,2,4.9c0.8,5.7,1.6,11.3,2.5,17c1.2,8.5,2.5,17.1,1.4,25.6c-0.7,5.6-3,9.7-4.7,14.8c-2,5.9,0.5,13.6,0.7,19.8
		c0.4,14,3.3,27.7,7.2,41.1C109,388,112.5,397.8,115.9,407.6z"/>
</mask>
<g class="st19">
	<path class="st20" d="M36,323.9c5.1-0.4,30.8-14.4,43-21.4l-49.9,17.7C29.3,321.6,30.9,324.2,36,323.9z"/>
</g>
<path class="st13" d="M187.1,344.8c-2.4-1.9-5.1-3.6-8-4.1c-3.5-0.5-7.6,1.5-8.3,5.3c-0.7,3.5,1.8,6.8,4.2,9.4
	c3.1,3.5,6.3,7,9.5,10.5c-0.5,5.5-0.9,11-1.2,16.5c-0.1,1.2-0.1,2.4-0.2,3.7c-19.3-5.5-38.6-10.9-57.9-16.4c0.5-1.7,1-3.4,1.6-5.1
	c4.8-15.6,9.6-31.2,17.2-45.6c7.7-14.4,18.5-27.5,32.8-35.3c16.2-8.8,34.4-12,51.6-17.4c4.6-1.4,8.7-3,12.2-4.6
	c4.2,10.9,8.7,21.7,15.3,31.2c7.3,10.5,17.7,19.4,30.2,22.4c17,4.2,35.5-3.6,47.3-16.5c10.2-11.1,16.1-25.5,19.2-40.3
	c4.2,2.1,9.2,4.1,15,6c17.4,5.5,35.3,10.3,51.4,19.1c14.3,7.8,25.1,20.9,32.8,35.3c7.7,14.3,12.5,30,17.3,45.6
	c0.2,0.7,0.4,1.4,0.6,2.1c-18.5,4.2-36.4,10.5-53.5,18.6c-0.7-2.9-1.5-5.8-2.3-8.7c0.1,2,0.2,3.9,0.3,5.9c0.5,9.8,0.5,19.7,0.2,29.5
	c-0.3,8.6-2.3,16.2-3.3,24.7c-1,8.4-1.8,17.3-2.5,25.7c-2.6-0.7-5.1-1.5-7.6-2.3c-43.7-14.3-90.6-22.4-126.1-51.5
	c-4.4-3.6-8.2-7.6-11-12.5c-2.9-4.9-4.5-10.5-8.2-14.9c-5-5.9-12.7-8.6-20-11c-6.4-2.1-13.6-4.2-19.8-2
	c-9.2-7.4-18.5-14.7-27.7-22.1C188,345.5,187.6,345.2,187.1,344.8z"/>
<path class="st14" d="M187.4,344.6c0.4,0.3,0.9,0.7,1.3,1c9.2,7.4,18.5,14.8,27.7,22.2c6.3-2.2,13.4-0.1,19.9,2
	c7.3,2.4,15.1,5.1,20,11c3.7,4.4,5.3,10,8.2,14.9c2.9,4.9,6.7,9,11,12.6c35.5,29.2,82.5,37.4,126.1,51.7c2.5,0.8,5,1.6,7.6,2.3
	c6.9,2,13.9,3.3,20.8,2.9c1.3-4.4,0.7-9.5,0-14.1c-3.3-22.2-7.8-44.3-13.3-66.1c17.1-8.2,35.1-14.5,53.6-18.7
	c4.4,14.4,8.8,28.9,13.2,43.3c11.5,37.7,15.9,93-24.1,115.9c-15,8.6-33.8,8.5-51,6.5c-0.2,0-0.5-0.1-0.7-0.1
	c-17.4-2.1-34.3-7.6-50.7-13.9c-37.2-14.4-65.1-42.3-104.4-54.3c-13.5-4.1-27.7-6.3-40.6-12.3c-7.5-3.4-15.4-8.4-17.3-16.4
	c-1.5-6.2,0.9-13.1-2-18.8c-1.8-3.6-5.7-6.4-5.8-10.4c-0.1-3.9,3.6-7.4,3-11.2c-0.3-1.7-1.4-3.2-2-4.8c-1.2-3-1-6.6,0.6-9.4
	c1.3-2.2,3.5-3.9,6-4.7c-3.3-3.3-6.6-6.7-9.8-10.1c-3.2-3.5-6.3-7-9.5-10.5c-2.3-2.6-4.8-5.9-4.2-9.4c0.7-3.7,4.8-5.8,8.3-5.3
	C182.3,341,184.9,342.7,187.4,344.6z"/>
</svg>
