<?xml version="1.0" encoding="utf-8"?>
<!-- Generator: Adobe Illustrator 26.0.2, SVG Export Plug-In . SVG Version: 6.00 Build 0)  -->
<svg version="1.1" id="Layer_1" xmlns="http://www.w3.org/2000/svg" xmlns:xlink="http://www.w3.org/1999/xlink" x="0px" y="0px"
	 viewBox="0 0 342 342" style="enable-background:new 0 0 342 342;" xml:space="preserve">
<style type="text/css">
	.st0{fill:#FFF9F2;}
	.st1{fill:#FFF9F2;filter:url(#Adobe_OpacityMaskFilter);}
	.st2{mask:url(#mask0_36_1199_00000106121733598117682730000003098048231761633982_);}
	.st3{fill-rule:evenodd;clip-rule:evenodd;fill:#67BC93;}
	.st4{fill-rule:evenodd;clip-rule:evenodd;fill:#E5E5E5;}
	.st5{fill-rule:evenodd;clip-rule:evenodd;fill:#F19780;}
	.st6{fill-rule:evenodd;clip-rule:evenodd;fill:#FFFFFF;}
	.st7{clip-path:url(#SVGID_00000064350972708128401220000002768160770585821339_);}
	
		.st8{fill-rule:evenodd;clip-rule:evenodd;fill:#2B4098;stroke:#153683;stroke-width:0.375;stroke-linecap:round;stroke-linejoin:round;}
	.st9{fill:#FFFFFF;}
	.st10{fill:#2B4098;}
	.st11{fill:none;stroke:#153683;stroke-width:0.375;stroke-linecap:round;stroke-linejoin:round;}
	.st12{fill:none;stroke:#153683;stroke-width:0.225;stroke-linecap:round;stroke-linejoin:round;}
	.st13{fill-rule:evenodd;clip-rule:evenodd;fill:#2B4098;}
	.st14{fill-rule:evenodd;clip-rule:evenodd;fill:#FFED00;}
	.st15{fill-rule:evenodd;clip-rule:evenodd;fill:#3E3872;}
	.st16{fill-rule:evenodd;clip-rule:evenodd;fill:#AF4EA6;}
	.st17{fill-rule:evenodd;clip-rule:evenodd;fill:#F8B797;}
	.st18{fill-rule:evenodd;clip-rule:evenodd;fill:#CC4362;}
	.st19{fill-rule:evenodd;clip-rule:evenodd;fill:#2E2954;}
	.st20{fill:none;stroke:#F19780;stroke-width:2;stroke-linecap:round;stroke-linejoin:round;}
	
		.st21{fill-rule:evenodd;clip-rule:evenodd;fill:#F8B797;filter:url(#Adobe_OpacityMaskFilter_00000031187558707518701830000006261270609696619178_);}
	.st22{mask:url(#mask1_36_1199_00000152987242905642258970000016659543956335127172_);}
	.st23{fill:#F19780;}
</style>
<circle class="st0" cx="171" cy="171" r="171"/>
<defs>
	<filter id="Adobe_OpacityMaskFilter" filterUnits="userSpaceOnUse" x="-13.4" y="19.2" width="348.8" height="339.7">
		<feColorMatrix  type="matrix" values="1 0 0 0 0  0 1 0 0 0  0 0 1 0 0  0 0 0 1 0"/>
	</filter>
</defs>
<mask maskUnits="userSpaceOnUse" x="-13.4" y="19.2" width="348.8" height="339.7" id="mask0_36_1199_00000106121733598117682730000003098048231761633982_">
	<circle class="st1" cx="180.6" cy="171" r="171"/>
</mask>
<g class="st2">
	<path class="st3" d="M309.8,79.7c0,0,0.2-5-4.1-12.6c-4.3-7.6-10-13.4-10-13.4s2.6,0,6.9,4.3c4.3,4.3,6.7,8.4,6.7,8.4
		s0.4-5.2-5.2-14.3c-5.6-9.1-10.2-15.2-10.2-15.2s9.8,4.6,14.5,12.1c4.6,7.4,5.9,11,5.9,11s0-7.8,0-13.6s0.6-14.1,0.6-14.1
		s2.4,6.5,3,14.9c0.6,8.4,0.7,15.2,0.7,15.2s0.2-7.4,2.2-15.2c2-7.8,5.9-15.8,5.9-15.8s0.6,13.6-0.9,21.2
		c-1.5,7.6-3.3,14.1-3.3,14.1s0.7-3,4.1-7.6c3.3-4.6,7.2-7.6,7.2-7.6s-6.5,13-7.2,17.8c-0.7,4.8-0.9,10.2-0.9,10.2"/>
	<path class="st3" d="M281,94.2c0,0-4.1-5.2-4.1-8.4c0-3.2,3.2,1.5,3.2,1.5s-6.7-12.3-6.1-17.3c0.6-5,5.6,8.7,5.6,8.7
		s-1.7-28.2,1.1-27.3c2.8,0.9,6.3,27.5,6.3,29.2c0,1.7,2.4-11.7,4.3-7.8c1.9,3.9,1.9,13.2,1.9,13.2s2.4-14.1,4.3-9.3
		c1.9,4.8-2.2,17.6-2.2,17.6"/>
	<path class="st3" d="M231.2,94.8c0,0,1.7-3.2-1.7-8c-3.3-4.8-7.4-9.1-7.4-9.1s7.1,2.6,9.1,4.8c2,2.2,3.9,5,3.7,4.5
		c-0.2-0.6-3-5.8-5.9-11.7c-3-5.9-5.8-11.7-5.8-11.7s3.9,5.2,8.4,9.5c4.5,4.3,7.2,9.7,7.2,9.7s-2-10.8-2-15.6s0.9-13,0.9-13
		s3.3,8.2,4.1,14.1c0.7,5.9,0.9,12.6,0.9,12.6s0.4-1.9,1.9-8.2c1.5-6.3,4.8-14.9,4.8-14.9s0.4,7.1,0.2,14.1
		c-0.2,7.1-3.2,15.4-3.2,15.4s2.8-3.2,5-6.1c2.2-3,3.2-4.6,3.2-4.6s-4.8,11.5-5.4,12.8c-0.6,1.3-1.7,5.6-1.7,5.6L231.2,94.8z"/>
	<path class="st4" d="M335,126.9v-0.4H222.1v-8.3h112.5v8.7H335v-0.4V126.9h0.4v-9.1c0-0.1,0-0.2-0.1-0.3c-0.1-0.1-0.2-0.1-0.3-0.1
		H221.8c-0.1,0-0.2,0-0.3,0.1c-0.1,0.1-0.1,0.2-0.1,0.3v9.1c0,0.1,0,0.2,0.1,0.3c0.1,0.1,0.2,0.1,0.3,0.1H335c0.1,0,0.2,0,0.3-0.1
		c0.1-0.1,0.1-0.2,0.1-0.3H335z"/>
	<path class="st4" d="M249,101.4V101h-19.4v-5.9h19v6.3H249V101V101.4h0.4v-6.7c0-0.1,0-0.2-0.1-0.3c-0.1-0.1-0.2-0.1-0.3-0.1h-19.8
		c-0.1,0-0.2,0-0.3,0.1c-0.1,0.1-0.1,0.2-0.1,0.3v6.7c0,0.1,0,0.2,0.1,0.3c0.1,0.1,0.2,0.1,0.3,0.1H249c0.1,0,0.2,0,0.3-0.1
		c0.1-0.1,0.1-0.2,0.1-0.3H249z"/>
	<path class="st4" d="M246.7,117.6v-0.4h-14.7l-7.1-15.4h28.7l-7.2,15.7L246.7,117.6v-0.4V117.6l0.4,0.2l7.5-16.2
		c0.1-0.1,0-0.3,0-0.4c-0.1-0.1-0.2-0.2-0.3-0.2h-30c-0.1,0-0.3,0.1-0.3,0.2c-0.1,0.1-0.1,0.3,0,0.4l7.5,16.2
		c0.1,0.1,0.2,0.2,0.4,0.2h15c0.2,0,0.3-0.1,0.4-0.2L246.7,117.6z"/>
	<path class="st4" d="M270,76.1v-0.4h-11.7c-0.1,0-0.2,0-0.3,0.1c-0.1,0.1-0.1,0.2-0.1,0.3v41.7c0,0.1,0,0.2,0.1,0.3
		c0.1,0.1,0.2,0.1,0.3,0.1H270c0.1,0,0.2,0,0.3-0.1c0.1-0.1,0.1-0.2,0.1-0.3V76.1c0-0.1,0-0.2-0.1-0.3c-0.1-0.1-0.2-0.1-0.3-0.1
		V76.1h-0.4v41.3h-10.9V76.5H270V76.1h-0.4H270z"/>
	<path class="st4" d="M299.6,106.6v10.7h-22.1v-11.7c0-0.2-0.2-0.4-0.4-0.4c-0.2,0-0.4,0.2-0.4,0.4v12.1c0,0.1,0,0.2,0.1,0.3
		c0.1,0.1,0.2,0.1,0.3,0.1H300c0.1,0,0.2,0,0.3-0.1c0.1-0.1,0.1-0.2,0.1-0.3v-11.1c0-0.2-0.2-0.4-0.4-0.4
		C299.8,106.2,299.6,106.4,299.6,106.6z"/>
	<path class="st4" d="M300,105h0.4V94.4c0-0.1,0-0.2-0.1-0.3c-0.1-0.1-0.2-0.1-0.3-0.1h-22.9c-0.1,0-0.2,0-0.3,0.1
		c-0.1,0.1-0.1,0.2-0.1,0.3v12.2c0,1.7,1.4,3.1,3.1,3.1h0.1c1.7,0,3.1-1.4,3.1-3.1V105h-0.4v0.4h0.1V105h-0.4v1.6
		c0,1.7,1.4,3.1,3.1,3.1h0.1c1.7,0,3.1-1.4,3.1-3.1V105h-0.4v0.4h0.1V105h-0.4v1.6c0,1.7,1.4,3.1,3.1,3.1h0.1c1.7,0,3.1-1.4,3.1-3.1
		V105h-0.4v0.4h0.1V105H294v1.6c0,1.7,1.4,3.1,3.1,3.1h0.1c1.7,0,3.1-1.4,3.1-3.1V105c0-0.1,0-0.2-0.1-0.3s-0.2-0.1-0.3-0.1h0V105
		h0.4H300v0.4h0L300,105h-0.4v1.6c0,1.3-1,2.3-2.3,2.3h-0.1c-1.3,0-2.3-1-2.3-2.3V105c0-0.1,0-0.2-0.1-0.3c-0.1-0.1-0.2-0.1-0.3-0.1
		h-0.1c-0.1,0-0.2,0-0.3,0.1c-0.1,0.1-0.1,0.2-0.1,0.3v1.6c0,1.3-1,2.3-2.3,2.3h-0.1c-1.3,0-2.3-1-2.3-2.3V105c0-0.1,0-0.2-0.1-0.3
		c-0.1-0.1-0.2-0.1-0.3-0.1h-0.1c-0.1,0-0.2,0-0.3,0.1c-0.1,0.1-0.1,0.2-0.1,0.3v1.6c0,1.3-1,2.3-2.3,2.3h-0.1c-1.3,0-2.3-1-2.3-2.3
		V105c0-0.1,0-0.2-0.1-0.3c-0.1-0.1-0.2-0.1-0.3-0.1h-0.1c-0.1,0-0.2,0-0.3,0.1c-0.1,0.1-0.1,0.2-0.1,0.3v1.6c0,1.3-1,2.3-2.3,2.3
		h-0.1c-1.3,0-2.3-1-2.3-2.3V94.8h22.1V105c0,0.1,0,0.2,0.1,0.3c0.1,0.1,0.2,0.1,0.3,0.1V105z"/>
	<path class="st4" d="M327.4,109.2v-0.4h-21.6V79.5H327v29.7H327.4v-0.4V109.2h0.4V79.1c0-0.1,0-0.2-0.1-0.3
		c-0.1-0.1-0.2-0.1-0.3-0.1h-22c-0.1,0-0.2,0-0.3,0.1c-0.1,0.1-0.1,0.2-0.1,0.3v30.1c0,0.1,0,0.2,0.1,0.3c0.1,0.1,0.2,0.1,0.3,0.1
		h22c0.1,0,0.2,0,0.3-0.1c0.1-0.1,0.1-0.2,0.1-0.3H327.4z"/>
	<path class="st4" d="M325.3,117.7v-0.4h-17.3v-7.6h16.9v8H325.3v-0.4V117.7h0.4v-8.4c0-0.1,0-0.2-0.1-0.3c-0.1-0.1-0.2-0.1-0.3-0.1
		h-17.7c-0.1,0-0.2,0-0.3,0.1c-0.1,0.1-0.1,0.2-0.1,0.3v8.4c0,0.1,0,0.2,0.1,0.3c0.1,0.1,0.2,0.1,0.3,0.1h17.7c0.1,0,0.2,0,0.3-0.1
		c0.1-0.1,0.1-0.2,0.1-0.3H325.3z"/>
	<path class="st3" d="M259.7,70.1c-1.1,0-2-0.9-2-2c0-1.1,0.9-2,2-2c1.1,0,2,0.9,2,2C261.8,69.2,260.8,70.1,259.7,70.1z M259.7,63.2
		c-2.7,0-4.9,2.2-4.9,4.9c0,2.7,2.2,4.9,4.9,4.9s4.9-2.2,4.9-4.9C264.6,65.4,262.4,63.2,259.7,63.2z"/>
	<path class="st3" d="M264.6,64.7c-0.8,0-1.5-0.7-1.5-1.5c0-0.8,0.7-1.5,1.5-1.5c0.8,0,1.5,0.7,1.5,1.5
		C266.1,64,265.5,64.7,264.6,64.7z M264.6,59.5c-2,0-3.7,1.7-3.7,3.7c0,2,1.7,3.7,3.7,3.7s3.7-1.7,3.7-3.7
		C268.3,61.1,266.6,59.5,264.6,59.5z"/>
	<path class="st3" d="M267.6,71.8c-0.8,0-1.5-0.7-1.5-1.5c0-0.8,0.7-1.5,1.5-1.5c0.8,0,1.5,0.7,1.5,1.5
		C269.1,71.1,268.4,71.8,267.6,71.8z M267.6,66.5c-2,0-3.7,1.7-3.7,3.7s1.7,3.7,3.7,3.7c2,0,3.7-1.7,3.7-3.7S269.6,66.5,267.6,66.5z
		"/>
	<path class="st3" d="M263.5,75.7c-0.8,0-1.5-0.7-1.5-1.5c0-0.8,0.7-1.5,1.5-1.5s1.5,0.7,1.5,1.5C265,75,264.3,75.7,263.5,75.7z
		 M263.5,70.4c-2,0-3.7,1.7-3.7,3.7s1.7,3.7,3.7,3.7c2,0,3.7-1.7,3.7-3.7S265.5,70.4,263.5,70.4z"/>
	<path class="st3" d="M264.6,54.5c-0.8,0-1.5-0.7-1.5-1.5c0-0.8,0.7-1.5,1.5-1.5c0.8,0,1.5,0.7,1.5,1.5
		C266.1,53.8,265.5,54.5,264.6,54.5z M264.6,49.3c-2,0-3.7,1.7-3.7,3.7c0,2,1.7,3.7,3.7,3.7s3.7-1.7,3.7-3.7
		C268.3,50.9,266.6,49.3,264.6,49.3z"/>
	<path class="st3" d="M262.9,59.3c-0.8,0-1.5-0.7-1.5-1.5c0-0.8,0.7-1.5,1.5-1.5c0.8,0,1.5,0.7,1.5,1.5
		C264.5,58.6,263.8,59.3,262.9,59.3z M262.9,54.1c-2,0-3.7,1.7-3.7,3.7c0,2,1.7,3.7,3.7,3.7s3.7-1.7,3.7-3.7
		C266.6,55.8,265,54.1,262.9,54.1z"/>
	<path class="st3" d="M257.9,57.8c-0.8,0-1.5-0.7-1.5-1.5c0-0.8,0.7-1.5,1.5-1.5c0.8,0,1.5,0.7,1.5,1.5
		C259.5,57.2,258.8,57.8,257.9,57.8z M257.9,52.6c-2,0-3.7,1.7-3.7,3.7c0,2,1.7,3.7,3.7,3.7c2,0,3.7-1.7,3.7-3.7
		C261.6,54.3,260,52.6,257.9,52.6z"/>
	<path class="st3" d="M269.3,59.9c-0.8,0-1.5-0.7-1.5-1.5c0-0.8,0.7-1.5,1.5-1.5c0.8,0,1.5,0.7,1.5,1.5
		C270.8,59.2,270.1,59.9,269.3,59.9z M269.3,54.7c-2,0-3.7,1.7-3.7,3.7c0,2,1.7,3.7,3.7,3.7c2,0,3.7-1.7,3.7-3.7
		C272.9,56.3,271.3,54.7,269.3,54.7z"/>
	<path class="st4" d="M80.5,299.9h0.4v-61.7h78.4v61.3H80.5V299.9h0.4H80.5v0.4H160v-62.9h-80v62.9h0.4V299.9z M73.9,90v-0.4h-80
		V26.9h79.6V90H73.9v-0.4V90h0.4V26.1H-6.9v64.3h81.2V90H73.9z M73.9,159.7v-0.4h-80v-62h79.6v62.4H73.9v-0.4V159.7h0.4V96.5H-6.9
		v63.6h81.2v-0.4H73.9z M73.9,230.8v-0.4h-80v-63.3h79.6v63.7H73.9v-0.4V230.8h0.4v-64.5H-6.9v64.9h81.2v-0.4H73.9z M73.9,299.9
		v-0.4h-80v-61.3h79.6v61.7H73.9v-0.4V299.9h0.4v-62.5H-6.9v62.9h81.2v-0.4H73.9z M80.5,166.7v0.4h78.8v63.3H80.9v-63.7H80.5v0.4
		V166.7h-0.4v64.5h80v-64.9h-80v0.4H80.5z M80.5,96.9v0.4h78.8v62H80.9V96.9H80.5v0.4V96.9h-0.4v63.2h80V96.5h-80v0.4H80.5z
		 M80.5,26.5v0.4h78.8v62.7H80.9V26.5H80.5v0.4V26.5h-0.4v63.9h80V26.1h-80v0.4H80.5z M-13,19.6h-0.4v287.7h180V19.2h-180v0.4H-13
		V20h178.8v286.5H-12.6V19.6H-13V20V19.6z"/>
	<path class="st5" d="M179,138.7c1-0.1,2-0.2,3-0.4c0.4-0.1,0.8-0.2,1.2,0c0.3,0.2,0.4,0.6,0.3,1c-0.1,0.4-0.3,0.7-0.5,1
		c-0.7,0.8-1.6,1.4-2.6,1.8c-0.5,0.2-1.1,0.3-1.6,0.3c-0.6,0-1.1-0.3-1.6-0.5c-0.8-0.4-1.6-0.9-2.1-1.6c-0.2-0.3-0.4-0.6-0.5-1
		c-0.1-0.4,0-0.8,0.3-1c0.3-0.2,0.8-0.1,1.2,0C177,138.5,178,138.6,179,138.7z"/>
	<path class="st5" d="M137.8,137.4c0.6,0.6,0.9,1.6,0.5,2.3c-0.4,0.6-1.2,0.7-1.9,0.5c-0.7-0.2-1.2-0.7-1.7-1.2
		c-2.2-2.2-3.9-5-3.9-8.2c0-2.3,1.7-4.6,4.1-2.6c1,0.9,1.4,2.5,0.7,3.8c-0.3,0.6-0.9,1.1-1,1.8c-0.1,0.8,0.5,1.6,1.1,2.1
		C136.4,136.4,137.2,136.8,137.8,137.4z"/>
	<path class="st6" d="M179.4,161.7C179.4,161.7,179.4,161.7,179.4,161.7c-3.2,0.2-6.4-1-8.7-3.1c-2.5-2.1-4.1-5.1-5.1-8.2
		c-0.3-0.9-0.5-2.1,0.2-2.7c0.6-0.5,1.5-0.5,2.3-0.4c3.4,0.4,6.8,0.7,10.2,0.6c3.4-0.1,6.8-0.5,10.2-1c0.5-0.1,1-0.2,1.6-0.2
		c0.8-0.1,1.7-0.3,2.3,0.2c0.7,0.6,0.6,1.8,0.4,2.7c-0.8,3.1-2.4,6.2-4.7,8.4C185.6,160.3,182.5,161.7,179.4,161.7z"/>
	<g>
		<defs>
			
				<rect id="SVGID_1_" x="35.8" y="150.3" transform="matrix(0.9729 -0.2312 0.2312 0.9729 -40.8699 20.8314)" width="65.2" height="69"/>
		</defs>
		<clipPath id="SVGID_00000070101457908736677400000006066900843548658099_">
			<use xlink:href="#SVGID_1_"  style="overflow:visible;"/>
		</clipPath>
		<g style="clip-path:url(#SVGID_00000070101457908736677400000006066900843548658099_);">
			<path class="st8" d="M62.8,161.3c-10.7-12.7-29.7-3.3-27.1,16.4l3.4,16.6c0.1,0.7,0.4,1.4,1,2.1c0.3,0.7,0.5,1.6,0.4,2.7
				c0,1,0.1,2,0.5,3.1l0.4,1.7c0,0.1,0.1,0.2,0.2,0.2c-0.1,0.1-0.1,0.2-0.1,0.3l3.3,15.2c0.3,1.7,1.6,2.7,3.7,3l2.6,0.1
				c1.3,0,2.5-0.2,3.5-0.6L74,214c1.8-0.9,2.6-2.2,2.2-4.2l-5.7-27.5l22.4-4c6.7-1.7,4.1-21.6-5.1-21.6l-21.6,5
				C65.2,161.3,64.2,161.1,62.8,161.3z"/>
			<path class="st9" d="M65.3,161.3L65.3,161.3C65.3,161.3,65.3,161.3,65.3,161.3l5.6,21.5l5.4,26.9c0.4,3.8-1.9,4.3-9.8,7.7
				l-12.3,5.4c-1.3,0.1-4,0.1-4.7-1.3c-0.7-1.4-7-30.1-10-44.3c-1-4.6-0.6-11.7,1.8-15c2.3-3.3,5.5-5.7,9.6-6.7
				c2.1,0,6.9,0.7,9.6,3.6C63,161.8,65.3,161.6,65.3,161.3z"/>
			<path class="st10" d="M55.1,163.2l8.7-2.1l2.1,0.5l4.9,20.7L70,183l-2.6,1.1l-1.9,0l-3.7,0.9l-2.6,1.1c-1.6,0.6-5.7,0.4-8.9-4.7
				c-3.9-6.4-3.1-10.9-1.4-14.2C50,164.5,53.6,163.2,55.1,163.2z"/>
			<path class="st9" d="M87.6,156.9L60,163.5c-0.3,0.9-3.9,3.9-2.5,9.8c2,8.3,6.1,9.2,7.2,9.9c9.6-1.6,28.2-4.8,28.9-4.9
				c0.9-0.2,4.3-4.4,2.2-13.2C94.2,158.2,89.7,157.1,87.6,156.9z"/>
			<path class="st11" d="M62.8,161.3c-10.7-12.7-29.7-3.3-27.1,16.4l3.4,16.6c0.1,0.7,0.4,1.4,1,2.1c0.3,0.7,0.5,1.6,0.4,2.7
				c0,1,0.1,2,0.5,3.1l0.4,1.7c0,0.1,0.1,0.2,0.2,0.2c-0.1,0.1-0.1,0.2-0.1,0.3l3.3,15.2c0.3,1.7,1.6,2.7,3.7,3l2.6,0.1
				c1.3,0,2.5-0.2,3.5-0.6L74,214c1.8-0.9,2.6-2.2,2.2-4.2l-5.7-27.5l22.4-4c6.7-1.7,4.1-21.6-5.1-21.6l-21.6,5
				C65.2,161.3,64.2,161.1,62.8,161.3z"/>
			<path class="st11" d="M66.3,161.6l-6.2,1.5"/>
			<path class="st11" d="M70.7,182.3l-6.3,1.2"/>
			<path class="st12" d="M63.1,182.8l-5.9,1"/>
			<path class="st12" d="M59.4,163.9l-6.3,1.8"/>
			<path class="st12" d="M41.9,204l2.5-0.1l3.9,16.3c0.3,1.2,1.1,2,2.5,2.1"/>
			<path class="st11" d="M56.4,162.9c-9.3,4.3-4.2,22.7,5.2,22.1"/>
			<path class="st11" d="M62.9,161.3c-9.2,3.8-6.4,20.3,2.9,22.7"/>
			<path class="st8" d="M87.1,158c3-0.7,6.5,3,7.8,8.4c1.3,5.4-0.2,10.3-3.2,11c-3,0.7-6.5-3-7.8-8.4
				C82.7,163.6,84.1,158.7,87.1,158z"/>
			<path class="st11" d="M62.9,161.2l-6.5,1.6c-17.1,0.8-6.9,29.3,5.2,22.1l4.1-1c1.9,0.2,3.5-0.5,4.8-1.7"/>
			<path class="st13" d="M63.9,191.4L63.9,191.4c0.1,0,0.1,0,0.1,0c0,0,0,0,0,0c0,0,0,0,0,0c0,0,0,0-0.1,0L63.9,191.4L63.9,191.4z
				 M64,191.5l0,0.1l-0.1,0l-0.1-0.3l0.1,0c0,0,0.1,0,0.1,0c0,0,0,0,0.1,0.1c0,0,0,0.1,0,0.1c0,0,0.1,0,0.1,0.1l0,0c0,0,0,0,0,0l0,0
				l-0.1,0c0,0,0,0,0-0.1c0,0,0,0,0,0C64.1,191.5,64.1,191.5,64,191.5L64,191.5z M63.8,191.5c0,0,0,0.1,0.1,0.1c0,0,0.1,0.1,0.1,0.1
				c0,0,0.1,0,0.1,0c0,0,0.1,0,0.1-0.1c0,0,0-0.1,0.1-0.1c0,0,0-0.1,0-0.1c0,0,0-0.1-0.1-0.1c0,0-0.1-0.1-0.1-0.1c0,0-0.1,0-0.1,0
				c0,0-0.1,0-0.1,0.1c0,0,0,0.1-0.1,0.1C63.7,191.4,63.8,191.5,63.8,191.5z M63.7,191.5c0-0.1,0-0.1,0-0.2c0-0.1,0-0.1,0.1-0.1
				c0,0,0.1-0.1,0.1-0.1c0,0,0.1,0,0.2,0c0.1,0,0.1,0,0.1,0.1c0,0,0.1,0.1,0.1,0.1c0,0.1,0,0.1,0,0.2s0,0.1-0.1,0.1
				c0,0-0.1,0.1-0.1,0.1c-0.1,0-0.1,0-0.2,0c-0.1,0-0.1,0-0.1-0.1C63.8,191.6,63.7,191.6,63.7,191.5z"/>
			<path class="st13" d="M58,195.7L58,195.7c-0.1,0-0.2,0.1-0.4,0.1l-0.1,0l-0.2-0.6c0,0,0-0.1-0.1-0.2c0-0.1-0.1-0.2-0.1-0.2
				c0-0.1-0.1-0.3-0.2-0.4c-0.1-0.1-0.1-0.2-0.3-0.3c-0.2-0.1-0.7,0-0.8,0.3c-0.2,0.3-0.1,0.7,0.2,1c0.1,0.1,0.2,0.1,0.4,0.1
				c0.1,0,0.2,0,0.2,0c0.1,0,0.2-0.1,0.3-0.1c0,0,0.1,0,0.1,0l0.2,0.5c-0.1,0-0.4,0.1-0.5,0.2c-0.1,0-0.2,0.1-0.4,0
				c-0.2,0-0.5-0.1-0.6-0.2c-0.5-0.4-0.7-1.1-0.4-1.6c0.2-0.4,0.9-0.8,1.5-0.6c0.3,0.1,0.6,0.3,0.7,0.5c0.1,0.2,0.2,0.4,0.3,0.6
				c0,0.1,0.1,0.3,0.2,0.4C58,195.5,58,195.6,58,195.7C58.1,195.7,58.1,195.7,58,195.7z M62.9,191.5l0,1.8l-1.2-1.4l-0.6,0.2
				l1.7,1.9l0,0c0,0.2,0,0.3-0.1,0.4c-0.1,0.1-0.2,0.2-0.3,0.2l0,0l0.2,0.5l0,0c0,0,0.1,0,0.1,0c0.5-0.2,0.7-0.6,0.8-1.2l0.1-2.7
				L62.9,191.5z M59.6,193.7l1.3-0.4c-0.1-0.2-0.2-0.3-0.3-0.3c-0.1-0.1-0.3,0-0.4,0c-0.2,0.1-0.3,0.2-0.4,0.3
				C59.6,193.3,59.6,193.5,59.6,193.7z M60.9,192.5c0.3,0.2,0.5,0.4,0.6,0.8c0,0.1,0,0.1,0.1,0.2l0,0l-1.8,0.6
				c0.1,0.1,0.2,0.2,0.4,0.3c0.2,0,0.3,0,0.5,0c0.2-0.1,0.4-0.2,0.5-0.5l0,0l0.5,0.1l0,0c-0.1,0.4-0.4,0.7-0.8,0.8
				c-0.4,0.1-0.7,0.1-1,0c-0.3-0.2-0.5-0.4-0.6-0.8c-0.1-0.3-0.1-0.7,0-1c0.1-0.3,0.4-0.5,0.8-0.6C60.3,192.3,60.6,192.4,60.9,192.5
				z M57.7,192.4c-0.1,0.2-0.1,0.5,0,0.8l0.8,2.3l0.5-0.2l-0.6-1.8l0.5-0.2l-0.2-0.5l-0.5,0.2l0,0c-0.1-0.2-0.1-0.3,0-0.4
				c0.1-0.1,0.2-0.2,0.4-0.2l0,0l-0.2-0.5l0,0C58,192.1,57.8,192.2,57.7,192.4z M55,195.6c0.1,0.1,0.2,0.2,0.3,0.4
				c0.1,0.2,0,0.4-0.1,0.6c-0.1,0.2-0.3,0.3-0.6,0.4c-0.2,0.1-0.4,0.1-0.6,0.1c-0.2,0-0.4-0.1-0.5-0.3l0,0l0.4-0.4l0,0
				c0.1,0.2,0.3,0.2,0.6,0.2c0.2-0.1,0.3-0.2,0.3-0.3c0-0.1-0.1-0.1-0.2-0.1c-0.1,0-0.2,0-0.3,0c-0.1,0-0.3,0-0.4,0
				c-0.1,0-0.3,0-0.4-0.1c-0.1-0.1-0.2-0.2-0.3-0.3c-0.1-0.2-0.1-0.4,0.1-0.6c0.1-0.2,0.3-0.3,0.5-0.4c0.2-0.1,0.4-0.1,0.5,0
				c0.2,0,0.3,0.1,0.5,0.2l0,0l-0.4,0.4l0,0c-0.1-0.1-0.3-0.2-0.5-0.1c-0.1,0-0.2,0.1-0.2,0.1c0,0.1-0.1,0.1,0,0.2s0.1,0.1,0.2,0.1
				c0.1,0,0.2,0,0.3,0c0.1,0,0.3,0,0.4,0C54.7,195.5,54.8,195.5,55,195.6z"/>
		</g>
	</g>
	<path class="st14" d="M163.2,175.6C163.2,175.6,163.2,175.6,163.2,175.6C163.2,175.6,163.2,175.6,163.2,175.6
		C163.2,175.6,163.2,175.6,163.2,175.6z"/>
	<path class="st15" d="M196.2,120.8c1.5,0,2.8,1.9,2.8,4.1c0,2.3-1.3,4.1-2.8,4.1c-1.5,0-2.8-1.9-2.8-4.1
		C193.4,122.6,194.6,120.8,196.2,120.8z"/>
	<path class="st15" d="M167,106.8c0.2,0.2,0.3,0.5,0.2,0.8c-0.1,0.3-0.3,0.4-0.6,0.5c-0.7,0.3-1.5,0.4-2.3,0.5
		c-1.6,0.2-3.1,0.6-4.6,1.1c-1.4,0.5-2.6,1.1-3.9,1.8c-0.3,0.2-1,0.6-1.3,0.2c-0.4-0.4,0.2-1.1,0.5-1.4c1.7-2,4.2-3,6.6-3.7
		c1.5-0.4,3.1-0.7,4.6-0.2C166.5,106.5,166.8,106.6,167,106.8z"/>
	<path class="st15" d="M138,95c1.6-4.1,3.8-7.9,6.6-11.2c8.2-9.8,21.1-15.4,33.8-14.8c12.7-0.7,25.6,5,33.8,14.8
		c2.8,3.4,5,7.2,6.6,11.2l0.1,0c8.6,19.3,16.1,43.9,14.3,62.4c-0.5,4.6-1.5,9.3-3.8,13.3c-0.7,1.3-1.6,2.5-2.8,3.3
		c-1.2,0.8-2.8,1.1-4.2,0.5c-1.3-0.6-2.1-2.3-1.5-3.6c-1.2,1.9-2.4,3.9-4.4,5c-1.5,0.8-3.5,0.9-4.9,0c-0.3-0.2-0.6-0.7-0.9-0.9
		c-0.2-0.1-0.3,0-0.5,0.2c-0.2,0.2-0.4,0.4-0.7,0.5c-0.9,0.6-1.9,1-3,1.1c-0.4,0-0.7,0-1.1,0c-1.9-0.1-3.7-1.1-4.8-2.6
		c-2.1,1.4-4.7,2-7.1,1.6c2.4-1.3,4.6-2.8,6.7-4.6c6.7-5.8,11.3-13.8,14.2-22.2c0.4-1.2,0.8-2.4,1.2-3.6c4-0.5,8-2.1,10.8-5.1
		c2.9-3.1,4.3-7.6,3-11.6c-0.7-2.2-2.2-4.2-4.4-5c-1.7-0.6-3.8-0.3-5.2,0.9c-0.1,0.1-0.2,0.2-0.3,0.3c-5.6-4.4-10.4-9.8-14.3-15.8
		c-7.7-0.9-14.7-4-19.9-8.9c0.2,0.6,0.1,1.4-0.1,2c-0.6,1.6-2.4,2.6-4.2,2.7c-1.8,0.1-3.5-0.5-5-1.3c-7-3.6-11.9-10.4-15-17.7
		c-2.8,15.3-11.4,29.4-23.6,39c-0.1-0.1-0.2-0.2-0.3-0.3c-1.4-1.2-3.5-1.5-5.2-0.9c-2.2,0.8-3.7,2.8-4.4,5c-1.3,4,0.1,8.5,3,11.6
		c2.8,3,6.7,4.6,10.8,5.1c0.4,1.2,0.7,2.4,1.1,3.6c2.9,8.4,7.5,16.4,14.2,22.2c2,1.8,4.3,3.3,6.7,4.6c0,0,0,0,0,0
		c-2.4,0.4-5-0.2-7.1-1.6c-1.1,1.5-2.9,2.5-4.8,2.6c-0.4,0-0.7,0-1.1,0c-1.1-0.1-2.1-0.5-3-1.1c-0.2-0.2-0.5-0.3-0.7-0.5
		c-0.2-0.2-0.3-0.4-0.5-0.2c-0.3,0.2-0.6,0.6-0.9,0.9c-1.4,0.9-3.5,0.8-4.9,0c-2-1.1-3.2-3.1-4.4-5c0.6,1.3-0.2,3-1.5,3.6
		c-1.3,0.6-2.9,0.3-4.2-0.5c-1.2-0.8-2.1-2-2.8-3.3c-2.3-4-3.3-8.7-3.8-13.3c-1.8-18.5,5.8-43.1,14.3-62.4L138,95z"/>
	<path class="st14" d="M137.3,124.8c-0.1,0.1-0.2,0.1-0.3,0.2c0-0.2,0-0.3-0.1-0.5C137.1,124.6,137.2,124.7,137.3,124.8z"/>
	<path class="st5" d="M226.1,130.8c0,3.2-1.7,6-3.9,8.2c-0.5,0.5-1,1-1.7,1.2c-0.7,0.2-1.5,0-1.9-0.5c-0.5-0.7-0.1-1.7,0.5-2.3
		c0.6-0.6,1.4-1,2.1-1.5c0.7-0.5,1.3-1.3,1.1-2.1c-0.1-0.7-0.6-1.2-1-1.8c-0.7-1.2-0.4-2.9,0.7-3.8
		C224.4,126.3,226.1,128.6,226.1,130.8z"/>
	<path class="st16" d="M124.2,276.2c-0.5-3.6-1.3-6.9-1.4-10.6c-0.1-4.1-0.1-8.3,0-12.4c0-0.6,0-1.2,0.1-1.8
		c0.1-2.6,0.3-5.3,0.6-7.9c1.5,1.6,3.1,3.3,4.7,4.8c-1.2,0.4-2.2,1.2-2.9,2.3c-0.8,1.3-0.9,3-0.3,4.5c0.3,0.8,0.8,1.5,1,2.3
		c0.3,1.8-1.5,3.5-1.4,5.4c0,1.9,1.9,3.3,2.8,5c1.4,2.7,0.2,6,0.9,9c0.9,3.8,4.7,6.2,8.3,7.8c6.1,2.8,12.9,3.9,19.4,5.9
		c18.8,5.7,32.1,19,49.9,25.9c7.8,3,15.9,5.6,24.2,6.7c0.1,0,0.2,0,0.3,0c0.6,12,1.9,24,4,35.8H122c4.8-26.8,5.6-54.3,2.4-81.4
		C124.3,277,124.3,276.6,124.2,276.2z"/>
	<path class="st14" d="M219.8,124.5c0,0.2-0.1,0.3-0.1,0.5c-0.1-0.1-0.2-0.1-0.3-0.2C219.6,124.7,219.7,124.6,219.8,124.5z"/>
	<path class="st17" d="M222.2,139c2.2-2.2,3.9-5,3.9-8.2c0-2.3-1.7-4.6-4.1-2.6c-1,0.9-1.4,2.5-0.7,3.8c0.3,0.6,0.9,1.1,1,1.8
		c0.1,0.8-0.5,1.6-1.1,2.1c-0.7,0.5-1.5,0.9-2.1,1.5c-0.6,0.6-0.9,1.6-0.5,2.3c0.4,0.6,1.2,0.7,1.9,0.5
		C221.1,140,221.7,139.5,222.2,139z M219.7,125c0-0.2,0-0.3,0.1-0.5c1.4-1.2,3.5-1.5,5.2-0.9c2.2,0.8,3.7,2.8,4.4,5
		c1.3,4-0.1,8.5-3,11.6c-2.8,3-6.8,4.6-10.8,5.1C217.6,138.6,218.8,131.8,219.7,125z"/>
	<path class="st5" d="M206.5,131.2c3.9,0,7,3.1,7,7c0,3.9-3.1,7-7,7c-3.9,0-7-3.1-7-7C199.5,134.4,202.6,131.2,206.5,131.2z"/>
	<path class="st15" d="M201,110.3c0.3,0.3,0.9,1,0.5,1.4c-0.4,0.3-1-0.1-1.3-0.2c-1.3-0.7-2.5-1.3-3.9-1.8c-1.5-0.5-3.1-0.9-4.6-1.1
		c-0.8-0.1-1.6-0.2-2.3-0.5c-0.2-0.1-0.5-0.3-0.6-0.5c-0.1-0.3,0-0.6,0.2-0.8c0.2-0.2,0.5-0.3,0.7-0.4c1.5-0.5,3.1-0.2,4.6,0.2
		C196.8,107.3,199.3,108.4,201,110.3z"/>
	<path class="st15" d="M159.8,120.8c1.6,0,2.8,1.9,2.8,4.1c0,2.3-1.3,4.1-2.8,4.1s-2.8-1.9-2.8-4.1
		C157,122.6,158.2,120.8,159.8,120.8z"/>
	<path class="st14" d="M193.6,175.6c-0.1,0-0.1,0.1-0.2,0.1c0,0,0-0.1,0-0.1C193.5,175.6,193.6,175.6,193.6,175.6z"/>
	<path class="st5" d="M151.9,131.2c3.9,0,7,3.1,7,7c0,3.9-3.1,7-7,7c-3.9,0-7-3.1-7-7C144.8,134.4,148,131.2,151.9,131.2z"/>
	<path class="st17" d="M138.2,139.7c0.5-0.7,0.1-1.7-0.5-2.3c-0.6-0.6-1.4-1-2.1-1.5c-0.7-0.5-1.3-1.3-1.1-2.1
		c0.1-0.7,0.6-1.2,1-1.8c0.7-1.2,0.4-2.9-0.7-3.8c-2.3-2-4.1,0.3-4.1,2.6c0,3.2,1.7,6,3.9,8.2c0.5,0.5,1,1,1.7,1.2
		C137,140.4,137.8,140.3,138.2,139.7z M137.1,125c1,6.8,2.1,13.6,4.1,20.2c-4-0.5-8-2.1-10.8-5.1c-2.9-3.1-4.3-7.6-3-11.6
		c0.7-2.2,2.2-4.2,4.4-5c1.7-0.6,3.8-0.3,5.2,0.9C137,124.7,137,124.8,137.1,125z"/>
	<path class="st17" d="M158.9,138.2c0-3.9-3.1-7-7-7c-3.9,0-7,3.1-7,7c0,3.9,3.1,7,7,7C155.8,145.3,158.9,142.1,158.9,138.2z
		 M162.6,124.9c0-2.3-1.3-4.1-2.8-4.1s-2.8,1.9-2.8,4.1c0,2.3,1.3,4.1,2.8,4.1S162.6,127.2,162.6,124.9z M167.2,107.6
		c0.1-0.3,0-0.6-0.2-0.8c-0.2-0.2-0.5-0.3-0.7-0.4c-1.5-0.5-3.1-0.2-4.6,0.2c-2.4,0.7-4.9,1.7-6.6,3.7c-0.3,0.3-0.9,1-0.5,1.4
		c0.4,0.3,1-0.1,1.3-0.2c1.2-0.7,2.5-1.3,3.9-1.8c1.5-0.5,3.1-0.9,4.6-1.1c0.8-0.1,1.6-0.2,2.3-0.5
		C166.9,108,167.1,107.8,167.2,107.6z M183.6,139.3c0.1-0.4,0-0.8-0.3-1c-0.3-0.2-0.8-0.1-1.2,0c-1,0.2-2,0.3-3,0.4
		c-1-0.1-2-0.2-3-0.4c-0.4-0.1-0.8-0.2-1.2,0c-0.3,0.2-0.4,0.6-0.3,1c0.1,0.4,0.3,0.7,0.5,1c0.6,0.7,1.3,1.2,2.1,1.6
		c0.5,0.2,1.1,0.4,1.6,0.5c0.6,0,1.1-0.1,1.6-0.3c1-0.4,1.9-1,2.6-1.8C183.3,140,183.5,139.7,183.6,139.3z M192.6,149.7
		c0.2-0.9,0.4-2.1-0.4-2.7c-0.6-0.5-1.5-0.4-2.3-0.2c-0.5,0.1-1,0.2-1.6,0.2c-3.4,0.5-6.8,0.9-10.2,1c-3.4,0.1-6.8-0.2-10.2-0.6
		c-0.8-0.1-1.7-0.2-2.3,0.4c-0.7,0.6-0.5,1.8-0.2,2.7c1,3.1,2.7,6,5.1,8.2c2.4,2.1,5.6,3.3,8.7,3.1c0,0,0,0,0,0
		c3.2,0.1,6.3-1.4,8.6-3.6C190.3,155.9,191.8,152.8,192.6,149.7z M199,124.9c0-2.3-1.3-4.1-2.8-4.1c-1.5,0-2.8,1.9-2.8,4.1
		c0,2.3,1.3,4.1,2.8,4.1C197.7,129.1,199,127.2,199,124.9z M213.5,138.2c0-3.9-3.1-7-7-7c-3.9,0-7,3.1-7,7c0,3.9,3.1,7,7,7
		C210.4,145.3,213.5,142.1,213.5,138.2z M163.2,175.6C163.2,175.6,163.2,175.6,163.2,175.6c-2.4-1.3-4.6-2.8-6.7-4.6
		c-6.7-5.8-11.3-13.8-14.2-22.2c-0.4-1.2-0.8-2.4-1.1-3.6c-2-6.6-3.1-13.4-4.1-20.2c0.1-0.1,0.2-0.1,0.3-0.2
		c12.2-9.6,20.8-23.8,23.6-39c3.1,7.3,8,14.1,15,17.7c1.6,0.8,3.3,1.4,5,1.3c1.7-0.1,3.5-1.1,4.2-2.7c0.2-0.6,0.3-1.3,0.1-2
		c5.2,4.9,12.2,8,19.9,8.9c3.9,6,8.7,11.3,14.3,15.8c0.1,0.1,0.2,0.1,0.3,0.2c-1,6.8-2.1,13.6-4.1,20.2c-0.4,1.2-0.7,2.4-1.2,3.6
		c-2.9,8.4-7.5,16.4-14.2,22.2c-2,1.8-4.3,3.3-6.7,4.6c-0.1,0-0.1,0-0.2,0c0,0,0,0.1,0,0.1c-4.6,2.4-9.8,3.8-15,3.7
		C173.1,179.6,167.9,178.1,163.2,175.6z M194.4,106.6c-1.5-0.4-3.1-0.7-4.6-0.2c-0.3,0.1-0.5,0.2-0.7,0.4c-0.2,0.2-0.3,0.5-0.2,0.8
		c0.1,0.3,0.3,0.4,0.6,0.5c0.7,0.3,1.5,0.4,2.3,0.5c1.6,0.2,3.1,0.6,4.6,1.1c1.4,0.5,2.6,1.1,3.9,1.8c0.3,0.2,1,0.6,1.3,0.2
		c0.4-0.4-0.2-1.1-0.5-1.4C199.3,108.4,196.8,107.3,194.4,106.6z"/>
	<path class="st5" d="M163.2,180.6c4.7,2.5,9.9,3.9,15.2,3.8c5.2,0.1,10.4-1.3,15-3.7c0,0,0-0.1,0-0.1c0.1,0,0.1,0,0.2,0
		c0,0,0.1,0,0.1-0.1c-0.3-1.6-0.4-3.1-0.3-4.8c-4.6,2.4-9.8,3.8-15,3.7c-5.3,0.1-10.5-1.3-15.2-3.8c0,0,0,0,0,0
		c-0.1,1.6-0.3,3.1-0.6,4.6C162.8,180.3,163,180.4,163.2,180.6C163.2,180.6,163.2,180.6,163.2,180.6z"/>
	<path class="st17" d="M193.7,180.5c0,0-0.1,0-0.1,0.1c-0.1,0-0.1,0-0.2,0c0,0,0,0.1,0,0.1c-4.6,2.4-9.8,3.8-15,3.7
		c-5.3,0.1-10.5-1.3-15.2-3.8c0,0,0,0,0,0c-0.2-0.1-0.4-0.2-0.6-0.3c-1.1,5.2-4.1,9.7-12.2,13.4c2,5.2,4.1,10.4,7.3,15
		c3.5,5,8.5,9.3,14.4,10.8c8.1,2,16.9-1.7,22.6-7.9c4.9-5.3,7.7-12.2,9.2-19.3C197.4,188.8,194.6,184.8,193.7,180.5z"/>
	<path class="st18" d="M222.2,334.9c0.2-0.3,0.4-0.6,0.9-0.7c0.1,0,0.2,0.1,0.2,0.1c-0.2,0.5,0.1,0.8,0.3,1.2
		c0.1,0.2,0.2,0.2,0.4,0.1c0,0,0.1,0,0.1,0c0.2,0,0.4,0.2,0.4,0.3c0,0.1,0,0.2-0.1,0.3c-0.2,0.3-0.2,0.5,0.1,0.7
		c0.2,0.2,0.1,0.4-0.1,0.5c-0.2,0.1-0.3,0.2-0.5,0.2c-0.2,0.1-0.4-0.1-0.4-0.3c0.1-0.8-0.4-1.3-0.8-1.8
		C222.5,335.3,222.3,335.1,222.2,334.9L222.2,334.9z"/>
	<path class="st18" d="M212.2,330.5C212.2,330.5,212.2,330.6,212.2,330.5c-0.1,0.1-0.3,0.1-0.3,0.1c-0.1-0.1-0.2-0.3-0.3-0.5
		c0-0.1,0-0.3,0.1-0.3c0.1,0,0.2,0,0.2,0.1C212.2,330.1,212.3,330.3,212.2,330.5z"/>
	<path class="st18" d="M228.9,338.2c0,0,0,0.1,0,0.1c-0.1,0.1-0.2,0.2-0.4,0.2c-0.1,0-0.1-0.1-0.2-0.1c-0.1-0.1,0-0.2,0.1-0.3
		C228.6,338.1,228.7,338,228.9,338.2C228.9,338.1,228.9,338.2,228.9,338.2z"/>
	<path class="st18" d="M210,327.6C210,327.6,210,327.7,210,327.6c-0.3,0.3-0.5,0.2-0.6,0c0,0,0-0.1,0-0.1
		C209.5,327.4,209.8,327.4,210,327.6C210,327.5,210,327.6,210,327.6z"/>
	<path class="st18" d="M231.8,339.6c-0.2,0-0.3-0.1-0.3-0.2c0-0.1,0.2-0.2,0.3-0.2c0.1,0,0.2,0.1,0.2,0.2
		C232,339.5,231.9,339.6,231.8,339.6z"/>
	<path class="st18" d="M63.4,225.1c0-0.1,0-0.1,0.1-0.2c0,0,0.2,0,0.2,0.1c0,0.1,0,0.1-0.1,0.2C63.5,225.1,63.5,225.1,63.4,225.1z"
		/>
	<path class="st18" d="M64.8,223.6c-0.1,0-0.1,0.1-0.2,0.1c-0.1,0-0.2-0.1-0.1-0.2c0,0,0.1,0,0.2-0.1
		C64.8,223.4,64.8,223.5,64.8,223.6z"/>
	<path class="st18" d="M229.6,337.9c0,0,0.1-0.1,0.1-0.1c0.1,0,0.2,0.1,0.2,0.2c0,0-0.1,0.1-0.2,0.1
		C229.7,338,229.7,337.9,229.6,337.9z"/>
	<path class="st18" d="M221.2,337C221.1,337,221.1,337,221.2,337c-0.1,0-0.1,0-0.2,0c0,0,0,0,0-0.1C221.1,336.9,221.1,337,221.2,337
		z"/>
	<path class="st18" d="M211.9,327.9c-0.1,0-0.1-0.1-0.2-0.1c0,0,0.1-0.1,0.1-0.1c0,0,0.1,0,0.1,0.1C212,327.8,212,327.8,211.9,327.9
		z"/>
	<path class="st18" d="M211,327.6c0,0-0.1,0.1-0.1,0.1c-0.1,0-0.2-0.1-0.1-0.2c0,0,0.1-0.1,0.2-0.1C211,327.5,211,327.6,211,327.6z"
		/>
	<path class="st18" d="M217.5,334.8C217.5,334.8,217.5,334.8,217.5,334.8C217.5,335,217.4,335,217.5,334.8
		C217.4,334.8,217.4,334.8,217.5,334.8z"/>
	<path class="st18" d="M231.8,337.9C231.8,337.9,231.8,337.9,231.8,337.9c-0.1,0-0.1,0-0.1,0C231.8,337.7,231.8,337.7,231.8,337.9z"
		/>
	<path class="st18" d="M230.8,337.8c-0.1,0-0.1-0.1-0.2-0.1c0,0,0.1-0.1,0.1-0.1C230.7,337.7,230.8,337.7,230.8,337.8
		C230.8,337.8,230.8,337.8,230.8,337.8z"/>
	<path class="st19" d="M221.8,165.1C221.8,165.1,221.8,165.1,221.8,165.1c-0.1-0.1-0.1-0.1-0.1-0.1
		C221.7,165.1,221.7,165.1,221.8,165.1C221.8,165.2,221.8,165.1,221.8,165.1z M221.2,166.5c0,0.1-0.1,0.1-0.1,0.2
		c0,0,0.1,0.1,0.1,0.1c0.1,0,0.1-0.1,0.2-0.1C221.3,166.6,221.2,166.5,221.2,166.5z M229.4,166.9c0,0,0-0.1,0-0.1
		c-0.1-0.1-0.1-0.2-0.2-0.2c0,0.1-0.1,0.1-0.1,0.2c0,0.1-0.1,0.1-0.1,0.2c0,0.1,0.1,0.1,0.1,0.2c0,0,0.1,0,0.2,0
		C229.4,167.1,229.4,167,229.4,166.9z M216.4,166.4c0,0.1,0.1,0.2,0.1,0.2c0.1,0,0.2,0,0.3-0.1c0.1-0.1,0.1-0.2,0.1-0.3
		c-0.1-0.1-0.1-0.2-0.2-0.2c-0.1-0.1-0.2,0-0.2,0.1C216.4,166.2,216.4,166.3,216.4,166.4z M207.1,166.5c0.1,0,0.1,0,0.2,0.1
		c0.1,0,0.2-0.1,0.2-0.2c-0.1-0.1-0.1-0.3-0.2-0.4c-0.1-0.1-0.2-0.1-0.3,0c-0.1,0.1-0.2,0.2-0.4,0.2c-0.3,0.1-0.3,0.1-0.2,0.4
		c0,0.1,0,0.2,0.1,0.2c0,0,0.2,0,0.2,0C206.7,166.5,206.9,166.4,207.1,166.5z M207.9,167.9c0,0.4,0,0.7,0,1c0,0.1,0.2,0.2,0.4,0.2
		c0.2-0.2,0.4-0.3,0.6-0.5c0.2-0.3,0.4-0.6,0.6-0.9c0.1-0.1,0.2-0.1,0.3-0.1c0.1,0,0.3,0,0.4,0c0,0,0.1,0,0.1,0c0-0.1,0-0.2-0.1-0.2
		c-0.3-0.3-0.5-0.3-0.9-0.1c-0.3,0.2-0.5,0.2-0.7-0.1c0-0.1-0.1-0.1-0.1-0.2c0,0-0.2-0.1-0.2-0.1c-0.2,0.2-0.4,0.2-0.7,0.2
		c0,0,0,0.1-0.1,0.1c0,0,0,0.1,0,0.1c0.1,0.1,0.2,0.1,0.3,0.1c0.1,0.1,0.1,0.3,0,0.4C207.9,167.9,207.9,167.9,207.9,167.9z
		 M222.5,165.5L222.5,165.5L222.5,165.5c0.1,0.1,0.1,0.3,0.1,0.4c0,0.1,0.2,0.1,0.2,0c0.1-0.2,0.2-0.4,0.5-0.3c0.1,0,0.2,0,0.2,0
		c0.1,0,0.1-0.1,0.1-0.1c0,0,0-0.1,0-0.1c-0.1-0.1-0.3-0.2-0.4-0.3c-0.1-0.1-0.2,0-0.3,0.1C222.9,165.3,222.7,165.4,222.5,165.5z
		 M206.7,169.6c0.2-0.1,0.2-0.3,0.2-0.5c0-0.1,0-0.2-0.1-0.3c0,0-0.1,0-0.1,0c0,0.1,0,0.1,0,0.2
		C206.6,169.2,206.6,169.4,206.7,169.6L206.7,169.6L206.7,169.6z M223.9,168.2L223.9,168.2c0-0.1-0.1-0.2-0.1-0.3
		c0-0.1-0.1-0.1-0.2-0.1c0,0-0.1,0-0.1,0c-0.1,0.1-0.1,0.2,0,0.3C223.6,168.2,223.8,168.2,223.9,168.2z M218.7,168.9L218.7,168.9
		L218.7,168.9c0,0,0.1,0.1,0.1,0.1c0,0,0.1,0,0.1,0C218.8,168.9,218.7,168.9,218.7,168.9z M212.8,167.8c0.1,0,0.1,0,0.2,0
		c0,0,0,0,0-0.1C212.9,167.6,212.8,167.7,212.8,167.8L212.8,167.8L212.8,167.8z M222.3,167.6L222.3,167.6L222.3,167.6
		C222.3,167.6,222.3,167.6,222.3,167.6C222.3,167.6,222.3,167.6,222.3,167.6z M207.1,168.2L207.1,168.2L207.1,168.2L207.1,168.2z
		 M205.5,168L205.5,168L205.5,168L205.5,168L205.5,168z M230,168L230,168L230,168L230,168L230,168z M211.2,166.7c0-0.1,0-0.2,0-0.3
		c0-0.2,0.2-0.3,0.3-0.2c0.1,0,0.2,0.1,0.3,0.2c0.3,0.3,0.5,0.2,0.8,0c0.1-0.1,0.3-0.2,0.5-0.3c0.2-0.1,0.3-0.1,0.5-0.1
		c0.2,0.1,0.2,0.3,0.3,0.4c0,0,0,0.1,0.1,0.1c0,0,0.1,0,0.1,0c0.1-0.4,0.3-0.7,0.5-1c0.1-0.2,0-0.4,0-0.5c0-0.3,0.3-0.5,0.5-0.4
		c0.1,0,0.2,0.1,0.2,0.1c0,0.4,0.3,0.8,0.2,1.2c0,0.2,0.2,0.2,0.3,0.3c0.1,0.1,0.3,0,0.2-0.1c-0.1-0.4,0.1-0.6,0.4-0.7
		c0.2,0,0.4,0,0.6-0.1c0,0,0.1,0,0.1,0c0.1,0,0.1,0.1,0.1,0.2c0,0.2,0,0.5,0.2,0.6c0.1,0.5,0.1,1-0.2,1.5c-0.1,0.1,0.1,0.3,0.2,0.3
		c0.2,0,0.4-0.1,0.5-0.3c0,0,0-0.1,0-0.1c-0.1-0.4,0.1-0.5,0.4-0.7c0.2-0.1,0.4-0.1,0.5,0c0,0,0.1,0.1,0.1,0.1
		c0.4,0.2,0.8,0.1,0.9-0.3c0.2-0.5,0.6-0.9,1-1.3c0.1-0.1,0.1-0.3,0.1-0.3c-0.1,0-0.1-0.1-0.2-0.1c-0.3,0-0.7-0.1-1-0.3
		c-0.3-0.2-0.4-0.4-0.5-0.7c0-0.2,0.1-0.4,0.3-0.4c0.1,0,0.3,0,0.4-0.1c0.4,0,0.8,0,1.1-0.1c0.3-0.1,0.6-0.1,0.8,0.2
		c0.3,0.3,0.7,0.4,1.1,0.6c0.3,0.2,0.7,0.2,1.1,0.3c0.2,0,0.3,0.1,0.4,0.4c0,0.5,0,0.9-0.3,1.2c-0.1,0.1,0,0.2,0.1,0.2
		c0,0,0.1,0,0.1,0c0.1,0.1,0.2,0.1,0.1,0.3c0,0.1-0.1,0.3,0,0.3c0.2,0.3,0.3,0.7,0.5,1c0.1,0.1,0.3,0.2,0.4,0
		c0.1-0.1,0.1-0.3,0.2-0.4c0.2-0.3,0.4-0.6,0.9-0.6c0.2,0,0.4,0,0.5-0.1c0.4-0.2,0.8-0.2,1.1,0.2c0,0,0.1,0,0.1,0
		c0,0,0.1-0.1,0.1-0.1c0-0.3-0.1-0.6-0.1-0.9c0-0.4-0.1-0.6-0.5-0.7c-0.1,0-0.1-0.1-0.2-0.1c0-0.1-0.1-0.2-0.1-0.2
		c0-0.1,0.1-0.2,0.2-0.2c0.3,0,0.5,0,0.8,0c0.1,0,0.2,0.1,0.2,0.1c0.1,0.3,0.3,0.5,0.5,0.7c0,0,0.1,0.1,0.1,0.2
		c0,0.1,0.1,0.2,0.2,0.2c0.3,0.1,0.7,0.3,1,0.4c0.2,0.1,0.3,0.2,0.5,0.3c0.2,0.1,0.2,0.3,0.2,0.5c0,0.2-0.1,0.4-0.2,0.5
		c-0.6,1.6-1.3,3.1-2.3,4.5c-0.4,0.6-0.9,1.2-1.5,1.7c-0.8,0.7-1.7,1.1-2.7,1.3c-1.1,0.2-2-0.1-2.9-0.8c-0.6-0.5-0.9-1.2-1-2
		c0-0.1-0.1-0.1-0.1-0.1c0,0-0.1,0-0.1,0c-0.1,0.1-0.2,0.2-0.2,0.3c-0.2,0.2-0.3,0.4-0.4,0.7c-0.5,0.8-1.2,1.5-1.9,2.1
		c-0.9,0.8-2,1.3-3.1,1.4c-1,0.1-1.9-0.1-2.7-0.5c-0.4-0.2-0.6-0.5-0.9-0.8c-0.1-0.1-0.3-0.1-0.4,0c-0.2,0.1-0.3,0.2-0.4,0.3
		c-1.2,0.9-2.5,1.3-4,1.3c-1.5,0-2.8-0.5-4-1.4c-0.4-0.3-0.7-0.8-1.2-1c-0.5,0.2-0.9,0.4-1.4,0.7c-1.5,0.7-3,0.9-4.6,0.8
		c-0.1,0-0.3,0-0.4-0.1c-0.1,0-0.1-0.1-0.1-0.2c0-0.1,0-0.2,0-0.2c0.2-0.2,0.5-0.3,0.8-0.5c3.6-2.1,6.7-4.7,9.4-7.9
		c0.7-0.8,1.3-1.6,2-2.4c0.1-0.2,0.4-0.2,0.6-0.1c0.1,0.1,0.2,0.2,0.3,0.3c0.2,0.2,0.3,0.3,0.6,0.3c0.1,0,0.3,0,0.4,0.1
		c0.5,0.5,1.1,0.6,1.8,0.6C210.7,166.2,211,166.3,211.2,166.7c0,0.1,0,0.3,0,0.5c-0.2,0.2-0.4,0.5-0.7,0.7c0,0,0,0.1,0,0.1
		c0,0,0.1,0,0.1,0c0.1,0,0.3,0,0.4-0.1c0.1,0,0.2-0.2,0.2-0.3c0-0.1,0-0.3-0.1-0.4C211.4,166.8,211.4,166.8,211.2,166.7z"/>
	<path class="st19" d="M151.2,170.2L151.2,170.2l0.1,0L151.2,170.2z M142.4,168.4C142.4,168.4,142.4,168.4,142.4,168.4
		c-0.1-0.1-0.2-0.2-0.2-0.2c0,0.1-0.1,0.1-0.1,0.2c0,0.1,0.1,0.2,0.2,0.2C142.3,168.6,142.4,168.5,142.4,168.4z M133.4,168.3
		c0-0.1-0.1-0.2-0.1-0.2c0,0-0.1,0-0.1,0c-0.1,0.1-0.1,0.2,0,0.3C133.1,168.3,133.2,168.3,133.4,168.3
		C133.3,168.4,133.3,168.3,133.4,168.3z M135.9,169.1c-0.1,0-0.1-0.1-0.2-0.1c-0.1,0-0.2,0.1-0.2,0.2c0,0,0,0.1,0.1,0.1
		c0.1,0,0.2,0,0.3-0.1C135.9,169.2,135.9,169.2,135.9,169.1z M136,165.2C136,165.2,136,165.2,136,165.2c0,0.2,0.1,0.4,0.2,0.5
		c0,0,0.1,0,0.1,0.1c0-0.1,0.1-0.1,0-0.2C136.4,165.3,136.2,165.2,136,165.2z M145.4,165.9c0-0.2,0-0.3-0.3-0.4c0,0-0.1,0-0.1,0
		c-0.1,0-0.1,0.1-0.1,0.2C145.1,165.7,145.2,165.8,145.4,165.9C145.4,165.9,145.4,165.9,145.4,165.9z M144.6,167.6
		C144.6,167.6,144.6,167.5,144.6,167.6c0-0.1-0.1-0.2-0.1-0.2c-0.3,0.1-0.6,0.1-0.9,0.2c0,0,0,0.1,0,0.1c0,0,0,0.1,0,0.1
		C143.9,167.8,144.2,167.7,144.6,167.6C144.5,167.7,144.5,167.6,144.6,167.6z M134.7,167.6c0.2-0.1,0.5,0,0.8-0.2c0,0,0-0.1,0-0.1
		c0,0,0-0.1-0.1-0.1c-0.3,0.1-0.7,0.1-1,0.1c0,0,0,0.1-0.1,0.1C134.3,167.5,134.5,167.6,134.7,167.6z M147.9,167.3
		c0.3,0,0.6-0.1,0.8-0.4c0,0,0-0.1,0-0.1c-0.2-0.1-0.3,0-0.4,0.1c-0.3,0.2-0.5,0.3-0.9,0.2c-0.1,0-0.1,0-0.1,0.1
		c0,0,0.1,0.1,0.1,0.1C147.6,167.3,147.7,167.3,147.9,167.3z M137.6,166c-0.3,0.2-0.4,0.6-0.8,0.5c0,0-0.1,0-0.1,0
		c0,0,0,0.1,0.1,0.1c0.2,0.1,0.3,0.3,0.3,0.6c0,0.3,0.4,0.6,0.5,0.9c0,0,0.1,0,0.2,0c0.2-0.1,0.3-0.4,0.1-0.6
		c-0.1-0.1-0.2-0.2-0.4-0.3c0,0,0-0.1,0-0.1c0-0.1,0.1-0.1,0.1-0.1c0.4,0.1,0.9,0.3,1.3,0.4c0.1,0,0.1,0.2,0.2,0.3
		c0,0.1,0,0.1,0.1,0.2c0,0,0.1,0,0.1,0c0,0,0.1,0,0.1-0.1c0.1-0.4-0.1-0.8,0.2-1.1c0,0,0-0.1-0.1-0.1c0,0-0.1,0-0.1,0
		c-0.1,0.1-0.3,0.1-0.4,0.2c-0.2,0.1-0.4,0.1-0.7,0c-0.1-0.1-0.2-0.1-0.3-0.1C137.7,166.6,137.6,166.3,137.6,166
		c0-0.1,0.1-0.1,0.1-0.2c0,0,0-0.1,0-0.1C137.6,165.8,137.6,165.9,137.6,166z M127.2,167.6L127.2,167.6c0,0.1,0,0.2,0,0.3
		c0,0.2,0.1,0.2,0.3,0.1c0.1-0.1,0.3-0.1,0.4-0.1c0.1,0,0.2,0.1,0.3,0.1c0.1,0,0.1,0,0.2-0.1c0,0,0-0.1,0-0.1
		c-0.1-0.1-0.1-0.3-0.2-0.4c-0.1-0.2-0.3-0.3-0.4-0.1C127.7,167.6,127.4,167.6,127.2,167.6z M140.2,168.7c0,0.1,0.1,0.1,0.1,0.1
		c0,0,0.1,0,0.1,0C140.4,168.7,140.2,168.7,140.2,168.7c0-0.2,0-0.4-0.1-0.5c0,0-0.1-0.1-0.2,0c0,0-0.1,0.1-0.1,0.2
		C139.9,168.5,140,168.6,140.2,168.7z M128.4,168.7c0.1,0,0.2,0.1,0.3,0.1c0.1,0,0.1,0,0.2,0c0-0.1-0.1-0.1-0.1-0.2
		C128.6,168.6,128.5,168.6,128.4,168.7L128.4,168.7L128.4,168.7z M146.6,166.2c-0.1,0.1-0.1,0.1-0.2,0.2c0,0,0,0.1,0,0.2
		c0,0,0.1-0.1,0.1-0.1C146.6,166.4,146.6,166.3,146.6,166.2c0-0.1,0.1-0.1,0.1-0.2c0,0,0-0.1,0-0.1
		C146.7,166,146.7,166.1,146.6,166.2z M137.4,169.9L137.4,169.9c-0.1,0-0.1-0.1-0.2-0.1c0,0,0,0,0,0.1
		C137.3,169.9,137.3,169.9,137.4,169.9z M147.3,168.3C147.3,168.4,147.4,168.4,147.3,168.3C147.4,168.3,147.3,168.3,147.3,168.3
		c0-0.1-0.1-0.1-0.1-0.2c0,0,0,0-0.1,0C147.2,168.2,147.3,168.2,147.3,168.3z M134.2,170.4L134.2,170.4L134.2,170.4L134.2,170.4z
		 M148.7,168.3C148.6,168.3,148.6,168.3,148.7,168.3C148.7,168.4,148.7,168.3,148.7,168.3C148.7,168.3,148.8,168.2,148.7,168.3
		c0.1-0.1,0-0.2,0-0.2l0,0l0.1,0C148.7,168.1,148.7,168.2,148.7,168.3z M147.4,165.5c0,0.1,0,0.2,0,0.2c0.1,0.3,0.3,0.4,0.5,0.3
		c0.2,0,0.4-0.1,0.6-0.2c0.3-0.1,0.4,0,0.6,0.2c0.2,0.2,0.3,0.5,0.2,0.7c0,0,0,0.1,0,0.1c0,0.1,0.1,0.1,0.2,0
		c0.3-0.2,0.6-0.2,0.9-0.5c0.1-0.1,0.3,0,0.4,0.1c0.2,0.2,0.3,0.4,0.5,0.6c0.1,0.1,0,0.3-0.1,0.3c-0.1,0-0.2,0-0.2,0
		c-0.1,0-0.1-0.1-0.1-0.2c-0.1-0.2-0.3-0.3-0.5-0.2c-0.1,0-0.3,0.1-0.4,0.2c0,0,0,0.1-0.1,0.1c0,0.1,0,0.1,0.1,0.2
		c0.1,0,0.2,0,0.3,0.1c0.2,0.1,0.4,0.2,0.6,0.3c0.4,0.2,0.7,0.1,1.1-0.1c0.1-0.1,0.1-0.2,0.1-0.3c0-0.1,0-0.3,0-0.5
		c0-0.1,0.2-0.3,0.3-0.3c0.1,0,0.2,0.1,0.3,0.1c0.1,0.1,0.1,0.2,0.2,0.3c0.1,0.1,0.1,0.2,0.1,0.3c0.4,0.3,0.7,0.6,1,1
		c0.4,0.2,0.7,0.5,1,0.8c2.4,2.4,4.9,4.4,7.8,6.1c0.2,0.1,0.4,0.2,0.6,0.4c0.1,0,0.1,0.2,0.1,0.2c-0.1,0.1-0.1,0.2-0.2,0.2
		c-0.1,0-0.2,0.1-0.3,0.1c-1.7,0.1-3.3-0.2-4.8-0.9c-0.2-0.1-0.4-0.2-0.6-0.3c-0.9-0.5-0.7-0.5-1.4,0.2c-0.9,0.8-1.9,1.4-3.1,1.7
		c-1.8,0.4-3.4,0.1-5-0.8c-0.4-0.2-0.7-0.5-1-0.7c-0.1-0.1-0.3-0.1-0.4,0c-0.1,0.1-0.2,0.2-0.3,0.2c-1,1.1-2.3,1.3-3.7,1.1
		c-1.3-0.2-2.3-0.8-3.2-1.6c-0.7-0.6-1.3-1.4-1.8-2.1c-0.2-0.2-0.4-0.5-0.5-0.7c0,0-0.1,0-0.1,0c0,0-0.1,0-0.1,0.1
		c-0.1,0.3-0.1,0.5-0.2,0.8c-0.4,1-1.1,1.7-2.2,2c-1.2,0.3-2.4,0-3.4-0.6c-0.9-0.5-1.6-1.2-2.2-2c-1.1-1.5-1.9-3.2-2.6-5
		c-0.1-0.2-0.1-0.4,0-0.6c0.1-0.2,0.1-0.3-0.1-0.4c-0.6-0.4-0.6-1-0.7-1.6c0-0.1,0.2-0.2,0.2-0.2c0.4,0.1,0.7,0.3,1.1,0.3
		c0.6,0.1,0.9,0.3,1.1,0.8c0,0.1,0.2,0.2,0.3,0.3c0.2,0.2,0.3,0.3,0.5,0.5c0.1,0.1,0.2,0.2,0.4,0.2c0.2,0,0.3,0,0.4,0.1
		c0.6,0.3,0.6,0.3,0.9,1.1c0.1,0.1,0.1,0.3,0.2,0.4c0,0,0.1,0.1,0.2,0.1c0.2,0,0.4-0.3,0.4-0.5c0-0.1-0.1-0.2-0.2-0.2
		c-0.1,0-0.3-0.1-0.4-0.2c-0.1-0.3-0.1-0.5,0.1-0.8c0.1-0.2,0.4-0.2,0.6-0.1c0.1,0.1,0.2,0.3,0.3,0.5c0.2,0.3,0.4,0.3,0.7,0.1
		c0.2-0.2,0.4-0.3,0.6-0.2c0.4,0.2,0.8,0.1,1.2-0.1c0.4-0.2,0.9-0.4,1.4-0.5c0.2,0,0.2-0.2,0.1-0.3c-0.1-0.1-0.2-0.2-0.2-0.3
		c-0.1-0.1-0.2-0.2-0.3-0.4c-0.1-0.2,0-0.5-0.2-0.6c-0.2-0.1-0.4-0.2-0.6-0.3c-0.2-0.2-0.5-0.2-0.9-0.1c-0.2,0-0.3-0.1-0.2-0.3
		c0.1-0.4,0.3-0.6,0.6-0.5c0.2,0,0.4,0,0.6,0.1c0.2,0.1,0.4,0,0.5,0c0.2-0.1,0.3,0,0.4,0.1c0.2,0.2,0.3,0.4,0.5,0.6
		c0.4,0.3,0.7,0.6,1.3,0.7c0.4,0.1,0.8,0.3,1.2,0.4l0,0c0,0.2,0.1,0.4,0.3,0.4c0.2,0,0.4,0.1,0.7,0.1c0.2,0,0.4-0.1,0.5,0
		c0.3,0.2,0.4,0.4,0.4,0.8c0,0.1,0.1,0.2,0.2,0.2c0.2-0.1,0.4-0.1,0.5-0.2c0.1,0,0.1-0.1,0.2-0.1c0.3-0.2,0.5,0,0.6,0.4
		c0,0,0,0.1,0,0.1c-0.4-0.1-0.7,0.2-1,0.3c0,0-0.1,0.1-0.1,0.1c0,0.1,0.1,0.1,0.1,0.2c0.1,0,0.2,0.1,0.3,0c0.2-0.2,0.4-0.4,0.7-0.6
		c0.2,0,0.3,0,0.4,0.1c0.2,0.3,0.5,0.3,0.8,0.1c0.5-0.3,0.9-0.5,1.5-0.6c0.1,0,0.2-0.2,0.1-0.3c-0.1-0.1-0.1-0.2-0.2-0.3
		c-0.3-0.2-0.4-0.5-0.4-0.8c0-0.1-0.1-0.2-0.2-0.3c-0.2-0.1-0.5-0.3-0.7-0.4c-0.2-0.1-0.5-0.1-0.8-0.1c-0.1,0-0.1-0.1-0.1-0.1
		c0-0.4,0.2-0.7,0.6-0.7c0.1,0,0.2,0,0.3,0c0.2,0,0.3,0.3,0.5,0.2c0.1,0,0.3-0.2,0.4-0.2c0.1,0,0.2,0,0.3,0.1
		c0.2,0.2,0.4,0.5,0.6,0.7c0.4,0.3,0.7,0.5,1.2,0.6C146.5,165.2,146.9,165.3,147.4,165.5L147.4,165.5z"/>
	<path class="st19" d="M227.8,165.2c-0.1,0-0.2,0.1-0.2,0.1c-0.2-0.1-0.5-0.2-0.7-0.4c-0.1-0.1-0.2-0.3-0.1-0.4
		c0.1-0.2,0.3-0.3,0.5-0.2C227.7,164.5,227.8,164.8,227.8,165.2z"/>
	<path class="st19" d="M225.5,164.9c0-0.2,0-0.3,0-0.4c0,0,0.2-0.1,0.2-0.1c0.1,0.1,0.3,0.2,0.4,0.4c0.2,0.2,0,0.6-0.3,0.7
		c-0.1,0-0.3,0-0.3-0.1C225.6,165.2,225.6,165,225.5,164.9z"/>
	<path class="st19" d="M130,165.6c0,0.3-0.1,0.5-0.4,0.7c0,0-0.1,0-0.1,0c0,0-0.1,0-0.1-0.1c-0.1-0.3,0-0.6,0.3-0.7
		C129.8,165.5,129.9,165.6,130,165.6z"/>
	<path class="st19" d="M231.9,165.1c0,0.1,0,0.2-0.1,0.2c-0.2,0.1-0.4,0.1-0.6-0.1c0,0-0.1-0.1-0.1-0.2c0-0.1,0.1-0.2,0.2-0.2
		C231.6,164.9,231.7,164.9,231.9,165.1C231.9,165,231.9,165.1,231.9,165.1z"/>
	<path class="st19" d="M134.2,165.9c-0.1,0.1-0.1,0.2-0.2,0.2c-0.1,0.1-0.3-0.1-0.3-0.3c0-0.1,0.2-0.3,0.3-0.2
		C134.1,165.6,134.2,165.8,134.2,165.9z"/>
	<path class="st19" d="M143.2,166.1c0,0.1-0.1,0.2-0.1,0.2c-0.1,0.1-0.3-0.1-0.3-0.3c0-0.1,0.1-0.2,0.2-0.2
		C143.1,165.8,143.2,166,143.2,166.1z"/>
	<path class="st19" d="M219.5,161.2c0.1,0,0.2,0,0.3,0c0,0,0.1,0.1,0,0.2c0,0-0.1,0.1-0.2,0.1C219.6,161.4,219.5,161.3,219.5,161.2z
		"/>
	<path class="st19" d="M125.7,162.6c-0.1,0-0.1,0.1-0.2,0.1c-0.1,0-0.2-0.1-0.1-0.2c0-0.1,0.1-0.1,0.2-0.1
		C125.6,162.5,125.7,162.6,125.7,162.6z"/>
	<path class="st19" d="M219.8,165.8c0,0-0.1,0.1-0.1,0.1c-0.1,0-0.1,0-0.1-0.1C219.6,165.7,219.7,165.7,219.8,165.8
		C219.7,165.7,219.8,165.7,219.8,165.8z"/>
	<path class="st19" d="M225.7,166c0,0,0.1,0.1,0.1,0.1c-0.1,0-0.1,0.1-0.2,0.1c0,0-0.1-0.1-0.1-0.1
		C225.6,166.1,225.7,166.1,225.7,166z"/>
	<path class="st19" d="M132,166.7C132,166.7,132,166.8,132,166.7c-0.1,0.1-0.1,0.1-0.1,0C131.9,166.7,131.9,166.6,132,166.7
		C132,166.7,132,166.7,132,166.7z"/>
	<path class="st19" d="M227.8,163.7L227.8,163.7L227.8,163.7L227.8,163.7z"/>
	<path class="st19" d="M210.7,163.8C210.6,163.8,210.6,163.8,210.7,163.8c-0.1,0-0.1,0-0.1-0.1C210.6,163.7,210.6,163.7,210.7,163.8
		C210.6,163.8,210.6,163.8,210.7,163.8z"/>
	<path class="st19" d="M219.5,164.2L219.5,164.2L219.5,164.2L219.5,164.2z"/>
	<path class="st19" d="M138.3,165.3c0,0,0.1-0.1,0.1-0.1C138.4,165.2,138.4,165.2,138.3,165.3L138.3,165.3z"/>
	<path class="st19" d="M147.3,165.5c0,0,0.1-0.1,0.1-0.1C147.4,165.4,147.4,165.5,147.3,165.5L147.3,165.5z"/>
	<path class="st19" d="M208.9,167.7c-0.1,0-0.1,0-0.2,0c0-0.1,0-0.1,0-0.2c0,0,0.1,0,0.1,0C208.9,167.5,208.9,167.6,208.9,167.7z"/>
	<path class="st18" d="M239.5,239.1L239.5,239.1L239.5,239.1L239.5,239.1z"/>
	<path class="st18" d="M175.1,308.8C175.1,308.9,175.1,308.9,175.1,308.8c0,0.1-0.1,0.1-0.1,0.1
		C174.9,308.9,174.9,308.8,175.1,308.8C175,308.8,175.1,308.8,175.1,308.8z"/>
	<path class="st18" d="M184.3,311.4c-0.1,0-0.1,0.1-0.2,0.1c0,0-0.1-0.1-0.1-0.1C184.1,311.3,184.2,311.3,184.3,311.4
		C184.3,311.3,184.3,311.4,184.3,311.4z"/>
	<path class="st18" d="M189.3,315.6C189.2,315.6,189.2,315.6,189.3,315.6c-0.2,0-0.2,0-0.1-0.1C189.1,315.5,189.2,315.5,189.3,315.6
		C189.2,315.5,189.3,315.6,189.3,315.6z"/>
	<path class="st5" d="M243.2,263C243.1,263,243.1,263,243.2,263c-0.2,0-0.2-0.1-0.1-0.1c0,0,0.1,0,0.1,0
		C243.2,262.9,243.2,263,243.2,263z"/>
	<path class="st5" d="M247,265.1L247,265.1L247,265.1L247,265.1z"/>
	<path class="st18" d="M243.7,255.2L243.7,255.2L243.7,255.2L243.7,255.2z"/>
	<path class="st18" d="M202.9,324.2L202.9,324.2L202.9,324.2L202.9,324.2z"/>
	<path class="st18" d="M233.7,224.7L233.7,224.7L233.7,224.7L233.7,224.7z"/>
	<path class="st18" d="M233.7,224.6L233.7,224.6L233.7,224.6L233.7,224.6z"/>
	<path class="st18" d="M230.9,224.5L230.9,224.5L230.9,224.5L230.9,224.5z"/>
	<path class="st18" d="M245.8,271.5c0,0.1,0,0.1,0.1,0.2c-0.1,0-0.1,0-0.2-0.1C245.7,271.6,245.8,271.5,245.8,271.5z"/>
	<path class="st18" d="M139.8,288.8L139.8,288.8L139.8,288.8L139.8,288.8z"/>
	<path class="st5" d="M243.4,267.6c0.1-0.1,0.2-0.2,0.2-0.2c0.1,0,0.3,0,0.4,0.1c0.1,0.1,0.1,0.3,0,0.4
		C243.8,268,243.7,268,243.4,267.6z"/>
	<path class="st18" d="M244,271.6c-0.1,0-0.1,0-0.2,0.1c0-0.1-0.1-0.1-0.1-0.2c0,0,0.1,0,0.2-0.1C244,271.5,244,271.5,244,271.6z"/>
	<path class="st18" d="M230.9,230.9C230.9,230.8,230.8,230.8,230.9,230.9C230.8,230.8,230.8,230.8,230.9,230.9
		C230.8,230.8,230.8,230.8,230.9,230.9C230.8,230.8,230.8,230.8,230.9,230.9z"/>
	<path class="st18" d="M232,233.9c0.1,0,0.1,0,0.2-0.1c0,0,0,0,0,0c0,0,0,0,0,0C232.1,233.8,232.1,233.9,232,233.9z"/>
	<path class="st18" d="M239.8,244.4C239.8,244.4,239.8,244.4,239.8,244.4C239.8,244.5,239.8,244.5,239.8,244.4L239.8,244.4z"/>
	<path class="st18" d="M233.1,254.1c0,0.3,0,0.6,0.1,0.9c0,0,0.1,0.1,0.1,0.1c0,0,0.1-0.1,0.1-0.1c0-0.5,0.1-1.1,0.1-1.6
		c0-0.1,0-0.1,0-0.2l-0.3,0.1C233.1,253.6,233.1,253.9,233.1,254.1z"/>
	<path class="st18" d="M235.2,240.5C235.2,240.5,235.2,240.5,235.2,240.5C235.2,240.5,235.2,240.5,235.2,240.5
		C235.2,240.5,235.2,240.5,235.2,240.5C235.2,240.5,235.2,240.5,235.2,240.5z"/>
	<path class="st18" d="M244.6,270.6C244.7,270.6,244.7,270.6,244.6,270.6L244.6,270.6L244.6,270.6
		C244.7,270.6,244.6,270.6,244.6,270.6z"/>
	<path class="st18" d="M231.7,231.1L231.7,231.1C231.7,231,231.7,231,231.7,231.1C231.7,231,231.7,231,231.7,231.1L231.7,231.1z"/>
	<path class="st5" d="M242.1,268.7C242.1,268.7,242.1,268.7,242.1,268.7C242.1,268.7,242.1,268.7,242.1,268.7
		C242.1,268.7,242.1,268.7,242.1,268.7C242.1,268.7,242.1,268.7,242.1,268.7z"/>
	<path class="st18" d="M242.1,275.6L242.1,275.6C242.1,275.6,242.1,275.6,242.1,275.6C242.1,275.6,242.1,275.6,242.1,275.6
		L242.1,275.6z"/>
	<path class="st18" d="M240.5,256.2L240.5,256.2C240.5,256.2,240.5,256.2,240.5,256.2C240.5,256.2,240.5,256.2,240.5,256.2
		L240.5,256.2z"/>
	<path class="st18" d="M238.2,251.8C238.2,251.8,238.2,251.8,238.2,251.8C238.2,251.8,238.2,251.9,238.2,251.8
		C238.2,251.9,238.2,251.9,238.2,251.8C238.2,251.8,238.2,251.8,238.2,251.8z"/>
	<path class="st18" d="M240.4,279.8C240.5,279.8,240.5,279.8,240.4,279.8C240.5,279.8,240.5,279.8,240.4,279.8
		C240.5,279.8,240.5,279.8,240.4,279.8C240.5,279.8,240.5,279.8,240.4,279.8z"/>
	<path class="st18" d="M240.9,255.3C241,255.3,241,255.3,240.9,255.3C241,255.3,241,255.3,240.9,255.3
		C241,255.3,241,255.3,240.9,255.3C241,255.3,241,255.3,240.9,255.3z"/>
	<path class="st5" d="M242.6,259.2C242.6,259.2,242.6,259.2,242.6,259.2C242.6,259.2,242.6,259.2,242.6,259.2L242.6,259.2z"/>
	<path class="st5" d="M244.4,265.7C244.4,265.7,244.4,265.7,244.4,265.7C244.4,265.7,244.4,265.7,244.4,265.7
		C244.4,265.7,244.4,265.7,244.4,265.7C244.4,265.7,244.4,265.7,244.4,265.7z"/>
	<path class="st18" d="M243.5,279.3C243.5,279.3,243.5,279.3,243.5,279.3C243.5,279.3,243.5,279.3,243.5,279.3
		C243.5,279.3,243.5,279.3,243.5,279.3C243.5,279.3,243.5,279.3,243.5,279.3z"/>
	<path class="st5" d="M61.8,226c0.3,0,0.6-0.2,0.9-0.3c0.4-0.1,0.7,0.3,0.7,0.7c0,0.2-0.1,0.3-0.3,0.3c-0.2,0-0.4,0-0.6,0
		c-0.2,0-0.4-0.2-0.6-0.3C61.9,226.3,61.9,226.2,61.8,226L61.8,226z"/>
	<path class="st5" d="M40.9,233.3c0,0,0.1-0.1,0.1-0.1c0,0.1,0.1,0.1,0.1,0.2c0,0-0.1,0.1-0.1,0.1C41,233.4,40.9,233.3,40.9,233.3z"
		/>
	<path class="st5" d="M62.6,227.8c0,0.1,0,0.1-0.1,0.2c-0.1,0.1-0.1,0-0.2-0.1c0-0.1,0-0.1,0.1-0.2
		C62.5,227.7,62.5,227.8,62.6,227.8z"/>
	<path class="st5" d="M49,232.9C49,232.9,49,232.9,49,232.9c-0.2,0-0.2,0-0.2-0.1C48.9,232.8,48.9,232.8,49,232.9
		C49,232.8,49,232.8,49,232.9z"/>
	<path class="st5" d="M44.6,232.3C44.6,232.3,44.6,232.3,44.6,232.3c0.1,0.1,0.1,0.2,0,0.1C44.5,232.4,44.5,232.4,44.6,232.3
		C44.5,232.3,44.5,232.3,44.6,232.3z"/>
	<path class="st5" d="M61.8,227.4c0.1,0,0.1,0.1,0.2,0.1c0,0,0,0.1,0,0.1c-0.1,0.1-0.1,0.1-0.1,0C61.9,227.6,61.9,227.5,61.8,227.4
		L61.8,227.4z"/>
	<path class="st5" d="M61.8,227.4c-0.1,0-0.1-0.1-0.2-0.1c0,0,0-0.1,0-0.1C61.9,227.2,61.8,227.3,61.8,227.4L61.8,227.4z"/>
	<path class="st5" d="M40,229.6C39.9,229.6,39.9,229.7,40,229.6C39.8,229.6,39.8,229.6,40,229.6C39.9,229.6,40,229.6,40,229.6z"/>
	<path class="st20" d="M182,118.3c-0.4,4.3,0,8.7,1,12.9"/>
</g>
<path class="st17" d="M46.9,194.1c0.1,0.8,0,1.6-0.5,2.3c-0.6,0.7-1.5,1-2.4,1c0,0-0.1,0-0.1,0c-0.9-0.7-1.8-1.1-2.7-1.1h0
	c-0.8-0.5-1.6-1.2-2.2-2c-1.4-2-0.6-4.9,1.8-5.5c1.9-0.4,4.1,1.7,5.1,3.2C46.4,192.6,46.8,193.3,46.9,194.1z"/>
<path class="st17" d="M41.2,203C41.2,203,41.1,203,41.2,203L41.2,203c-0.9-0.4-1.6-1-2.2-1.7c-1.4-1.8-0.6-4.4,1.8-4.9
	c0.1,0,0.3,0,0.4,0h0c0.9,0,1.9,0.4,2.7,1c0.8,0.6,1.6,1.3,2,1.9c0.4,0.6,0.8,1.2,0.9,1.9c0.1,0.7,0,1.5-0.5,2
	c-0.5,0.6-1.2,0.8-2,0.9C43.5,203.3,42.3,202.8,41.2,203z"/>
<path class="st17" d="M39.1,208.6C39.1,208.6,39.1,208.6,39.1,208.6c-1.5-2.1-0.8-4.9,1.9-5.5c0,0,0.1,0,0.1,0
	c1.2-0.2,2.5,0.4,3.6,1.2c0.8,0.6,1.6,1.4,2.1,2c0.5,0.6,0.9,1.4,1,2.1c0.1,0.8,0,1.6-0.5,2.3c-0.6,0.7-1.7,1-2.6,1
	c-0.7,0-1.4-0.3-2-0.5c-0.3-0.1-0.5-0.2-0.8-0.4C40.9,210.2,39.8,209.6,39.1,208.6z"/>
<path class="st3" d="M310,79.1c0,0,0.2-5-4.1-12.6c-4.3-7.6-10-13.4-10-13.4s2.6,0,6.9,4.3c4.3,4.3,6.7,8.4,6.7,8.4
	s0.4-5.2-5.2-14.3c-5.6-9.1-10.2-15.2-10.2-15.2s9.8,4.6,14.5,12.1c4.6,7.4,5.9,11,5.9,11s0-7.8,0-13.6c0-5.8,0.6-14.1,0.6-14.1
	s2.4,6.5,3,14.9c0.6,8.4,0.7,15.2,0.7,15.2s0.2-7.4,2.2-15.2c2-7.8,5.9-15.8,5.9-15.8s0.6,13.6-0.9,21.2c-1.5,7.6-3.3,14.1-3.3,14.1
	s0.7-3,4.1-7.6c3.3-4.6,7.2-7.6,7.2-7.6s-6.5,13-7.2,17.8c-0.7,4.8-1.3,10.6-1.3,10.6"/>
<path class="st4" d="M327.6,109.6v-0.4H306V79.9h21.2v29.7H327.6v-0.4V109.6h0.4V79.5c0-0.1,0-0.2-0.1-0.3c-0.1-0.1-0.2-0.1-0.3-0.1
	h-22c-0.1,0-0.2,0-0.3,0.1c-0.1,0.1-0.1,0.2-0.1,0.3v30.1c0,0.1,0,0.2,0.1,0.3s0.2,0.1,0.3,0.1h22c0.1,0,0.2,0,0.3-0.1
	c0.1-0.1,0.1-0.2,0.1-0.3H327.6z"/>
<path class="st17" d="M89.8,264c3.1-10,6.2-20,9.2-30.1c7.8,2.2,15.6,4.4,23.4,6.6c-0.1,3.5-0.1,6.9,0,10.4c0.1,3.1,0.8,5.9,1.2,8.8
	c-2.4,9.6-5,19.1-8.3,28.4c-2.1,6-4.6,12-8.9,16.8c-4.3,4.7-10.7,8-17,7.1c-5.6-0.8-10.3-4.7-13.4-9.4c-3.1-4.7-4.8-10.1-6.5-15.4
	c-4.3-13.8-7.7-26.1-12.2-39.8c-4.6-13.9-12.1-23.3-17.9-38.9c0.7,0.9,1.7,1.6,2.7,2.1c0.2,0.1,0.5,0.2,0.7,0.4
	c2.4,12.5,6.7,11.1,10.5,10.2l18.5-7.5c0.2,0,0.5,0,0.7,0c0.5-2.5,0.7-2.1,1.9-4.3c0.7-1.2,1.6-2.4,1.8-3.8c0.3-1.7-0.4-3.3-0.7-5
	c-0.5-2.5-0.1-5.2,1.1-7.5c0.4-0.8,1-1.6,1.8-2.1c0.8-0.5,1.9-0.5,2.6,0.1c0.7,0.6,0.8,1.5,1,2.4c0.4,2.7,0.8,5.4,1.2,8.1
	c0.6,4,1.2,8.2,0.7,12.2c-0.3,2.7-1.4,4.6-2.3,7.1c-1,2.8,0.2,6.5,0.3,9.5c0.2,6.7,1.6,13.2,3.4,19.6
	C86.5,254.6,88.1,259.3,89.8,264z"/>
<defs>
	
		<filter id="Adobe_OpacityMaskFilter_00000178170228105843999970000012956135572043779744_" filterUnits="userSpaceOnUse" x="44.1" y="213.6" width="28.8" height="12">
		<feColorMatrix  type="matrix" values="1 0 0 0 0  0 1 0 0 0  0 0 1 0 0  0 0 0 1 0"/>
	</filter>
</defs>
<mask maskUnits="userSpaceOnUse" x="44.1" y="213.6" width="28.8" height="12" id="mask1_36_1199_00000152987242905642258970000016659543956335127172_">
	
		<path style="fill-rule:evenodd;clip-rule:evenodd;fill:#F8B797;filter:url(#Adobe_OpacityMaskFilter_00000178170228105843999970000012956135572043779744_);" d="
		M89.8,264c3.1-10,6.2-20,9.2-30.1c7.8,2.2,15.6,4.4,23.4,6.6c-0.1,3.5-0.1,6.9,0,10.4c0.1,3.1,0.8,5.9,1.2,8.8
		c-2.4,9.6-5,19.1-8.3,28.4c-2.1,6-4.6,12-8.9,16.8c-4.3,4.7-10.7,8-17,7.1c-5.6-0.8-10.3-4.7-13.4-9.4c-3.1-4.7-4.8-10.1-6.5-15.4
		c-4.3-13.8-7.7-26.1-12.2-39.8c-4.6-13.9-12.1-23.3-17.9-38.9c0.7,0.9,1.7,1.6,2.7,2.1c0.2,0.1,0.5,0.2,0.7,0.3
		c2.4,12.5,6.7,11.1,10.5,10.2l18.5-7.5c0.2,0,0.5,0,0.7,0c0.5-2.5,0.7-2.1,1.9-4.3c0.7-1.2,1.6-2.4,1.8-3.8c0.3-1.7-0.4-3.3-0.7-5
		c-0.5-2.5-0.1-5.2,1.1-7.5c0.4-0.8,1-1.6,1.8-2.1c0.8-0.5,1.9-0.5,2.6,0.1c0.7,0.6,0.8,1.5,1,2.4c0.4,2.7,0.8,5.4,1.2,8.1
		c0.6,4,1.2,8.2,0.7,12.2c-0.3,2.7-1.4,4.6-2.3,7.1c-1,2.8,0.2,6.5,0.3,9.5c0.2,6.7,1.6,13.2,3.4,19.6
		C86.5,254.6,88.1,259.3,89.8,264z"/>
</mask>
<g class="st22">
	<path class="st23" d="M47,225.1c2.7,2.7,18.4-6.5,25.9-11.5H44.1C43.9,216.3,44.3,222.4,47,225.1z"/>
</g>
<path class="st16" d="M124.7,233.5c-1.2-0.9-2.4-1.7-3.8-2c-1.7-0.2-3.6,0.7-4,2.5c-0.3,1.7,0.9,3.2,2,4.5c1.5,1.7,3,3.4,4.5,5
	c-0.2,2.6-0.4,5.3-0.6,7.9c0,0.6-0.1,1.2-0.1,1.8c-9.2-2.6-18.5-5.2-27.7-7.9c0.3-0.8,0.5-1.6,0.8-2.5c2.3-7.5,4.6-15,8.2-21.8
	c3.7-6.9,8.8-13.2,15.7-16.9c7.7-4.2,16.4-5.8,24.7-8.3c2.2-0.7,4.1-1.4,5.8-2.2c2,5.2,4.1,10.4,7.3,15c3.5,5,8.5,9.3,14.4,10.8
	c8.1,2,16.9-1.7,22.6-7.9c4.9-5.3,7.7-12.2,9.2-19.3c2,1,4.4,2,7.2,2.9c8.3,2.6,16.9,4.9,24.6,9.2c6.8,3.7,12,10,15.7,16.9
	c3.7,6.9,6,14.4,8.2,21.8c0.1,0.3,0.2,0.7,0.3,1c-8.8,2-17.4,5-25.6,8.9c-0.4-1.4-0.7-2.8-1.1-4.2c0.1,0.9,0.1,1.9,0.2,2.8
	c0.2,4.7,0.3,9.4,0.1,14.1c-0.1,4.1-1.1,7.8-1.6,11.8c-0.5,4-0.9,8.3-1.2,12.3c-1.2-0.3-2.4-0.7-3.6-1.1
	c-20.9-6.9-43.3-10.7-60.2-24.7c-2.1-1.7-3.9-3.7-5.3-6c-1.4-2.3-2.2-5-3.9-7.1c-2.4-2.8-6.1-4.1-9.6-5.3c-3.1-1-6.5-2-9.5-1
	c-4.4-3.5-8.8-7.1-13.2-10.6C125.2,233.8,124.9,233.6,124.7,233.5z"/>
<path class="st17" d="M124.7,233.5c0.2,0.2,0.4,0.3,0.6,0.5c4.4,3.5,8.8,7.1,13.2,10.6c3-1,6.4,0,9.5,1c3.5,1.2,7.2,2.4,9.6,5.3
	c1.8,2.1,2.5,4.8,3.9,7.1c1.4,2.3,3.2,4.3,5.3,6c17,14,39.4,17.8,60.2,24.7c1.2,0.4,2.4,0.8,3.6,1.1c3.3,0.9,6.6,1.6,9.9,1.4
	c0.6-2.1,0.3-4.5,0-6.8c-1.6-10.6-3.7-21.1-6.3-31.6c8.2-3.9,16.8-6.9,25.6-8.9c2.1,6.9,4.2,13.8,6.3,20.7
	c5.5,18,7.6,44.4-11.5,55.3c-7.2,4.1-16.1,4.1-24.4,3.1c-0.1,0-0.2,0-0.3,0c-8.3-1-16.4-3.6-24.2-6.7c-17.8-6.9-31.1-20.2-49.9-25.9
	c-6.5-2-13.2-3-19.4-5.9c-3.6-1.6-7.3-4-8.3-7.8c-0.7-2.9,0.4-6.3-0.9-9c-0.9-1.7-2.7-3-2.8-5c0-1.9,1.7-3.5,1.4-5.4
	c-0.1-0.8-0.6-1.5-1-2.3c-0.6-1.4-0.5-3.1,0.3-4.5c0.6-1.1,1.7-1.9,2.9-2.3c-1.6-1.6-3.1-3.2-4.7-4.8c-1.5-1.6-3-3.3-4.5-5
	c-1.1-1.3-2.3-2.8-2-4.5c0.3-1.8,2.3-2.8,4-2.5C122.3,231.7,123.6,232.6,124.7,233.5z"/>
</svg>
