<svg width="37" height="37" viewBox="0 0 37 37" fill="none" xmlns="http://www.w3.org/2000/svg">
<rect x="1" y="1" width="35" height="35" rx="17.5" stroke="#00D16C" stroke-width="2"/>
<path d="M21.7463 17.432C22.6423 17.592 23.4023 18.064 24.0263 18.848C24.6503 19.632 24.9623 20.52 24.9623 21.512C24.9623 22.36 24.7383 23.128 24.2903 23.816C23.8583 24.488 23.2263 25.024 22.3943 25.424C21.5623 25.808 20.5943 26 19.4903 26H12.8183V9.32H19.1783C20.3143 9.32 21.2903 9.512 22.1063 9.896C22.9223 10.28 23.5383 10.8 23.9543 11.456C24.3703 12.096 24.5783 12.816 24.5783 13.616C24.5783 14.576 24.3223 15.376 23.8103 16.016C23.2983 16.656 22.6103 17.128 21.7463 17.432ZM15.5543 16.328H18.9383C19.8343 16.328 20.5303 16.128 21.0263 15.728C21.5383 15.312 21.7943 14.72 21.7943 13.952C21.7943 13.2 21.5383 12.616 21.0263 12.2C20.5303 11.768 19.8343 11.552 18.9383 11.552H15.5543V16.328ZM19.2503 23.768C20.1783 23.768 20.9063 23.544 21.4343 23.096C21.9623 22.648 22.2263 22.024 22.2263 21.224C22.2263 20.408 21.9463 19.76 21.3863 19.28C20.8263 18.8 20.0823 18.56 19.1543 18.56H15.5543V23.768H19.2503Z" fill="#00D16C"/>
</svg>
