<svg width="25" height="25" viewBox="0 0 25 25" fill="none" xmlns="http://www.w3.org/2000/svg">
<g clip-path="url(#clip0_21_2335)">
<path d="M12.5 0C10.0277 0 7.61099 0.733112 5.55538 2.10663C3.49976 3.48015 1.89761 5.43238 0.951511 7.71646C0.00541608 10.0005 -0.242126 12.5139 0.24019 14.9386C0.722505 17.3634 1.91301 19.5907 3.66117 21.3388C5.40933 23.087 7.63661 24.2775 10.0614 24.7598C12.4861 25.2421 14.9995 24.9946 17.2835 24.0485C19.5676 23.1024 21.5199 21.5003 22.8934 19.4446C24.2669 17.389 25 14.9723 25 12.5C24.9964 9.1859 23.6783 6.00855 21.3349 3.66513C18.9915 1.3217 15.8141 0.00358446 12.5 0V0ZM12.5 22.9167C10.4398 22.9167 8.42583 22.3057 6.71282 21.1611C4.9998 20.0166 3.66467 18.3897 2.87626 16.4863C2.08785 14.5829 1.88156 12.4885 2.28349 10.4678C2.68542 8.44718 3.67751 6.5911 5.13431 5.13431C6.59111 3.67751 8.44718 2.68542 10.4678 2.28349C12.4885 1.88156 14.5829 2.08784 16.4863 2.87626C18.3897 3.66467 20.0165 4.9998 21.1611 6.71281C22.3057 8.42583 22.9167 10.4398 22.9167 12.5C22.9136 15.2617 21.8152 17.9095 19.8624 19.8624C17.9095 21.8152 15.2617 22.9136 12.5 22.9167Z" fill="black"/>
<path d="M12.5 6.25C12.2238 6.25 11.9588 6.35975 11.7635 6.5551C11.5681 6.75045 11.4584 7.0154 11.4584 7.29167V11.7969L7.94692 13.9969C7.71209 14.1436 7.54516 14.3775 7.48284 14.6473C7.42053 14.9171 7.46793 15.2006 7.61463 15.4354C7.76133 15.6702 7.9953 15.8372 8.26508 15.8995C8.53486 15.9618 8.81834 15.9144 9.05317 15.7677L13.0532 13.2677C13.2043 13.173 13.3286 13.0411 13.4141 12.8846C13.4997 12.7281 13.5436 12.5523 13.5417 12.374V7.29167C13.5417 7.0154 13.432 6.75045 13.2366 6.5551C13.0413 6.35975 12.7763 6.25 12.5 6.25Z" fill="black"/>
</g>
<defs>
<clipPath id="clip0_21_2335">
<rect width="25" height="25" fill="white"/>
</clipPath>
</defs>
</svg>
