<svg width="467" height="381" viewBox="0 0 467 381" fill="none" xmlns="http://www.w3.org/2000/svg">
<path d="M0.680663 7.11528C0.468169 7.29167 0.438902 7.60689 0.615263 7.81935L3.48941 11.2819C3.6658 11.4944 3.98102 11.5237 4.19348 11.3473C4.40597 11.1709 4.43524 10.8557 4.25888 10.6432L1.70407 7.56539L4.78189 5.01061C4.99438 4.83422 5.02365 4.519 4.84729 4.30654C4.6709 4.09404 4.35568 4.06478 4.14322 4.24114L0.680663 7.11528ZM463.921 379.453C463.645 379.447 463.416 379.666 463.411 379.942C463.405 380.218 463.624 380.447 463.9 380.453L463.921 379.453ZM455.715 380.217C455.991 380.227 456.223 380.012 456.233 379.736C456.243 379.46 456.028 379.228 455.752 379.218L455.715 380.217ZM450.73 379.006C450.454 378.993 450.22 379.206 450.207 379.482C450.194 379.758 450.407 379.992 450.683 380.005L450.73 379.006ZM442.763 379.565C443.039 379.582 443.277 379.373 443.294 379.098C443.312 378.822 443.103 378.584 442.827 378.567L442.763 379.565ZM437.97 378.229C437.695 378.209 437.455 378.415 437.434 378.69C437.413 378.966 437.62 379.206 437.895 379.226L437.97 378.229ZM429.862 378.551C430.137 378.577 430.381 378.375 430.407 378.1C430.432 377.825 430.23 377.581 429.955 377.556L429.862 378.551ZM424.897 377.053C424.623 377.024 424.377 377.223 424.348 377.498C424.319 377.772 424.518 378.018 424.792 378.047L424.897 377.053ZM416.827 377.129C417.101 377.164 417.351 376.969 417.385 376.695C417.42 376.421 417.225 376.171 416.951 376.137L416.827 377.129ZM412.076 375.496C411.802 375.458 411.55 375.649 411.512 375.923C411.475 376.196 411.666 376.449 411.939 376.486L412.076 375.496ZM404.133 375.328C404.406 375.372 404.662 375.186 404.705 374.913C404.749 374.64 404.563 374.384 404.29 374.341L404.133 375.328ZM399.247 373.503C398.975 373.456 398.716 373.639 398.669 373.911C398.622 374.183 398.804 374.442 399.076 374.489L399.247 373.503ZM391.146 373.024C391.416 373.077 391.679 372.9 391.733 372.629C391.786 372.359 391.609 372.096 391.338 372.042L391.146 373.024ZM386.495 371.055C386.225 370.998 385.959 371.17 385.902 371.441C385.845 371.711 386.018 371.976 386.288 372.033L386.495 371.055ZM378.629 370.321C378.898 370.384 379.167 370.218 379.231 369.949C379.294 369.68 379.128 369.411 378.859 369.348L378.629 370.321ZM373.892 368.134C373.624 368.067 373.352 368.229 373.284 368.497C373.217 368.764 373.379 369.036 373.647 369.104L373.892 368.134ZM365.847 367.027C366.113 367.101 366.389 366.946 366.464 366.68C366.538 366.414 366.383 366.139 366.117 366.064L365.847 367.027ZM361.364 364.691C361.1 364.612 360.821 364.763 360.742 365.028C360.664 365.292 360.814 365.571 361.079 365.649L361.364 364.691ZM353.546 363.298C353.809 363.384 354.091 363.241 354.177 362.978C354.263 362.716 354.12 362.433 353.857 362.347L353.546 363.298ZM349.034 360.724C348.773 360.633 348.488 360.771 348.397 361.032C348.307 361.293 348.445 361.578 348.706 361.669L349.034 360.724ZM341.144 358.927C341.402 359.025 341.691 358.895 341.789 358.637C341.887 358.378 341.757 358.09 341.498 357.992L341.144 358.927ZM336.901 356.203C336.644 356.1 336.353 356.225 336.251 356.481C336.148 356.738 336.273 357.029 336.53 357.131L336.901 356.203ZM329.163 354.061C329.417 354.171 329.711 354.055 329.821 353.802C329.931 353.548 329.815 353.254 329.562 353.144L329.163 354.061ZM324.95 351.088C324.699 350.973 324.403 351.083 324.288 351.334C324.173 351.586 324.283 351.882 324.534 351.997L324.95 351.088ZM317.315 348.559C317.563 348.682 317.862 348.581 317.985 348.333C318.108 348.086 318.006 347.786 317.759 347.663L317.315 348.559ZM313.379 345.441C313.134 345.313 312.832 345.409 312.705 345.654C312.577 345.899 312.673 346.201 312.918 346.328L313.379 345.441ZM305.81 342.489C306.051 342.624 306.356 342.538 306.491 342.298C306.626 342.057 306.54 341.752 306.299 341.617L305.81 342.489ZM301.96 339.124C301.722 338.984 301.416 339.064 301.276 339.302C301.136 339.54 301.215 339.846 301.453 339.986L301.96 339.124ZM294.669 335.85C294.903 335.997 295.212 335.928 295.359 335.694C295.507 335.461 295.437 335.152 295.204 335.004L294.669 335.85ZM291.01 332.294C290.78 332.141 290.47 332.205 290.317 332.435C290.165 332.665 290.228 332.976 290.459 333.128L291.01 332.294ZM283.811 328.575C284.036 328.735 284.348 328.682 284.508 328.457C284.667 328.231 284.614 327.919 284.389 327.76L283.811 328.575ZM280.367 324.846C280.145 324.681 279.832 324.728 279.667 324.95C279.503 325.172 279.55 325.485 279.772 325.65L280.367 324.846ZM273.429 320.795C273.645 320.966 273.96 320.93 274.131 320.713C274.302 320.496 274.266 320.182 274.049 320.011L273.429 320.795ZM270.147 316.858C269.934 316.682 269.619 316.713 269.443 316.926C269.267 317.139 269.297 317.454 269.51 317.63L270.147 316.858ZM263.422 312.444C263.629 312.627 263.945 312.606 264.127 312.399C264.31 312.191 264.289 311.876 264.082 311.693L263.422 312.444ZM260.393 308.385C260.189 308.199 259.873 308.213 259.687 308.417C259.5 308.621 259.514 308.937 259.718 309.123L260.393 308.385ZM253.861 303.599C254.059 303.791 254.375 303.787 254.568 303.589C254.76 303.391 254.756 303.075 254.558 302.882L253.861 303.599ZM251.017 299.373C250.823 299.177 250.507 299.175 250.31 299.37C250.114 299.564 250.113 299.88 250.307 300.077L251.017 299.373ZM244.771 294.32C244.96 294.522 245.276 294.533 245.478 294.344C245.68 294.156 245.69 293.839 245.502 293.638L244.771 294.32ZM242.116 289.948C241.931 289.742 241.615 289.726 241.41 289.911C241.205 290.096 241.189 290.412 241.373 290.617L242.116 289.948ZM236.095 284.594C236.274 284.805 236.59 284.83 236.8 284.651C237.01 284.471 237.035 284.156 236.856 283.946L236.095 284.594ZM233.663 280.136C233.487 279.923 233.172 279.893 232.959 280.069C232.746 280.244 232.715 280.559 232.891 280.772L233.663 280.136ZM227.864 274.512C228.034 274.729 228.348 274.767 228.566 274.597C228.783 274.427 228.822 274.113 228.651 273.895L227.864 274.512ZM225.607 269.942C225.441 269.721 225.127 269.678 224.907 269.845C224.687 270.012 224.644 270.325 224.81 270.546L225.607 269.942ZM220.056 264.116C220.217 264.34 220.53 264.39 220.754 264.229C220.978 264.067 221.028 263.754 220.867 263.531L220.056 264.116ZM217.968 259.455C217.81 259.229 217.498 259.174 217.272 259.332C217.046 259.491 216.991 259.803 217.149 260.029L217.968 259.455ZM212.624 253.423C212.778 253.652 213.089 253.714 213.318 253.56C213.548 253.406 213.609 253.096 213.455 252.866L212.624 253.423ZM210.709 248.709C210.558 248.478 210.248 248.413 210.017 248.564C209.785 248.714 209.72 249.024 209.871 249.256L210.709 248.709ZM205.555 242.497C205.702 242.731 206.01 242.802 206.244 242.655C206.478 242.509 206.549 242.2 206.403 241.966L205.555 242.497ZM203.779 237.719C203.635 237.483 203.327 237.409 203.091 237.553C202.856 237.697 202.781 238.005 202.925 238.24L203.779 237.719ZM198.814 231.378C198.954 231.616 199.26 231.696 199.498 231.556C199.736 231.416 199.815 231.109 199.675 230.871L198.814 231.378ZM197.159 226.548C197.022 226.309 196.716 226.227 196.477 226.364C196.237 226.502 196.155 226.808 196.293 227.047L197.159 226.548ZM192.348 220.084C192.483 220.325 192.787 220.412 193.028 220.277C193.27 220.143 193.356 219.838 193.222 219.597L192.348 220.084ZM190.811 215.232C190.678 214.99 190.374 214.901 190.132 215.034C189.89 215.166 189.801 215.47 189.933 215.712L190.811 215.232ZM186.124 208.657C186.254 208.9 186.557 208.993 186.801 208.863C187.044 208.733 187.137 208.43 187.007 208.186L186.124 208.657ZM184.673 203.772C184.545 203.527 184.242 203.433 183.998 203.562C183.753 203.69 183.659 203.992 183.788 204.237L184.673 203.772ZM180.104 197.138C180.23 197.384 180.531 197.481 180.777 197.355C181.022 197.229 181.119 196.927 180.993 196.682L180.104 197.138ZM178.716 192.222C178.591 191.976 178.29 191.877 178.044 192.002C177.798 192.127 177.699 192.428 177.824 192.675L178.716 192.222ZM174.228 185.535C174.352 185.782 174.652 185.882 174.899 185.759C175.146 185.635 175.246 185.335 175.123 185.088L174.228 185.535ZM172.898 180.62C172.775 180.373 172.475 180.272 172.228 180.394C171.98 180.517 171.879 180.817 172.002 181.064L172.898 180.62ZM168.451 173.874C168.573 174.122 168.873 174.224 169.121 174.102C169.369 173.98 169.471 173.681 169.349 173.433L168.451 173.874ZM167.15 168.953C167.028 168.705 166.729 168.603 166.481 168.724C166.233 168.846 166.13 169.145 166.252 169.393L167.15 168.953ZM162.735 162.208C162.857 162.456 163.156 162.559 163.404 162.438C163.652 162.316 163.755 162.017 163.633 161.769L162.735 162.208ZM161.431 157.268C161.309 157.02 161.01 156.917 160.762 157.039C160.514 157.16 160.411 157.46 160.533 157.708L161.431 157.268ZM157.019 150.548C157.141 150.796 157.441 150.898 157.688 150.776C157.936 150.654 158.038 150.354 157.916 150.106L157.019 150.548ZM155.698 145.614C155.575 145.366 155.276 145.265 155.028 145.387C154.781 145.51 154.679 145.81 154.802 146.057L155.698 145.614ZM151.23 138.888C151.353 139.135 151.654 139.235 151.901 139.111C152.148 138.987 152.247 138.686 152.123 138.44L151.23 138.888ZM149.881 133.994C149.756 133.748 149.455 133.65 149.209 133.775C148.963 133.899 148.864 134.2 148.989 134.447L149.881 133.994ZM145.333 127.311C145.46 127.556 145.762 127.652 146.007 127.525C146.252 127.398 146.348 127.096 146.221 126.851L145.333 127.311ZM143.905 122.415C143.776 122.171 143.474 122.077 143.229 122.205C142.985 122.334 142.891 122.636 143.02 122.881L143.905 122.415ZM139.269 115.858C139.401 116.101 139.704 116.191 139.947 116.059C140.19 115.928 140.28 115.624 140.148 115.381L139.269 115.858ZM137.728 110.966C137.595 110.724 137.29 110.637 137.049 110.771C136.807 110.905 136.72 111.209 136.854 111.45L137.728 110.966ZM132.933 104.505C133.071 104.744 133.377 104.827 133.616 104.689C133.855 104.551 133.938 104.245 133.8 104.006L132.933 104.505ZM131.284 99.6934C131.144 99.4557 130.837 99.377 130.6 99.5175C130.362 99.658 130.283 99.9647 130.424 100.202L131.284 99.6934ZM126.272 93.3427C126.417 93.5773 126.726 93.6496 126.96 93.5041C127.195 93.3586 127.267 93.0504 127.122 92.8157L126.272 93.3427ZM124.466 88.6008C124.317 88.3683 124.008 88.3005 123.775 88.4494C123.543 88.5984 123.475 88.9076 123.624 89.1401L124.466 88.6008ZM119.221 82.4562C119.376 82.6848 119.687 82.7445 119.916 82.5895C120.144 82.4345 120.204 82.1236 120.049 81.8951L119.221 82.4562ZM117.201 77.7739C117.042 77.5482 116.73 77.4941 116.505 77.6531C116.279 77.8122 116.225 78.1241 116.384 78.3499L117.201 77.7739ZM111.701 71.9171C111.867 72.1377 112.18 72.1819 112.401 72.0158C112.622 71.8497 112.666 71.5362 112.5 71.3156L111.701 71.9171ZM109.43 67.328C109.259 67.1111 108.945 67.0737 108.728 67.2445C108.511 67.4153 108.473 67.7297 108.644 67.9467L109.43 67.328ZM103.609 61.789C103.788 61.9994 104.104 62.025 104.314 61.8461C104.525 61.6673 104.55 61.3517 104.371 61.1414L103.609 61.789ZM101.073 57.3579C100.889 57.1521 100.573 57.1346 100.367 57.3187C100.161 57.5028 100.143 57.8189 100.328 58.0247L101.073 57.3579ZM94.8807 52.1938C95.0736 52.3914 95.3902 52.3952 95.5878 52.2023C95.7853 52.0094 95.7891 51.6928 95.5962 51.4952L94.8807 52.1938ZM92.0552 47.9716C91.8566 47.7797 91.5401 47.7851 91.3482 47.9836C91.1563 48.1822 91.1617 48.4987 91.3603 48.6906L92.0552 47.9716ZM85.4878 43.2861C85.6956 43.468 86.0115 43.447 86.1934 43.2392C86.3753 43.0314 86.3543 42.7155 86.1465 42.5336L85.4878 43.2861ZM82.322 39.2935C82.1085 39.1185 81.7934 39.1497 81.6184 39.3633C81.4433 39.5768 81.4745 39.8919 81.6881 40.0669L82.322 39.2935ZM75.4028 35.1909C75.6255 35.3541 75.9384 35.3059 76.1016 35.0833C76.2649 34.8605 76.2167 34.5476 75.994 34.3844L75.4028 35.1909ZM71.898 31.4898C71.6697 31.3344 71.3587 31.3935 71.2033 31.6218C71.0479 31.85 71.107 32.1611 71.3353 32.3164L71.898 31.4898ZM64.6247 28.023C64.8615 28.1651 65.1686 28.0883 65.3107 27.8516C65.4528 27.6148 65.376 27.3076 65.1392 27.1656L64.6247 28.023ZM60.813 24.6745C60.5712 24.5411 60.2671 24.6289 60.1336 24.8707C60.0001 25.1124 60.088 25.4166 60.3297 25.55L60.813 24.6745ZM53.2036 21.8849C53.4528 22.004 53.7513 21.8985 53.8703 21.6493C53.9894 21.4001 53.8839 21.1016 53.6348 20.9826L53.2036 21.8849ZM49.1179 18.9232C48.8646 18.8131 48.5701 18.9292 48.46 19.1825C48.35 19.4358 48.4661 19.7303 48.7194 19.8403L49.1179 18.9232ZM41.3282 16.8778C41.5873 16.9732 41.8747 16.8404 41.9702 16.5813C42.0655 16.3222 41.9328 16.0348 41.6737 15.9394L41.3282 16.8778ZM36.8698 14.2669C36.6075 14.1807 36.3249 14.3235 36.2387 14.5859C36.1526 14.8483 36.2954 15.1308 36.5577 15.217L36.8698 14.2669ZM29.0365 12.9681C29.303 13.0402 29.5775 12.8825 29.6496 12.616C29.7217 12.3494 29.564 12.0749 29.2975 12.0028L29.0365 12.9681ZM24.4043 10.766C24.1355 10.7027 23.8663 10.8693 23.803 11.138C23.7397 11.4068 23.9063 11.676 24.1751 11.7393L24.4043 10.766ZM16.3683 10.1074C16.64 10.1572 16.9005 9.97741 16.9503 9.70577C17.0002 9.43416 16.8203 9.1736 16.5487 9.1238L16.3683 10.1074ZM11.672 8.30364C11.399 8.2618 11.1439 8.44918 11.102 8.72213C11.0602 8.99508 11.2476 9.25026 11.5205 9.2921L11.672 8.30364ZM3.51785 8.25386C3.79242 8.28322 4.03882 8.08443 4.06814 7.80986C4.0975 7.53527 3.89871 7.2889 3.62414 7.25954L3.51785 8.25386ZM466.508 379.5C465.643 379.486 464.781 379.471 463.921 379.453L463.9 380.453C464.761 380.471 465.625 380.486 466.492 380.5L466.508 379.5ZM455.752 379.218C454.067 379.156 452.393 379.085 450.73 379.006L450.683 380.005C452.35 380.084 454.027 380.155 455.715 380.217L455.752 379.218ZM442.827 378.567C441.198 378.462 439.579 378.35 437.97 378.229L437.895 379.226C439.508 379.347 441.13 379.46 442.763 379.565L442.827 378.567ZM429.955 377.556C428.258 377.397 426.572 377.23 424.897 377.053L424.792 378.047C426.471 378.224 428.161 378.392 429.862 378.551L429.955 377.556ZM416.951 376.137C415.315 375.932 413.69 375.718 412.076 375.496L411.939 376.486C413.557 376.709 415.186 376.924 416.827 377.129L416.951 376.137ZM404.29 374.341C402.596 374.071 400.915 373.792 399.247 373.503L399.076 374.489C400.749 374.778 402.434 375.058 404.133 375.328L404.29 374.341ZM391.338 372.042C389.711 371.723 388.097 371.394 386.495 371.055L386.288 372.033C387.895 372.373 389.514 372.703 391.146 373.024L391.338 372.042ZM378.859 369.348C377.189 368.954 375.534 368.549 373.892 368.134L373.647 369.104C375.294 369.52 376.955 369.926 378.629 370.321L378.859 369.348ZM366.117 366.064C364.519 365.616 362.935 365.159 361.364 364.691L361.079 365.649C362.655 366.119 364.244 366.578 365.847 367.027L366.117 366.064ZM353.857 362.347C352.234 361.817 350.627 361.276 349.034 360.724L348.706 361.669C350.305 362.223 351.918 362.766 353.546 363.298L353.857 362.347ZM341.498 357.992C339.951 357.406 338.419 356.809 336.901 356.203L336.53 357.131C338.054 357.74 339.592 358.339 341.144 358.927L341.498 357.992ZM329.562 353.144C328.009 352.469 326.472 351.784 324.95 351.088L324.534 351.997C326.062 352.696 327.605 353.384 329.163 354.061L329.562 353.144ZM317.759 347.663C316.284 346.933 314.824 346.192 313.379 345.441L312.918 346.328C314.369 347.082 315.835 347.826 317.315 348.559L317.759 347.663ZM306.299 341.617C304.838 340.797 303.391 339.966 301.96 339.124L301.453 339.986C302.89 340.831 304.343 341.665 305.81 342.489L306.299 341.617ZM295.204 335.004C293.791 334.111 292.393 333.208 291.01 332.294L290.459 333.128C291.847 334.046 293.251 334.953 294.669 335.85L295.204 335.004ZM284.389 327.76C283.034 326.798 281.693 325.827 280.367 324.846L279.772 325.65C281.103 326.635 282.45 327.61 283.811 328.575L284.389 327.76ZM274.049 320.011C272.734 318.97 271.433 317.919 270.147 316.858L269.51 317.63C270.802 318.695 272.108 319.75 273.429 320.795L274.049 320.011ZM264.082 311.693C262.839 310.6 261.609 309.497 260.393 308.385L259.718 309.123C260.939 310.239 262.173 311.346 263.422 312.444L264.082 311.693ZM254.558 302.882C253.364 301.721 252.184 300.551 251.017 299.373L250.307 300.077C251.478 301.259 252.663 302.434 253.861 303.599L254.558 302.882ZM245.502 293.638C244.36 292.416 243.232 291.186 242.116 289.948L241.373 290.617C242.493 291.859 243.626 293.094 244.771 294.32L245.502 293.638ZM236.856 283.946C235.78 282.683 234.715 281.413 233.663 280.136L232.891 280.772C233.947 282.054 235.015 283.328 236.095 284.594L236.856 283.946ZM228.651 273.895C227.626 272.584 226.611 271.266 225.607 269.942L224.81 270.546C225.817 271.874 226.835 273.196 227.864 274.512L228.651 273.895ZM220.867 263.531C219.89 262.178 218.924 260.819 217.968 259.455L217.149 260.029C218.108 261.397 219.077 262.759 220.056 264.116L220.867 263.531ZM213.455 252.866C212.53 251.485 211.615 250.1 210.709 248.709L209.871 249.256C210.78 250.649 211.697 252.038 212.624 253.423L213.455 252.866ZM206.403 241.966C205.52 240.554 204.645 239.139 203.779 237.719L202.925 238.24C203.794 239.663 204.67 241.082 205.555 242.497L206.403 241.966ZM199.675 230.871C198.829 229.433 197.991 227.992 197.159 226.548L196.293 227.047C197.126 228.494 197.966 229.938 198.814 231.378L199.675 230.871ZM193.222 219.597C192.412 218.144 191.608 216.689 190.811 215.232L189.933 215.712C190.732 217.172 191.537 218.629 192.348 220.084L193.222 219.597ZM187.007 208.186C186.223 206.716 185.446 205.244 184.673 203.772L183.788 204.237C184.561 205.711 185.34 207.184 186.124 208.657L187.007 208.186ZM180.993 196.682C180.23 195.195 179.471 193.709 178.716 192.222L177.824 192.675C178.58 194.163 179.339 195.651 180.104 197.138L180.993 196.682ZM175.123 185.088C174.378 183.598 173.636 182.108 172.898 180.62L172.002 181.064C172.741 182.554 173.483 184.044 174.228 185.535L175.123 185.088ZM169.349 173.433C168.614 171.938 167.881 170.444 167.15 168.953L166.252 169.393C166.983 170.885 167.716 172.379 168.451 173.874L169.349 173.433ZM163.633 161.769C162.898 160.266 162.164 158.765 161.431 157.268L160.533 157.708C161.266 159.205 162 160.705 162.735 162.208L163.633 161.769ZM157.916 150.106C157.177 148.605 156.438 147.107 155.698 145.614L154.802 146.057C155.541 147.55 156.28 149.047 157.019 150.548L157.916 150.106ZM152.123 138.44C151.377 136.953 150.63 135.471 149.881 133.994L148.989 134.447C149.737 135.922 150.484 137.402 151.23 138.888L152.123 138.44ZM146.221 126.851C145.451 125.366 144.679 123.887 143.905 122.415L143.02 122.881C143.794 124.351 144.564 125.828 145.333 127.311L146.221 126.851ZM140.148 115.381C139.346 113.902 138.539 112.43 137.728 110.966L136.854 111.45C137.663 112.911 138.468 114.381 139.269 115.858L140.148 115.381ZM133.8 104.006C132.967 102.559 132.129 101.121 131.284 99.6934L130.424 100.202C131.266 101.627 132.102 103.061 132.933 104.505L133.8 104.006ZM127.122 92.8157C126.244 91.3997 125.359 89.9946 124.466 88.6008L123.624 89.1401C124.514 90.5297 125.396 91.9307 126.272 93.3427L127.122 92.8157ZM120.049 81.8951C119.109 80.5084 118.16 79.1345 117.201 77.7739L116.384 78.3499C117.339 79.7054 118.285 81.0744 119.221 82.4562L120.049 81.8951ZM112.5 71.3156C111.488 69.9714 110.465 68.642 109.43 67.328L108.644 67.9467C109.674 69.2548 110.693 70.5785 111.701 71.9171L112.5 71.3156ZM104.371 61.1414C103.285 59.8633 102.186 58.6019 101.073 57.3579L100.328 58.0247C101.435 59.2622 102.528 60.5172 103.609 61.789L104.371 61.1414ZM95.5962 51.4952C94.431 50.3019 93.2509 49.1272 92.0552 47.9716L91.3603 48.6906C92.5489 49.8394 93.7221 51.0074 94.8807 52.1938L95.5962 51.4952ZM86.1465 42.5336C84.8889 41.4329 83.6143 40.3527 82.322 39.2935L81.6881 40.0669C82.9719 41.1191 84.2382 42.1924 85.4878 43.2861L86.1465 42.5336ZM75.994 34.3844C74.6476 33.3973 73.2825 32.4322 71.898 31.4898L71.3353 32.3164C72.71 33.2523 74.0656 34.2106 75.4028 35.1909L75.994 34.3844ZM65.1392 27.1656C63.7171 26.3122 62.2752 25.4817 60.813 24.6745L60.3297 25.55C61.7814 26.3513 63.2128 27.1758 64.6247 28.023L65.1392 27.1656ZM53.6348 20.9826C52.1495 20.2729 50.6441 19.5863 49.1179 18.9232L48.7194 19.8403C50.2346 20.4987 51.7292 21.1804 53.2036 21.8849L53.6348 20.9826ZM41.6737 15.9394C40.0939 15.3577 38.4928 14.8001 36.8698 14.2669L36.5577 15.217C38.1696 15.7465 39.7595 16.3002 41.3282 16.8778L41.6737 15.9394ZM29.2975 12.0028C27.6872 11.5674 26.0563 11.155 24.4043 10.766L24.1751 11.7393C25.8166 12.1259 27.4369 12.5356 29.0365 12.9681L29.2975 12.0028ZM16.5487 9.1238C14.9424 8.82924 13.317 8.55574 11.672 8.30364L11.5205 9.2921C13.1559 9.54274 14.7718 9.81463 16.3683 10.1074L16.5487 9.1238ZM3.62414 7.25954C2.7699 7.16823 1.91061 7.08241 1.04623 7.00215L0.953764 7.99788C1.81357 8.07772 2.66824 8.16307 3.51785 8.25386L3.62414 7.25954ZM0.361296 6.73055C-0.0636612 7.0833 -0.122194 7.71376 0.230528 8.13872L5.97882 15.0638C6.33157 15.4888 6.96203 15.5473 7.38699 15.1946C7.81195 14.8418 7.87048 14.2114 7.51776 13.7864L2.40814 7.63079L8.56381 2.5212C8.98877 2.16845 9.0473 1.53798 8.69458 1.11303C8.34183 0.688068 7.71136 0.629535 7.28641 0.982257L0.361296 6.73055ZM463.931 378.953C463.379 378.942 462.922 379.38 462.911 379.932C462.899 380.484 463.338 380.941 463.89 380.953L463.931 378.953ZM455.697 380.717C456.248 380.737 456.712 380.306 456.733 379.754C456.753 379.202 456.322 378.738 455.77 378.718L455.697 380.717ZM450.754 378.507C450.202 378.481 449.734 378.907 449.708 379.459C449.681 380.01 450.108 380.479 450.659 380.505L450.754 378.507ZM442.731 380.064C443.282 380.099 443.758 379.681 443.793 379.13C443.829 378.579 443.411 378.103 442.859 378.068L442.731 380.064ZM438.007 377.731C437.457 377.689 436.977 378.102 436.936 378.653C436.894 379.204 437.307 379.684 437.858 379.725L438.007 377.731ZM429.816 379.049C430.366 379.1 430.853 378.696 430.905 378.146C430.956 377.596 430.552 377.109 430.002 377.058L429.816 379.049ZM424.95 376.556C424.401 376.498 423.908 376.896 423.85 377.445C423.793 377.995 424.191 378.487 424.74 378.545L424.95 376.556ZM416.765 377.625C417.313 377.694 417.813 377.305 417.882 376.757C417.95 376.209 417.562 375.71 417.014 375.641L416.765 377.625ZM412.144 375C411.597 374.925 411.092 375.307 411.017 375.854C410.942 376.401 411.324 376.906 411.871 376.982L412.144 375ZM404.055 375.822C404.6 375.909 405.112 375.537 405.199 374.991C405.286 374.446 404.914 373.934 404.369 373.847L404.055 375.822ZM399.332 373.011C398.788 372.916 398.27 373.281 398.176 373.825C398.082 374.37 398.447 374.887 398.991 374.981L399.332 373.011ZM391.049 373.514C391.591 373.621 392.117 373.268 392.223 372.726C392.33 372.184 391.977 371.658 391.435 371.552L391.049 373.514ZM386.598 370.566C386.058 370.451 385.527 370.797 385.413 371.337C385.299 371.878 385.644 372.408 386.184 372.522L386.598 370.566ZM378.515 370.808C379.052 370.934 379.591 370.602 379.717 370.064C379.844 369.527 379.511 368.988 378.974 368.861L378.515 370.808ZM374.014 367.65C373.479 367.514 372.935 367.839 372.8 368.374C372.664 368.91 372.989 369.453 373.524 369.589L374.014 367.65ZM365.712 367.508C366.244 367.657 366.796 367.347 366.945 366.815C367.094 366.283 366.784 365.732 366.252 365.583L365.712 367.508ZM361.507 364.212C360.978 364.054 360.421 364.356 360.263 364.885C360.106 365.414 360.407 365.971 360.936 366.129L361.507 364.212ZM353.391 363.773C353.916 363.945 354.481 363.658 354.652 363.133C354.824 362.608 354.537 362.044 354.012 361.872L353.391 363.773ZM349.197 360.251C348.676 360.07 348.106 360.347 347.925 360.869C347.744 361.39 348.021 361.96 348.542 362.141L349.197 360.251ZM340.967 359.395C341.483 359.59 342.061 359.33 342.256 358.814C342.452 358.297 342.192 357.72 341.675 357.524L340.967 359.395ZM337.086 355.738C336.573 355.533 335.991 355.783 335.786 356.296C335.582 356.809 335.831 357.391 336.344 357.596L337.086 355.738ZM328.964 354.52C329.471 354.74 330.06 354.507 330.28 354.001C330.5 353.494 330.268 352.905 329.761 352.685L328.964 354.52ZM325.158 350.633C324.656 350.403 324.063 350.624 323.833 351.126C323.603 351.629 323.824 352.222 324.326 352.452L325.158 350.633ZM317.093 349.007C317.588 349.253 318.188 349.05 318.433 348.555C318.678 348.06 318.476 347.46 317.981 347.215L317.093 349.007ZM313.609 344.997C313.119 344.742 312.516 344.933 312.261 345.423C312.006 345.913 312.197 346.517 312.687 346.772L313.609 344.997ZM305.565 342.925C306.047 343.195 306.657 343.024 306.927 342.542C307.197 342.061 307.026 341.451 306.544 341.181L305.565 342.925ZM302.214 338.693C301.737 338.413 301.125 338.572 300.845 339.048C300.565 339.524 300.724 340.137 301.2 340.417L302.214 338.693ZM294.402 336.272C294.869 336.567 295.487 336.428 295.782 335.961C296.077 335.494 295.938 334.877 295.471 334.582L294.402 336.272ZM291.286 331.877C290.825 331.572 290.205 331.699 289.9 332.159C289.596 332.62 289.722 333.24 290.183 333.545L291.286 331.877ZM283.521 328.983C283.972 329.303 284.596 329.196 284.915 328.746C285.235 328.295 285.129 327.671 284.678 327.352L283.521 328.983ZM280.664 324.444C280.22 324.115 279.594 324.209 279.265 324.653C278.937 325.097 279.03 325.723 279.474 326.051L280.664 324.444ZM273.119 321.187C273.552 321.53 274.181 321.456 274.523 321.023C274.866 320.59 274.793 319.961 274.36 319.619L273.119 321.187ZM270.465 316.472C270.039 316.121 269.408 316.182 269.057 316.608C268.706 317.034 268.766 317.664 269.192 318.015L270.465 316.472ZM263.092 312.82C263.506 313.184 264.138 313.144 264.503 312.729C264.868 312.314 264.827 311.682 264.412 311.318L263.092 312.82ZM260.73 308.016C260.323 307.644 259.69 307.672 259.318 308.08C258.945 308.487 258.973 309.12 259.381 309.492L260.73 308.016ZM253.512 303.957C253.908 304.342 254.541 304.334 254.926 303.938C255.311 303.542 255.303 302.909 254.907 302.524L253.512 303.957ZM251.373 299.021C250.984 298.629 250.351 298.626 249.959 299.014C249.566 299.403 249.563 300.036 249.952 300.429L251.373 299.021ZM244.406 294.662C244.783 295.065 245.415 295.087 245.819 294.71C246.223 294.333 246.244 293.7 245.867 293.296L244.406 294.662ZM242.488 289.613C242.118 289.203 241.486 289.17 241.075 289.539C240.665 289.909 240.632 290.542 241.002 290.952L242.488 289.613ZM235.714 284.919C236.073 285.339 236.704 285.389 237.124 285.031C237.544 284.673 237.595 284.042 237.236 283.621L235.714 284.919ZM234.048 279.818C233.697 279.392 233.067 279.332 232.641 279.683C232.214 280.034 232.154 280.664 232.505 281.091L234.048 279.818ZM227.47 274.82C227.81 275.255 228.439 275.331 228.874 274.991C229.309 274.651 229.386 274.022 229.045 273.587L227.47 274.82ZM226.006 269.64C225.672 269.199 225.045 269.113 224.605 269.447C224.165 269.78 224.078 270.407 224.412 270.848L226.006 269.64ZM219.65 264.408C219.974 264.856 220.599 264.957 221.046 264.634C221.494 264.311 221.595 263.686 221.272 263.238L219.65 264.408ZM218.378 259.168C218.061 258.716 217.437 258.606 216.985 258.923C216.533 259.24 216.423 259.863 216.74 260.316L218.378 259.168ZM212.209 253.701C212.516 254.16 213.137 254.283 213.596 253.975C214.055 253.668 214.178 253.047 213.871 252.588L212.209 253.701ZM211.127 248.436C210.826 247.974 210.206 247.843 209.744 248.145C209.281 248.446 209.15 249.066 209.452 249.529L211.127 248.436ZM205.131 242.762C205.424 243.23 206.041 243.372 206.509 243.079C206.978 242.786 207.12 242.169 206.827 241.701L205.131 242.762ZM204.205 237.459C203.918 236.987 203.302 236.838 202.831 237.126C202.359 237.414 202.211 238.029 202.498 238.501L204.205 237.459ZM198.383 231.632C198.663 232.108 199.276 232.267 199.752 231.987C200.228 231.707 200.386 231.094 200.106 230.618L198.383 231.632ZM197.593 226.299C197.317 225.82 196.706 225.655 196.227 225.931C195.748 226.207 195.584 226.818 195.859 227.297L197.593 226.299ZM191.911 220.327C192.18 220.81 192.79 220.983 193.272 220.714C193.754 220.445 193.927 219.836 193.658 219.354L191.911 220.327ZM191.249 214.992C190.984 214.508 190.376 214.33 189.892 214.595C189.407 214.86 189.23 215.468 189.495 215.953L191.249 214.992ZM185.683 208.892C185.943 209.379 186.548 209.564 187.036 209.304C187.523 209.044 187.708 208.439 187.448 207.951L185.683 208.892ZM185.116 203.54C184.859 203.051 184.255 202.862 183.766 203.119C183.277 203.375 183.088 203.98 183.345 204.469L185.116 203.54ZM179.659 197.367C179.911 197.858 180.514 198.052 181.005 197.8C181.497 197.547 181.69 196.944 181.438 196.453L179.659 197.367ZM179.162 191.996C178.912 191.503 178.31 191.307 177.818 191.557C177.325 191.807 177.129 192.409 177.379 192.901L179.162 191.996ZM173.781 185.758C174.028 186.252 174.629 186.453 175.123 186.206C175.617 185.959 175.817 185.358 175.57 184.864L173.781 185.758ZM173.346 180.398C173.1 179.903 172.5 179.701 172.006 179.946C171.511 180.192 171.309 180.792 171.554 181.287L173.346 180.398ZM168.003 174.095C168.246 174.59 168.846 174.795 169.341 174.551C169.837 174.307 170.041 173.708 169.797 173.212L168.003 174.095ZM167.599 168.733C167.356 168.237 166.757 168.032 166.261 168.275C165.765 168.518 165.56 169.117 165.803 169.613L167.599 168.733ZM162.286 162.428C162.529 162.924 163.128 163.129 163.624 162.887C164.12 162.644 164.325 162.045 164.083 161.549L162.286 162.428ZM161.88 157.048C161.637 156.552 161.038 156.347 160.542 156.59C160.046 156.832 159.841 157.431 160.084 157.927L161.88 157.048ZM156.57 150.769C156.814 151.264 157.414 151.468 157.909 151.224C158.405 150.98 158.609 150.381 158.365 149.886L156.57 150.769ZM156.146 145.392C155.901 144.897 155.301 144.694 154.806 144.939C154.311 145.184 154.109 145.784 154.354 146.279L156.146 145.392ZM150.783 139.112C151.03 139.606 151.631 139.805 152.125 139.558C152.619 139.31 152.818 138.709 152.57 138.215L150.783 139.112ZM150.327 133.768C150.077 133.276 149.476 133.079 148.983 133.329C148.49 133.578 148.294 134.18 148.543 134.673L150.327 133.768ZM144.889 127.541C145.143 128.032 145.747 128.223 146.237 127.969C146.727 127.715 146.919 127.111 146.665 126.621L144.889 127.541ZM144.347 122.182C144.09 121.693 143.485 121.506 142.996 121.763C142.508 122.02 142.32 122.625 142.577 123.114L144.347 122.182ZM138.83 116.096C139.093 116.582 139.7 116.762 140.185 116.499C140.671 116.236 140.851 115.629 140.588 115.143L138.83 116.096ZM138.166 110.724C137.898 110.24 137.29 110.066 136.807 110.333C136.323 110.601 136.149 111.21 136.416 111.693L138.166 110.724ZM132.5 104.754C132.775 105.233 133.387 105.398 133.865 105.122C134.344 104.847 134.509 104.235 134.233 103.757L132.5 104.754ZM131.715 99.4389C131.434 98.9635 130.82 98.806 130.345 99.0871C129.87 99.3682 129.712 99.9814 129.993 100.457L131.715 99.4389ZM125.847 93.6061C126.138 94.0755 126.754 94.2201 127.224 93.929C127.693 93.638 127.838 93.0216 127.547 92.5522L125.847 93.6061ZM124.887 88.3311C124.589 87.8661 123.971 87.7305 123.506 88.0284C123.041 88.3263 122.905 88.9447 123.203 89.4098L124.887 88.3311ZM118.808 82.7368C119.117 83.1939 119.739 83.3133 120.196 83.0034C120.654 82.6934 120.773 82.0716 120.463 81.6145L118.808 82.7368ZM117.61 77.4859C117.292 77.0344 116.668 76.9263 116.217 77.2444C115.765 77.5625 115.657 78.1864 115.975 78.6379L117.61 77.4859ZM111.301 72.2178C111.633 72.659 112.26 72.7474 112.702 72.4153C113.143 72.0831 113.231 71.4561 112.899 71.0149L111.301 72.2178ZM109.823 67.0187C109.481 66.5848 108.852 66.51 108.419 66.8517C107.985 67.1933 107.91 67.8221 108.252 68.256L109.823 67.0187ZM103.228 62.1128C103.586 62.5336 104.217 62.5848 104.638 62.2271C105.059 61.8694 105.11 61.2384 104.752 60.8175L103.228 62.1128ZM101.445 57.0245C101.077 56.6129 100.445 56.5778 100.033 56.946C99.6218 57.3143 99.5866 57.9465 99.9549 58.3581L101.445 57.0245ZM94.5229 52.5432C94.9088 52.9383 95.5419 52.9459 95.9371 52.56C96.3322 52.1742 96.3398 51.5411 95.9539 51.1459L94.5229 52.5432ZM92.4026 47.612C92.0055 47.2282 91.3725 47.239 90.9886 47.6362C90.6049 48.0333 90.6157 48.6664 91.0128 49.0502L92.4026 47.612ZM85.1586 43.6624C85.5741 44.0261 86.2059 43.9841 86.5696 43.5685C86.9334 43.1529 86.8914 42.5211 86.4758 42.1574L85.1586 43.6624ZM82.639 38.9068C82.2118 38.5567 81.5818 38.6192 81.2317 39.0463C80.8816 39.4735 80.944 40.1035 81.3712 40.4536L82.639 38.9068ZM75.1071 35.5941C75.5525 35.9207 76.1783 35.8243 76.5049 35.3789C76.8314 34.9335 76.735 34.3077 76.2896 33.9811L75.1071 35.5941ZM72.1794 31.0765C71.7228 30.7657 71.1008 30.8838 70.79 31.3404C70.4792 31.797 70.5974 32.419 71.0539 32.7298L72.1794 31.0765ZM64.3675 28.4517C64.841 28.7359 65.4553 28.5824 65.7395 28.1088C66.0236 27.6353 65.8701 27.021 65.3965 26.7368L64.3675 28.4517ZM61.0546 24.2368C60.5711 23.9699 59.9627 24.1455 59.6959 24.6291C59.429 25.1126 59.6046 25.7209 60.0881 25.9878L61.0546 24.2368ZM52.9881 22.3361C53.4864 22.5742 54.0834 22.3632 54.3215 21.8649C54.5596 21.3666 54.3486 20.7696 53.8503 20.5315L52.9881 22.3361ZM49.3171 18.4646C48.8105 18.2445 48.2215 18.4767 48.0014 18.9832C47.7813 19.4898 48.0136 20.0788 48.5201 20.2989L49.3171 18.4646ZM41.1554 17.347C41.6737 17.5378 42.2485 17.2723 42.4394 16.7541C42.6302 16.2358 42.3647 15.661 41.8464 15.4701L41.1554 17.347ZM37.0258 13.7919C36.5012 13.6195 35.9361 13.9051 35.7637 14.4299C35.5914 14.9546 35.877 15.5196 36.4017 15.692L37.0258 13.7919ZM28.9059 13.4508C29.4391 13.5949 29.9882 13.2796 30.1323 12.7465C30.2765 12.2133 29.9611 11.6643 29.428 11.5201L28.9059 13.4508ZM24.5189 10.2793C23.9813 10.1527 23.4429 10.4858 23.3163 11.0234C23.1897 11.561 23.5229 12.0994 24.0605 12.226L24.5189 10.2793ZM16.2782 10.5992C16.8214 10.6988 17.3425 10.3392 17.4421 9.79595C17.5417 9.25274 17.1821 8.73162 16.6389 8.63201L16.2782 10.5992ZM11.7477 7.80941C11.2018 7.72576 10.6915 8.10048 10.6078 8.64638C10.5241 9.19231 10.8989 9.70269 11.4448 9.78633L11.7477 7.80941ZM3.46469 8.75106C4.01385 8.80974 4.50662 8.41216 4.56534 7.86299C4.62402 7.31383 4.22644 6.82106 3.67728 6.76238L3.46469 8.75106ZM466.516 379C465.652 378.987 464.79 378.971 463.931 378.953L463.89 380.953C464.752 380.97 465.617 380.986 466.484 381L466.516 379ZM455.77 378.718C454.087 378.656 452.415 378.586 450.754 378.507L450.659 380.505C452.328 380.584 454.007 380.654 455.697 380.717L455.77 378.718ZM442.859 378.068C441.232 377.963 439.614 377.851 438.007 377.731L437.858 379.725C439.472 379.846 441.096 379.959 442.731 380.064L442.859 378.068ZM430.002 377.058C428.306 376.899 426.622 376.732 424.95 376.556L424.74 378.545C426.42 378.722 428.112 378.89 429.816 379.049L430.002 377.058ZM417.014 375.641C415.379 375.436 413.756 375.223 412.144 375L411.871 376.982C413.491 377.205 415.122 377.42 416.765 377.625L417.014 375.641ZM404.369 373.847C402.677 373.578 400.998 373.299 399.332 373.011L398.991 374.981C400.666 375.271 402.354 375.552 404.055 375.822L404.369 373.847ZM391.435 371.552C389.81 371.233 388.198 370.904 386.598 370.566L386.184 372.522C387.793 372.863 389.415 373.193 391.049 373.514L391.435 371.552ZM378.974 368.861C377.307 368.468 375.653 368.064 374.014 367.65L373.524 369.589C375.174 370.005 376.837 370.412 378.515 370.808L378.974 368.861ZM366.252 365.583C364.657 365.136 363.075 364.679 361.507 364.212L360.936 366.129C362.515 366.599 364.107 367.059 365.712 367.508L366.252 365.583ZM354.012 361.872C352.393 361.343 350.788 360.802 349.197 360.251L348.542 362.141C350.144 362.696 351.76 363.24 353.391 363.773L354.012 361.872ZM341.675 357.524C340.131 356.939 338.602 356.344 337.086 355.738L336.344 357.596C337.871 358.206 339.412 358.805 340.967 359.395L341.675 357.524ZM329.761 352.685C328.212 352.012 326.677 351.328 325.158 350.633L324.326 352.452C325.857 353.152 327.403 353.841 328.964 354.52L329.761 352.685ZM317.981 347.215C316.509 346.486 315.052 345.747 313.609 344.997L312.687 346.772C314.141 347.527 315.61 348.273 317.093 349.007L317.981 347.215ZM306.544 341.181C305.085 340.362 303.642 339.533 302.214 338.693L301.2 340.417C302.64 341.264 304.095 342.1 305.565 342.925L306.544 341.181ZM295.471 334.582C294.061 333.69 292.666 332.789 291.286 331.877L290.183 333.545C291.574 334.465 292.981 335.374 294.402 336.272L295.471 334.582ZM284.678 327.352C283.325 326.393 281.988 325.423 280.664 324.444L279.474 326.051C280.809 327.039 282.158 328.016 283.521 328.983L284.678 327.352ZM274.36 319.619C273.047 318.58 271.749 317.531 270.465 316.472L269.192 318.015C270.486 319.082 271.795 320.14 273.119 321.187L274.36 319.619ZM264.412 311.318C263.171 310.226 261.944 309.126 260.73 308.016L259.381 309.492C260.604 310.611 261.841 311.72 263.092 312.82L264.412 311.318ZM254.907 302.524C253.715 301.365 252.537 300.197 251.373 299.021L249.952 300.429C251.125 301.613 252.312 302.79 253.512 303.957L254.907 302.524ZM245.867 293.296C244.728 292.077 243.601 290.849 242.488 289.613L241.002 290.952C242.124 292.196 243.258 293.433 244.406 294.662L245.867 293.296ZM237.236 283.621C236.162 282.361 235.099 281.093 234.048 279.818L232.505 281.091C233.563 282.374 234.633 283.65 235.714 284.919L237.236 283.621ZM229.045 273.587C228.021 272.278 227.008 270.962 226.006 269.64L224.412 270.848C225.42 272.178 226.439 273.502 227.47 274.82L229.045 273.587ZM221.272 263.238C220.297 261.887 219.332 260.53 218.378 259.168L216.74 260.316C217.7 261.685 218.67 263.05 219.65 264.408L221.272 263.238ZM213.871 252.588C212.947 251.209 212.033 249.825 211.127 248.436L209.452 249.529C210.362 250.924 211.281 252.315 212.209 253.701L213.871 252.588ZM206.827 241.701C205.945 240.291 205.071 238.877 204.205 237.459L202.498 238.501C203.368 239.925 204.245 241.345 205.131 242.762L206.827 241.701ZM200.106 230.618C199.261 229.181 198.423 227.741 197.593 226.299L195.859 227.297C196.693 228.745 197.534 230.19 198.383 231.632L200.106 230.618ZM193.658 219.354C192.849 217.902 192.046 216.448 191.249 214.992L189.495 215.953C190.294 217.413 191.099 218.871 191.911 220.327L193.658 219.354ZM187.448 207.951C186.665 206.482 185.888 205.011 185.116 203.54L183.345 204.469C184.119 205.944 184.898 207.418 185.683 208.892L187.448 207.951ZM181.438 196.453C180.675 194.968 179.916 193.482 179.162 191.996L177.379 192.901C178.134 194.39 178.894 195.878 179.659 197.367L181.438 196.453ZM175.57 184.864C174.825 183.375 174.084 181.886 173.346 180.398L171.554 181.287C172.293 182.776 173.035 184.267 173.781 185.758L175.57 184.864ZM169.797 173.212C169.062 171.717 168.33 170.224 167.599 168.733L165.803 169.613C166.534 171.105 167.267 172.599 168.003 174.095L169.797 173.212ZM164.083 161.549C163.347 160.046 162.613 158.545 161.88 157.048L160.084 157.927C160.817 159.424 161.551 160.925 162.286 162.428L164.083 161.549ZM158.365 149.886C157.625 148.384 156.886 146.886 156.146 145.392L154.354 146.279C155.093 147.771 155.831 149.268 156.57 150.769L158.365 149.886ZM152.57 138.215C151.824 136.728 151.076 135.245 150.327 133.768L148.543 134.673C149.291 136.147 150.037 137.627 150.783 139.112L152.57 138.215ZM146.665 126.621C145.895 125.135 145.122 123.655 144.347 122.182L142.577 123.114C143.351 124.583 144.121 126.059 144.889 127.541L146.665 126.621ZM140.588 115.143C139.785 113.662 138.977 112.189 138.166 110.724L136.416 111.693C137.225 113.152 138.029 114.62 138.83 116.096L140.588 115.143ZM134.233 103.757C133.399 102.308 132.56 100.869 131.715 99.4389L129.993 100.457C130.834 101.88 131.67 103.312 132.5 104.754L134.233 103.757ZM127.547 92.5522C126.667 91.1342 125.781 89.727 124.887 88.3311L123.203 89.4098C124.091 90.7972 124.973 92.1961 125.847 93.6061L127.547 92.5522ZM120.463 81.6145C119.521 80.2254 118.57 78.849 117.61 77.4859L115.975 78.6379C116.928 79.9908 117.872 81.3574 118.808 82.7368L120.463 81.6145ZM112.899 71.0149C111.885 69.6679 110.86 68.3356 109.823 67.0187L108.252 68.256C109.279 69.5612 110.296 70.882 111.301 72.2178L112.899 71.0149ZM104.752 60.8175C103.663 59.5363 102.561 58.2718 101.445 57.0245L99.9549 58.3581C101.059 59.5924 102.15 60.8441 103.228 62.1128L104.752 60.8175ZM95.9539 51.1459C94.7855 49.9493 93.602 48.7711 92.4026 47.612L91.0128 49.0502C92.1979 50.1955 93.3677 51.36 94.5229 52.5432L95.9539 51.1459ZM86.4758 42.1574C85.2142 41.0532 83.9355 39.9694 82.639 38.9068L81.3712 40.4536C82.6507 41.5023 83.9129 42.5721 85.1586 43.6624L86.4758 42.1574ZM76.2896 33.9811C74.9386 32.9907 73.5687 32.0222 72.1794 31.0765L71.0539 32.7298C72.4238 33.6623 73.7747 34.6172 75.1071 35.5941L76.2896 33.9811ZM65.3965 26.7368C63.9693 25.8804 62.5222 25.0468 61.0546 24.2368L60.0881 25.9878C61.5345 26.7861 62.9607 27.6076 64.3675 28.4517L65.3965 26.7368ZM53.8503 20.5315C52.3597 19.8192 50.8488 19.1301 49.3171 18.4646L48.5201 20.2989C50.0299 20.9549 51.519 21.6341 52.9881 22.3361L53.8503 20.5315ZM41.8464 15.4701C40.2611 14.8865 38.6545 14.3269 37.0258 13.7919L36.4017 15.692C38.008 16.2196 39.5923 16.7715 41.1554 17.347L41.8464 15.4701ZM29.428 11.5201C27.8124 11.0833 26.1762 10.6695 24.5189 10.2793L24.0605 12.226C25.6967 12.6113 27.3117 13.0197 28.9059 13.4508L29.428 11.5201ZM16.6389 8.63201C15.0278 8.33657 13.3975 8.06224 11.7477 7.80941L11.4448 9.78633C13.0754 10.0362 14.6864 10.3073 16.2782 10.5992L16.6389 8.63201ZM3.67728 6.76238C2.82071 6.67082 1.95914 6.58476 1.09247 6.50429L0.90753 8.49574C1.76504 8.57537 2.61743 8.66048 3.46469 8.75106L3.67728 6.76238Z" fill="#AF4EA6"/>
</svg>
