<svg width="56" height="56" viewBox="0 0 56 56" fill="none" xmlns="http://www.w3.org/2000/svg">
<circle cx="28" cy="28" r="22" stroke="#FFF9F2" stroke-width="2"/>
<circle cx="28" cy="28" r="23.75" stroke="#BF70B8" stroke-width="2.5"/>
<circle cx="28" cy="28" r="26.5" stroke="#B557AC" stroke-width="3"/>
<g clip-path="url(#clip0_359_168)">
<path d="M37.9998 34.75L37.9998 23.25C38.0098 22.1342 37.5767 21.06 36.7955 20.2632C36.0144 19.4664 34.949 19.0121 33.8332 19L31.3332 19C31.1122 19 30.9002 19.0878 30.7439 19.2441C30.5876 19.4004 30.4998 19.6123 30.4998 19.8333C30.4998 20.0543 30.5876 20.2663 30.7439 20.4226C30.9002 20.5789 31.1122 20.6667 31.3332 20.6667L33.8332 20.6667C34.507 20.6785 35.1486 20.9571 35.6173 21.4414C36.086 21.9257 36.3434 22.5761 36.3332 23.25L36.3332 34.75C36.3434 35.4239 36.086 36.0743 35.6173 36.5586C35.1486 37.0429 34.507 37.3215 33.8332 37.3333L22.1665 37.3333C21.4927 37.3215 20.851 37.0429 20.3824 36.5586C19.9137 36.0743 19.6562 35.4239 19.6665 34.75L19.6665 23.25C19.6562 22.5761 19.9137 21.9257 20.3824 21.4414C20.851 20.9571 21.4927 20.6785 22.1665 20.6667L24.6665 20.6667C24.8875 20.6667 25.0995 20.5789 25.2558 20.4226C25.412 20.2663 25.4998 20.0543 25.4998 19.8333C25.4998 19.6123 25.412 19.4004 25.2558 19.2441C25.0995 19.0878 24.8875 19 24.6665 19L22.1665 19C21.0507 19.0121 19.9853 19.4664 19.2041 20.2632C18.423 21.06 17.9898 22.1342 17.9998 23.25L17.9998 34.75C17.9898 35.8658 18.423 36.94 19.2041 37.7368C19.9853 38.5336 21.0507 38.9879 22.1665 39L33.8332 39C34.949 38.9879 36.0144 38.5336 36.7955 37.7368C37.5767 36.94 38.0098 35.8658 37.9998 34.75Z" fill="white"/>
<path d="M27.9992 21.5C27.7782 21.5 27.5662 21.5878 27.4099 21.7441C27.2536 21.9004 27.1658 22.1123 27.1658 22.3333L27.1908 33.3233L23.5883 29.7208C23.5115 29.6412 23.4195 29.5778 23.3178 29.5341C23.2162 29.4904 23.1068 29.4674 22.9962 29.4665C22.8855 29.4655 22.7758 29.4866 22.6734 29.5285C22.571 29.5704 22.4779 29.6323 22.3997 29.7105C22.3214 29.7887 22.2596 29.8818 22.2177 29.9842C22.1758 30.0866 22.1547 30.1963 22.1556 30.307C22.1566 30.4176 22.1796 30.527 22.2233 30.6287C22.2669 30.7303 22.3304 30.8223 22.41 30.8992L26.2317 34.7208C26.7005 35.1895 27.3363 35.4528 27.9992 35.4528C28.6621 35.4528 29.2979 35.1895 29.7667 34.7208L33.5883 30.9008C33.7401 30.7437 33.8241 30.5332 33.8222 30.3147C33.8203 30.0962 33.7327 29.8872 33.5782 29.7326C33.4237 29.5781 33.2147 29.4905 32.9962 29.4886C32.7777 29.4867 32.5672 29.5707 32.41 29.7225L28.8575 33.2742L28.8325 22.3333C28.8325 22.1123 28.7447 21.9004 28.5884 21.7441C28.4321 21.5878 28.2202 21.5 27.9992 21.5Z" fill="white"/>
</g>
<defs>
<clipPath id="clip0_359_168">
<rect width="20" height="20" fill="white" transform="translate(38 19) rotate(90)"/>
</clipPath>
</defs>
</svg>
