<svg width="46" height="46" viewBox="0 0 46 46" fill="none" xmlns="http://www.w3.org/2000/svg">
<circle cx="23" cy="23" r="23" fill="#FFF9F2"/>
<g clip-path="url(#clip0_360_169)">
<path d="M32.9998 28.75L32.9998 17.25C33.0098 16.1342 32.5767 15.06 31.7955 14.2632C31.0144 13.4664 29.949 13.0121 28.8332 13L26.3332 13C26.1122 13 25.9002 13.0878 25.7439 13.2441C25.5876 13.4004 25.4998 13.6123 25.4998 13.8333C25.4998 14.0543 25.5876 14.2663 25.7439 14.4226C25.9002 14.5789 26.1122 14.6667 26.3332 14.6667L28.8332 14.6667C29.507 14.6785 30.1486 14.9571 30.6173 15.4414C31.086 15.9257 31.3434 16.5761 31.3332 17.25L31.3332 28.75C31.3434 29.4239 31.086 30.0743 30.6173 30.5586C30.1486 31.0429 29.507 31.3215 28.8332 31.3333L17.1665 31.3333C16.4927 31.3215 15.851 31.0429 15.3824 30.5586C14.9137 30.0743 14.6562 29.4239 14.6665 28.75L14.6665 17.25C14.6562 16.5761 14.9137 15.9257 15.3824 15.4414C15.851 14.9571 16.4927 14.6785 17.1665 14.6667L19.6665 14.6667C19.8875 14.6667 20.0995 14.5789 20.2558 14.4226C20.412 14.2663 20.4998 14.0543 20.4998 13.8333C20.4998 13.6123 20.412 13.4004 20.2558 13.2441C20.0995 13.0878 19.8875 13 19.6665 13L17.1665 13C16.0507 13.0121 14.9853 13.4664 14.2041 14.2632C13.423 15.06 12.9898 16.1342 12.9998 17.25L12.9998 28.75C12.9898 29.8658 13.423 30.94 14.2041 31.7368C14.9853 32.5336 16.0507 32.9879 17.1665 33L28.8332 33C29.949 32.9879 31.0144 32.5336 31.7955 31.7368C32.5767 30.94 33.0098 29.8658 32.9998 28.75V28.75Z" fill="#AF4EA6"/>
<path d="M22.9992 15.5C22.7782 15.5 22.5662 15.5878 22.4099 15.7441C22.2536 15.9004 22.1658 16.1123 22.1658 16.3333L22.1908 27.3233L18.5883 23.7208C18.5115 23.6412 18.4195 23.5778 18.3178 23.5341C18.2162 23.4904 18.1068 23.4674 17.9962 23.4665C17.8855 23.4655 17.7758 23.4866 17.6734 23.5285C17.571 23.5704 17.4779 23.6323 17.3997 23.7105C17.3214 23.7887 17.2596 23.8818 17.2177 23.9842C17.1758 24.0866 17.1547 24.1963 17.1556 24.307C17.1566 24.4176 17.1796 24.527 17.2233 24.6287C17.2669 24.7303 17.3304 24.8223 17.41 24.8992L21.2317 28.7208C21.7005 29.1895 22.3363 29.4528 22.9992 29.4528C23.6621 29.4528 24.2979 29.1895 24.7667 28.7208L28.5883 24.9008C28.7401 24.7437 28.8241 24.5332 28.8222 24.3147C28.8203 24.0962 28.7327 23.8872 28.5782 23.7326C28.4237 23.5781 28.2147 23.4905 27.9962 23.4886C27.7777 23.4867 27.5672 23.5707 27.41 23.7225L23.8575 27.2742L23.8325 16.3333C23.8325 16.1123 23.7447 15.9004 23.5884 15.7441C23.4321 15.5878 23.2202 15.5 22.9992 15.5V15.5Z" fill="#AF4EA6"/>
</g>
<defs>
<clipPath id="clip0_360_169">
<rect width="20" height="20" fill="white" transform="translate(33 13) rotate(90)"/>
</clipPath>
</defs>
</svg>
