<svg width="14" height="12" viewBox="0 0 14 12" fill="none" xmlns="http://www.w3.org/2000/svg">
<path d="M6.99739 0.666687C3.02491 0.666687 0.556126 5.32482 0.450623 5.52322C0.373596 5.67127 0.333496 5.83451 0.333496 6.00002C0.333496 6.16553 0.373596 6.32877 0.450623 6.47682C0.556126 6.67522 3.02491 11.3334 6.99739 11.3334C10.9699 11.3334 13.4386 6.67522 13.5497 6.47682C13.6267 6.32877 13.6668 6.16553 13.6668 6.00002C13.6668 5.83451 13.6267 5.67127 13.5497 5.52322C13.4386 5.32482 10.9699 0.666687 6.99739 0.666687ZM6.99739 9.20002C5.1272 9.20002 3.47579 7.20429 2.7195 6.00642C3.35252 5.01442 4.9906 2.80002 6.99739 2.80002C8.86757 2.80002 10.519 4.79682 11.2753 5.99362C10.6423 6.98562 9.00417 9.20002 6.99739 9.20002Z" fill="#778181"/>
<path d="M6.99739 7.60003C7.91741 7.60003 8.66323 6.88368 8.66323 6.00002C8.66323 5.11637 7.91741 4.40002 6.99739 4.40002C6.07737 4.40002 5.33154 5.11637 5.33154 6.00002C5.33154 6.88368 6.07737 7.60003 6.99739 7.60003Z" fill="#778181"/>
</svg>
