<svg width="179" height="139" viewBox="0 0 179 139" fill="none" xmlns="http://www.w3.org/2000/svg">
<path d="M165.094 13.5352H84.3047C82.3359 13.5352 80.543 12.4453 79.6641 10.6875L75.6914 2.84766C74.8125 1.08984 73.0195 0 71.0508 0H13.5C10.6172 0 8.29688 2.32031 8.29688 5.20313V133.664C8.29688 136.547 10.6172 138.867 13.5 138.867H165.129C168.012 138.867 170.332 136.547 170.332 133.664V18.7383C170.297 15.8555 167.977 13.5352 165.094 13.5352Z" fill="#F0B972"/>
<path d="M175.324 28.6172H3.26953C1.47656 28.6172 0 30.0938 0 31.8867V135.563C0 137.355 1.47656 138.832 3.26953 138.832H175.324C177.117 138.832 178.594 137.355 178.594 135.563V31.8867C178.594 30.0938 177.117 28.6172 175.324 28.6172Z" fill="#FBD984"/>
<path d="M15.6797 18.5977H162.914V28.6172H15.6797V18.5977Z" fill="#EFF3F5"/>
<path d="M12.3047 23.5898H166.324V28.6172H12.3047V23.5898Z" fill="white"/>
</svg>
