<svg width="93" height="93" viewBox="0 0 93 93" fill="none" xmlns="http://www.w3.org/2000/svg">
<path d="M93 8.17383C93 3.66987 89.3359 0 84.8262 0H8.17383C3.64535 0 0 3.68876 0 8.17383V52.1309C0 56.6379 3.66678 60.2865 8.17383 60.2865H45.19C44.2604 62.8798 43.7754 65.6529 43.7754 68.4785C43.7754 82.0046 54.9328 93 68.4785 93C81.9997 93 93 81.9997 93 68.4785C93 64.6969 92.139 61.1128 90.6036 57.911C92.1089 56.4032 93 54.3338 93 52.1309V8.17383ZM82.1352 5.44922L46.5 32.3685L10.8647 5.44922H82.1352ZM68.4785 87.5508C57.8618 87.5508 49.2246 78.995 49.2246 68.4785C49.2246 57.9621 57.8618 49.4062 68.4785 49.4062C78.995 49.4062 87.5508 57.9621 87.5508 68.4785C87.5508 78.995 78.995 87.5508 68.4785 87.5508ZM87.5508 52.1309C87.5508 52.4073 87.5079 52.6771 87.4287 52.9333C82.9278 47.4565 76.1043 43.957 68.4785 43.957C59.9779 43.957 52.4551 48.2572 47.966 54.8555H8.17383C6.67148 54.8555 5.44922 53.6332 5.44922 52.1309V8.18763L44.8576 37.9573C45.3437 38.3244 45.9218 38.5078 46.5 38.5078C47.0782 38.5078 47.6563 38.3244 48.1424 37.9573L87.5508 8.18763V52.1309Z" fill="black"/>
<path d="M81.3164 61.1153C80.2591 60.0445 78.534 60.0331 77.4631 61.09L65.5849 72.8118L59.325 66.5518C58.2611 65.4877 56.5359 65.4877 55.4719 66.5518C54.4078 67.6158 54.4078 69.3409 55.4719 70.4049L63.6457 78.5787C64.7072 79.6403 66.4226 79.641 67.4861 78.5915L81.2908 64.9684C82.3617 63.9114 82.3732 62.1864 81.3164 61.1153Z" fill="#67BC93"/>
</svg>
