<svg viewBox="0 0 20 20" fill="none" xmlns="http://www.w3.org/2000/svg">
  <g clip-path="url(#clip0_95_519)">
    <path d="M20.0003 15.75L20.0003 4.25C20.0103 3.13419 19.5772 2.06 18.796 1.2632C18.0148 0.466401 16.9494 0.0120959 15.8337 -1.82138e-07L13.3337 -2.91417e-07C13.1126 -3.01077e-07 12.9007 0.0877971 12.7444 0.244077C12.5881 0.400358 12.5003 0.612319 12.5003 0.833333C12.5003 1.05435 12.5881 1.26631 12.7444 1.42259C12.9007 1.57887 13.1126 1.66667 13.3337 1.66667L15.8337 1.66667C16.5075 1.6785 17.1491 1.95713 17.6178 2.44143C18.0865 2.92572 18.3439 3.57614 18.3337 4.25L18.3337 15.75C18.3439 16.4239 18.0865 17.0743 17.6178 17.5586C17.1491 18.0429 16.5075 18.3215 15.8337 18.3333L4.16699 18.3333C3.49315 18.3215 2.85153 18.0429 2.38285 17.5586C1.91418 17.0743 1.65674 16.4239 1.66699 15.75L1.66699 4.25C1.65674 3.57614 1.91418 2.92572 2.38285 2.44143C2.85153 1.95713 3.49315 1.6785 4.16699 1.66667L6.66699 1.66667C6.888 1.66667 7.09997 1.57887 7.25624 1.42259C7.41253 1.26631 7.50032 1.05435 7.50032 0.833333C7.50032 0.612319 7.41253 0.400357 7.25624 0.244077C7.09997 0.0877968 6.888 -5.73165e-07 6.66699 -5.82826e-07L4.16699 -6.92104e-07C3.0512 0.0120953 1.9858 0.466401 1.20462 1.2632C0.423447 2.06 -0.00967421 3.13419 0.000324063 4.25L0.000323561 15.75C-0.00967481 16.8658 0.423446 17.94 1.20462 18.7368C1.9858 19.5336 3.0512 19.9879 4.16699 20L15.8337 20C16.9494 19.9879 18.0148 19.5336 18.796 18.7368C19.5772 17.94 20.0103 16.8658 20.0003 15.75Z" fill="white" />
    <path d="M10.0001 2.5C9.77914 2.5 9.56717 2.5878 9.41089 2.74408C9.25461 2.90036 9.16682 3.11232 9.16682 3.33333L9.19182 14.3233L5.58932 10.7208C5.51244 10.6412 5.42049 10.5778 5.31882 10.5341C5.21715 10.4904 5.1078 10.4674 4.99715 10.4665C4.8865 10.4655 4.77677 10.4866 4.67436 10.5285C4.57194 10.5704 4.4789 10.6323 4.40065 10.7105C4.32241 10.7887 4.26053 10.8818 4.21863 10.9842C4.17673 11.0866 4.15565 11.1963 4.15661 11.307C4.15757 11.4176 4.18056 11.527 4.22423 11.6287C4.26791 11.7303 4.33139 11.8223 4.41098 11.8992L8.23265 15.7208C8.70147 16.1895 9.33724 16.4528 10.0001 16.4528C10.6631 16.4528 11.2988 16.1895 11.7676 15.7208L15.5893 11.9008C15.7411 11.7437 15.8251 11.5332 15.8232 11.3147C15.8213 11.0962 15.7337 10.8872 15.5792 10.7326C15.4247 10.5781 15.2156 10.4905 14.9971 10.4886C14.7787 10.4867 14.5682 10.5707 14.411 10.7225L10.8585 14.2742L10.8335 3.33333C10.8335 3.11232 10.7457 2.90036 10.5894 2.74408C10.4331 2.5878 10.2212 2.5 10.0001 2.5Z" fill="white" />
  </g>
  <defs>
    <clipPath id="clip0_95_519">
      <rect width="20" height="20" fill="white" transform="translate(20) rotate(90)" />
    </clipPath>
  </defs>
</svg>
