<svg width="84" height="148" viewBox="0 0 84 148" fill="none" xmlns="http://www.w3.org/2000/svg">
<path d="M75.3798 36.95V0.875H8.61914V36.95C8.61914 50.2758 16.3223 61.7832 27.4817 67.203C30.0027 68.4273 31.6401 70.9598 31.6401 73.7818V74.2188C31.6401 77.0408 30.0027 79.5727 27.4817 80.7976C16.3223 86.2174 8.61914 97.7242 8.61914 111.051V147.125H75.3798V111.05C75.3798 97.7242 67.6767 86.2168 56.5172 80.797C53.9963 79.5727 52.3589 77.0402 52.3589 74.2182V73.7812C52.3589 70.9592 53.9963 68.4273 56.5172 67.2024C67.6767 61.7833 75.3798 50.2764 75.3798 36.95Z" fill="#FFEACF"/>
<path d="M70.5047 112.878C69.495 112.878 68.6766 112.06 68.6766 111.05C68.6766 100.786 62.7541 91.2781 53.5885 86.8266C52.6805 86.3854 52.3015 85.2916 52.7427 84.3836C53.1845 83.4757 54.2777 83.0973 55.1857 83.5378C65.6023 88.5963 72.3329 99.395 72.3329 111.049C72.3329 112.06 71.5145 112.878 70.5047 112.878Z" fill="#FCF9DE"/>
<path d="M44.5442 80.797C47.0652 79.5721 48.7026 77.0402 48.7026 74.2182V73.7812C48.7026 70.9592 47.0652 68.4273 44.5442 67.2024C33.3847 61.7826 25.6816 50.2758 25.6816 36.9494V0.875H8.61914V36.95C8.61914 50.2758 16.3223 61.7832 27.4817 67.203C30.0027 68.4279 31.6401 70.9598 31.6401 73.7818V74.2188C31.6401 77.0408 30.0027 79.5727 27.4817 80.7976C16.3223 86.2174 8.61914 97.7242 8.61914 111.051V147.125H25.6816V111.05C25.6816 97.7242 33.3847 86.2168 44.5442 80.797Z" fill="#FFD59A"/>
<path d="M17.3262 49.4319C21.866 58.4872 31.1767 64.7144 41.9078 64.7144H42.0924C52.8235 64.7144 62.1341 58.4872 66.674 49.4319H17.3262Z" fill="#F9BB32"/>
<path d="M69.6252 137.646V133.104C69.6252 117.795 57.2744 105.34 42.0924 105.34H41.9078C26.7264 105.34 14.375 117.795 14.375 133.104V137.646H69.6252Z" fill="#F9BB32"/>
<path d="M44.4375 58.9106H39.5625V107.661H44.4375V58.9106Z" fill="#F9BB32"/>
<path d="M25.682 111.05C25.682 110.929 25.6874 110.809 25.6887 110.687C18.8368 115.742 14.375 123.905 14.375 133.103V137.646H25.6826V111.05H25.682Z" fill="#DB9C2E"/>
<path d="M39.5625 83.7829C41.0951 82.672 42.7258 81.6903 44.4375 80.8511V67.1487C42.7258 66.3096 41.0951 65.3285 39.5625 64.217V83.7829Z" fill="#DB9C2E"/>
<path d="M40.1917 64.6571C34.7902 60.9296 30.5356 55.6396 28.0664 49.4319H17.3262C21.6223 58.0009 30.1907 64.0337 40.1917 64.6571Z" fill="#DB9C2E"/>
<path d="M79.9702 13.7395H4.02985C2.11458 13.7395 0.5625 12.1869 0.5625 10.2722V4.43927C0.5625 2.524 2.11519 0.971924 4.02985 0.971924H79.9702C81.8854 0.971924 83.4375 2.52461 83.4375 4.43927V10.2722C83.4375 12.1869 81.8848 13.7395 79.9702 13.7395Z" fill="#BF6C0D"/>
<path d="M4.02985 134.26H79.9702C81.8854 134.26 83.4375 135.813 83.4375 137.728V143.561C83.4375 145.476 81.8848 147.028 79.9702 147.028H4.02985C2.11458 147.028 0.5625 145.475 0.5625 143.561V137.728C0.5625 135.813 2.11519 134.26 4.02985 134.26Z" fill="#BF6C0D"/>
<path d="M34.1465 27.7734C37.1754 27.7734 39.6309 25.318 39.6309 22.2891C39.6309 19.2601 37.1754 16.8047 34.1465 16.8047C31.1175 16.8047 28.6621 19.2601 28.6621 22.2891C28.6621 25.318 31.1175 27.7734 34.1465 27.7734Z" fill="#FFD59A"/>
<path d="M34.1465 132.485C37.1754 132.485 39.6309 130.029 39.6309 127C39.6309 123.972 37.1754 121.516 34.1465 121.516C31.1175 121.516 28.6621 123.972 28.6621 127C28.6621 130.029 31.1175 132.485 34.1465 132.485Z" fill="#DB9C2E"/>
<path d="M17.625 10.2722V4.43988C17.625 2.524 19.1777 0.971924 21.0923 0.971924H4.02985C2.11458 0.971924 0.5625 2.52461 0.5625 4.43988V10.2722C0.5625 12.1875 2.11519 13.7395 4.02985 13.7395H21.0923C19.1777 13.7395 17.625 12.1869 17.625 10.2722Z" fill="#A56021"/>
<path d="M17.625 143.56V137.728C17.625 135.813 19.1777 134.26 21.0923 134.26H4.02985C2.11458 134.26 0.5625 135.813 0.5625 137.728V143.56C0.5625 145.476 2.11519 147.028 4.02985 147.028H21.0923C19.1777 147.028 17.625 145.476 17.625 143.56Z" fill="#A56021"/>
</svg>
