<svg width="10" height="10" viewBox="0 0 10 10" fill="none" xmlns="http://www.w3.org/2000/svg">
<path d="M9.16667 4.1571L5.83333 4.1571L5.83333 0.831421C5.83333 0.610914 5.74554 0.399439 5.58926 0.243518C5.43297 0.0875959 5.22101 0 5 0C4.77899 0 4.56702 0.0875959 4.41074 0.243518C4.25446 0.399439 4.16667 0.610914 4.16667 0.831421L4.16667 4.1571L0.833333 4.1571C0.61232 4.1571 0.400358 4.2447 0.244078 4.40062C0.0877974 4.55654 0 4.76802 0 4.98853C0 5.20903 0.0877974 5.42051 0.244078 5.57643C0.400358 5.73235 0.61232 5.81995 0.833333 5.81995L4.16667 5.81995L4.16667 9.14563C4.16667 9.36614 4.25446 9.57761 4.41074 9.73353C4.56702 9.88945 4.77899 9.97705 5 9.97705C5.22101 9.97705 5.43297 9.88945 5.58926 9.73353C5.74554 9.57761 5.83333 9.36614 5.83333 9.14563L5.83333 5.81995L9.16667 5.81995C9.38768 5.81995 9.59964 5.73235 9.75592 5.57643C9.9122 5.42051 10 5.20903 10 4.98853C10 4.76802 9.9122 4.55654 9.75592 4.40062C9.59964 4.2447 9.38768 4.1571 9.16667 4.1571Z" fill="white"/>
</svg>
