<svg width="36" height="37" viewBox="0 0 36 37" fill="none" xmlns="http://www.w3.org/2000/svg">
  <circle cx="18" cy="18" r="18" fill="white" />
  <mask id="mask0_21_476" style="mask-type:alpha" maskUnits="userSpaceOnUse" x="1" y="4" width="33" height="33">
    <path fill-rule="evenodd" clip-rule="evenodd" d="M1 20.5C1 11.3871 8.38741 4 17.5 4C26.6129 4 34 11.3871 34 20.5C34 29.6126 26.6129 36.9997 17.5 36.9997C8.38741 36.9997 1 29.6126 1 20.5Z" fill="#E2E8FF" />
  </mask>
  <g mask="url(#mask0_21_476)">
    <path fill-rule="evenodd" clip-rule="evenodd" d="M8.86419 11.262C8.63038 10.5891 8.67937 9.81417 8.99594 9.17968C9.3125 8.54492 9.89174 8.06041 10.5524 7.87722C10.6223 6.84723 11.5012 6.04398 12.486 6.081C12.5661 5.59567 12.949 5.14818 13.3884 4.9737C13.8277 4.7995 14.3525 4.88605 14.7194 5.19391C14.837 4.73743 15.1391 4.30491 15.5809 4.20883C16.0227 4.11302 16.5091 4.29729 16.7903 4.66721C17.0276 4.13398 17.5571 4.00822 18.1175 3.96821C18.6777 3.92792 19.2485 4.22788 19.5531 4.72219C19.929 4.24993 20.549 4.13452 21.0972 4.35391C21.6454 4.57303 22.0298 5.17975 22.0094 5.79437C22.3627 5.51428 22.9264 5.60139 23.3211 5.81125C23.716 6.02084 23.9793 6.47786 23.9725 6.94168C24.4646 6.95257 24.9066 7.24545 25.1856 7.6709C25.4644 8.09607 25.5343 8.6636 25.3675 9.14919C25.8623 9.21507 26.2246 9.80301 26.3882 10.2968C26.5518 10.7903 26.4266 11.3763 26.0773 11.7495C26.4829 12.0184 26.6204 12.6543 26.6936 13.1513C26.7668 13.6483 26.6256 14.1758 26.3161 14.5605C26.6424 14.8757 26.6884 15.5491 26.6288 16.0099C26.5689 16.4707 26.2839 16.8929 25.8893 17.1055C26.1919 17.4302 26.0311 18.129 25.8397 18.5362C25.6484 18.9431 25.1987 19.199 24.7686 19.1453C24.896 19.5749 24.5686 20.2235 24.2231 20.4905C23.878 20.7578 23.3701 20.7674 23.016 20.5134C22.9073 21.5654 21.646 22.7209 20.6427 22.599C20.3917 23.0277 19.8092 23.4248 19.3299 23.4539C18.8505 23.4831 18.3636 23.253 18.0669 22.8575C17.89 23.323 17.2353 23.8385 16.7573 23.8396C16.2791 23.8407 15.8153 23.5133 15.6364 23.0486C14.8332 23.5272 13.4455 22.9868 13.0606 22.1066C12.7079 22.4669 11.915 22.6575 11.4966 22.3847C11.0782 22.112 10.8738 21.5254 11.0262 21.0346C10.634 21.076 10.1427 20.8594 9.87323 20.5578C9.60348 20.2564 9.47772 19.8204 9.54278 19.4129C9.16905 19.3634 8.80948 18.9156 8.67502 18.547C8.54055 18.1785 8.61513 17.7351 8.86229 17.437C8.52994 17.1825 8.38105 16.6096 8.35845 16.1789C8.33559 15.7481 8.50571 15.3106 8.80921 15.0191C8.21501 14.457 8.12518 13.261 8.71503 12.6937C8.47768 12.5497 8.40772 12.3431 8.39711 12.0563C8.38649 11.7691 8.63827 11.4245 8.86419 11.262Z" fill="#1D201F" />
    <path fill-rule="evenodd" clip-rule="evenodd" d="M22.0587 15.9076C21.3853 16.9887 21.4503 18.2697 22.2038 18.7686C22.9575 19.2673 24.114 18.7953 24.7875 17.7139C25.4609 16.6324 25.3958 15.3515 24.6421 14.8528C23.8887 14.3539 22.7318 14.8261 22.0587 15.9076Z" fill="#F2F0F4" />
    <path fill-rule="evenodd" clip-rule="evenodd" d="M22.0587 15.9076C21.3853 16.9887 21.4503 18.2697 22.2038 18.7686C22.9575 19.2673 24.114 18.7953 24.7875 17.7139C25.4609 16.6324 25.3958 15.3515 24.6421 14.8528C23.8887 14.3539 22.7318 14.8261 22.0587 15.9076ZM24.0751 15.3716C24.4015 15.4993 24.6497 15.809 24.7025 16.1555C24.7553 16.5018 24.6111 16.8717 24.3375 17.0905L24.0751 15.3716Z" stroke="#1D201F" stroke-width="0.2" stroke-linecap="round" stroke-linejoin="round" />
    <path fill-rule="evenodd" clip-rule="evenodd" d="M12.9697 15.9076C13.6429 16.9887 13.5778 18.2697 12.8244 18.7686C12.0707 19.2673 10.9141 18.7953 10.2407 17.7139C9.56728 16.6324 9.63261 15.3515 10.3861 14.8528C11.1398 14.3539 12.2963 14.8261 12.9697 15.9076Z" fill="#F2F0F4" />
    <path fill-rule="evenodd" clip-rule="evenodd" d="M12.9697 15.9076C13.6429 16.9887 13.5778 18.2697 12.8244 18.7686C12.0707 19.2673 10.9141 18.7953 10.2407 17.7139C9.56728 16.6324 9.63261 15.3515 10.3861 14.8528C11.1398 14.3539 12.2963 14.8261 12.9697 15.9076ZM10.953 15.3716C10.6267 15.4993 10.3787 15.809 10.3259 16.1555C10.2728 16.5018 10.4174 16.8717 10.6906 17.0905L10.953 15.3716Z" stroke="#1D201F" stroke-width="0.2" stroke-linecap="round" stroke-linejoin="round" />
    <path fill-rule="evenodd" clip-rule="evenodd" d="M20.7458 28.4242C20.8065 30.2526 19.3431 31.7646 17.5145 31.7646C15.7224 31.7646 14.2803 30.3106 14.2803 28.5337C14.2803 28.4972 14.2803 28.4607 14.2833 28.4242L14.9131 19.9902H20.1129L20.3987 23.7751L20.6026 26.5287L20.7458 28.4242Z" fill="#F2F0F4" />
    <path fill-rule="evenodd" clip-rule="evenodd" d="M20.7458 28.4242C20.8065 30.2526 19.3431 31.7646 17.5145 31.7646C15.7224 31.7646 14.2803 30.3106 14.2803 28.5337C14.2803 28.4972 14.2803 28.4607 14.2833 28.4242L14.9131 19.9902H20.1129L20.3987 23.7751L20.6026 26.5287L20.7458 28.4242Z" stroke="#1D201F" stroke-width="0.2" stroke-linecap="round" stroke-linejoin="round" />
    <path fill-rule="evenodd" clip-rule="evenodd" d="M20.6025 26.5287C18.8956 26.6503 17.0155 25.8014 15.7253 24.1524C15.2903 23.5987 14.9588 22.9994 14.7334 22.3847L14.913 19.9902H20.1128L20.3986 23.7751L20.6025 26.5287Z" fill="#1D201F" />
    <path fill-rule="evenodd" clip-rule="evenodd" d="M23.0806 19.1127C22.8781 19.6317 22.5858 20.175 22.2335 20.7009C21.5552 21.7135 20.6567 22.6635 19.7596 23.2664C18.7758 23.9254 17.4867 24.1409 16.3647 23.7582C15.482 23.4575 14.7539 22.826 14.1028 22.1572C13.2911 21.3245 12.5499 20.3923 12.1337 19.3056C11.8106 18.4599 11.6723 17.5195 11.6353 16.5567C11.5839 15.2224 11.7268 13.8465 11.8411 12.62C12.0082 10.8131 13.103 9.09801 14.6638 8.17853C16.1941 7.2781 18.1506 7.14309 19.7903 7.82794C21.4281 8.51279 22.7093 9.99816 23.1432 11.7214C23.4538 12.9463 23.3474 14.2178 23.367 15.4669C23.3716 15.8172 23.3877 16.1708 23.3958 16.5246C23.4201 17.4038 23.4021 18.283 23.0806 19.1127Z" fill="#F2F0F4" />
    <path fill-rule="evenodd" clip-rule="evenodd" d="M23.0806 19.1127C22.8781 19.6317 22.5858 20.175 22.2335 20.7009C21.5552 21.7135 20.6567 22.6635 19.7596 23.2664C18.7758 23.9254 17.4867 24.1409 16.3647 23.7582C15.482 23.4575 14.7539 22.826 14.1028 22.1572C13.2911 21.3245 12.5499 20.3923 12.1337 19.3056C11.8106 18.4599 11.6723 17.5195 11.6353 16.5567C11.5839 15.2224 11.7268 13.8465 11.8411 12.62C12.0082 10.8131 13.103 9.09801 14.6638 8.17853C16.1941 7.2781 18.1506 7.14309 19.7903 7.82794C21.4281 8.51279 22.7093 9.99816 23.1432 11.7214C23.4538 12.9463 23.3474 14.2178 23.367 15.4669C23.3716 15.8172 23.3877 16.1708 23.3958 16.5246C23.4201 17.4038 23.4021 18.283 23.0806 19.1127Z" stroke="#1D201F" stroke-width="0.2" stroke-linecap="round" stroke-linejoin="round" />
    <path fill-rule="evenodd" clip-rule="evenodd" d="M23.4166 16.5249V16.5688L23.3848 16.5394C22.9797 16.1872 22.7323 15.6773 22.7059 15.1444L22.4933 11.1107C22.2807 11.0263 22.0768 10.9389 21.87 10.8426C21.5613 10.6942 21.2613 10.5339 20.9818 10.3622C20.3732 9.99795 19.8429 9.58149 19.4412 9.1536C18.8644 9.29324 18.2062 9.36591 17.5363 9.36591C16.7557 9.36591 16.0014 9.2671 15.355 9.07766C14.9791 9.49711 14.4839 9.90187 13.9131 10.2631C13.587 10.4727 13.2345 10.6681 12.8619 10.8426C12.7803 10.8804 12.6899 10.9212 12.5821 10.9681L12.3695 15.1444C12.3404 15.7007 12.0783 16.2193 11.6501 16.5715L11.6182 16.5979L11.6153 16.5571C11.5684 15.3164 11.6909 14.0232 11.7957 12.8843L11.8221 12.6195C11.9296 11.4515 12.4131 10.333 13.1676 9.43314C13.587 8.92904 14.0909 8.49516 14.6557 8.16035C16.1879 7.26047 18.1597 7.12356 19.7994 7.81085C20.6062 8.14566 21.3313 8.68161 21.9078 9.34577C22.502 10.0244 22.9419 10.8426 23.1632 11.7163C23.4022 12.66 23.3962 13.6446 23.3875 14.597C23.3848 14.8825 23.3848 15.1795 23.3875 15.4677C23.3905 15.6686 23.3962 15.8755 23.4049 16.0764C23.4079 16.225 23.4139 16.3736 23.4166 16.5249Z" fill="#1D201F" />
    <path fill-rule="evenodd" clip-rule="evenodd" d="M21.9077 9.34577C21.3312 8.68161 20.6061 8.14566 19.7993 7.81085C18.1596 7.12356 16.1878 7.26047 14.6556 8.16035C14.0908 8.49516 13.5869 8.92904 13.1675 9.43314C13.2723 9.60871 13.404 9.7753 13.5548 9.93371C13.5703 10.3009 13.7323 10.6618 14.0037 10.9109C14.3216 11.2027 14.7802 11.3336 15.2043 11.2541C15.2857 11.5753 15.6643 11.9058 15.9921 11.9537C16.3201 12.0016 16.669 11.8355 16.8389 11.5511C17.0226 11.8353 17.4037 12.0843 17.7409 12.0558C18.0782 12.0272 18.3912 11.801 18.5246 11.4901C18.7236 11.8258 19.0385 12.1186 19.4253 12.0661C19.8121 12.0136 20.1537 11.7136 20.2557 11.3369C20.7427 11.4773 21.3151 11.2449 21.4368 10.753C21.494 10.5225 21.4444 10.2789 21.3274 10.0731C21.5666 9.84988 21.7651 9.60681 21.9077 9.34577Z" fill="#1D201F" />
    <path fill-rule="evenodd" clip-rule="evenodd" d="M19.2443 20.4872C19.2443 20.9391 18.2769 21.3057 17.6196 21.3057C17.0017 21.3057 15.7441 20.9391 15.7441 20.4872" fill="#F2F0F4" />
    <path d="M19.2443 20.4872C19.2443 20.9391 18.2769 21.3057 17.6196 21.3057C17.0017 21.3057 15.7441 20.9391 15.7441 20.4872" stroke="#1D201F" stroke-width="0.2" stroke-linecap="round" stroke-linejoin="round" />
    <path fill-rule="evenodd" clip-rule="evenodd" d="M19.2443 20.4748V20.4832H15.7441V20.4748C15.7441 20.1313 16.9625 19.8525 17.6198 19.8525C18.2377 19.8525 19.2443 20.1313 19.2443 20.4748Z" fill="#1D201F" />
    <path fill-rule="evenodd" clip-rule="evenodd" d="M19.2443 20.4748V20.4832H15.7441V20.4748C15.7441 20.1313 16.9625 19.8525 17.6198 19.8525C18.2377 19.8525 19.2443 20.1313 19.2443 20.4748Z" stroke="#1D201F" stroke-width="0.2" />
    <path fill-rule="evenodd" clip-rule="evenodd" d="M18.9644 20.1269C19.1411 20.2404 19.4163 20.2625 19.6495 20.1443L19.6514 20.1433C19.6879 20.1247 19.7323 20.1392 19.7505 20.1754C19.7649 20.2037 19.7592 20.2369 19.7388 20.2589C19.527 20.4873 19.1827 20.6169 18.8234 20.5535L18.7992 20.5491C18.6737 20.5268 18.5899 20.4067 18.6119 20.2813C18.6342 20.1555 18.754 20.0717 18.8798 20.094C18.9105 20.0994 18.9396 20.1114 18.9644 20.1269Z" fill="#1D201F" />
    <path fill-rule="evenodd" clip-rule="evenodd" d="M16.2045 20.5534C15.8452 20.6169 15.5011 20.4873 15.2891 20.2589C15.2616 20.229 15.2632 20.1824 15.2932 20.1547C15.3163 20.1332 15.3498 20.1296 15.3765 20.143L15.3786 20.1443C15.6119 20.2625 15.8871 20.2404 16.0635 20.1269C16.171 20.058 16.3139 20.0891 16.3828 20.1966C16.4519 20.3041 16.4206 20.447 16.3134 20.5159C16.287 20.5327 16.2586 20.5436 16.2298 20.5488L16.2045 20.5534Z" fill="#1D201F" />
    <path fill-rule="evenodd" clip-rule="evenodd" d="M16.9907 20.4094C17.1361 20.5428 17.3293 20.6231 17.5264 20.6324C17.7232 20.6413 17.923 20.579 18.0798 20.4595" fill="#1D201F" />
    <path d="M16.9907 20.4094C17.1361 20.5428 17.3293 20.6231 17.5264 20.6324C17.7232 20.6413 17.923 20.579 18.0798 20.4595" stroke="#1D201F" stroke-width="0.2" stroke-linecap="round" stroke-linejoin="round" />
    <path fill-rule="evenodd" clip-rule="evenodd" d="M18.3975 14.3738C18.5349 14.0395 18.8079 13.7934 19.1106 13.6233C19.4166 13.4551 19.7636 13.3631 20.1145 13.3517C20.4656 13.3397 20.8167 13.4099 21.1325 13.5569C21.4452 13.7058 21.733 13.9306 21.8971 14.2532L20.9616 14.2279C20.6782 14.2224 20.409 14.2238 20.142 14.2314C19.8752 14.2398 19.6068 14.2551 19.3256 14.279C19.0415 14.3016 18.7527 14.3337 18.3975 14.3738Z" fill="#1D201F" />
    <path fill-rule="evenodd" clip-rule="evenodd" d="M16.6305 14.3738C16.2753 14.3337 15.9865 14.3016 15.7026 14.279C15.4211 14.2551 15.153 14.2398 14.8863 14.2314C14.6192 14.2238 14.3498 14.2224 14.0664 14.2279L13.1309 14.2532C13.295 13.9306 13.5827 13.7058 13.8955 13.5569C14.2115 13.4099 14.5626 13.3397 14.9135 13.3517C15.2646 13.3631 15.6114 13.4551 15.9176 13.6233C16.2203 13.7934 16.493 14.0395 16.6305 14.3738Z" fill="#1D201F" />
    <path fill-rule="evenodd" clip-rule="evenodd" d="M18.5612 16.7324C18.6246 16.5919 18.6951 16.4558 18.7615 16.3175L18.7672 16.3091C18.9336 16.0592 19.1421 15.8181 19.4208 15.6599C19.6943 15.4977 20.0237 15.4155 20.3427 15.4354C20.6598 15.4511 20.9723 15.5461 21.2418 15.7103C21.3762 15.7911 21.4987 15.888 21.612 15.9928C21.7249 16.0957 21.8262 16.2209 21.8676 16.3731L21.8684 16.3755C21.8785 16.4128 21.8567 16.4509 21.8194 16.4613C21.8036 16.4653 21.7873 16.464 21.7731 16.4577C21.6231 16.3921 21.526 16.305 21.4173 16.2198C21.3101 16.136 21.1958 16.0636 21.0771 16.0029C20.8419 15.8793 20.5836 15.808 20.3218 15.787C20.0615 15.7661 19.8019 15.8129 19.5659 15.9278C19.3312 16.0448 19.1192 16.2231 18.9374 16.4349L18.9428 16.4264C18.8519 16.5503 18.7645 16.6763 18.6701 16.798C18.6486 16.8257 18.6083 16.8306 18.5805 16.8091C18.5566 16.7906 18.5495 16.7588 18.5612 16.7324Z" fill="#1D201F" />
    <path fill-rule="evenodd" clip-rule="evenodd" d="M19.6342 16.1928C19.6554 15.898 19.9119 15.6759 20.2069 15.6971C20.502 15.7184 20.7238 15.9748 20.7026 16.2698C20.6814 16.5649 20.4249 16.787 20.1299 16.7655C19.8348 16.7443 19.613 16.4879 19.6342 16.1928Z" fill="#1D201F" />
    <path d="M18.5488 15.8332C18.7696 15.4573 19.1267 15.1634 19.538 15.0188C19.9495 14.874 20.412 14.8803 20.8195 15.0354M21.2493 16.6817C21.4464 16.6379 21.6331 16.5483 21.7904 16.4223L21.2493 16.6817Z" stroke="#1D201F" stroke-width="0.2" stroke-linecap="round" stroke-linejoin="round" />
    <path fill-rule="evenodd" clip-rule="evenodd" d="M16.3579 16.798C16.2634 16.6763 16.1763 16.5503 16.0852 16.4264L16.0906 16.4349C15.909 16.2231 15.697 16.0448 15.4624 15.9278C15.2261 15.8129 14.9664 15.7661 14.7062 15.787C14.4446 15.808 14.1863 15.8793 13.9509 16.0029C13.8325 16.0636 13.7179 16.136 13.6106 16.2198C13.5023 16.305 13.4048 16.3921 13.2549 16.4577C13.2195 16.4732 13.1786 16.4572 13.1631 16.4218C13.1563 16.4068 13.1558 16.3905 13.1596 16.3755L13.1604 16.3731C13.2018 16.2209 13.3033 16.0957 13.416 15.9928C13.5292 15.888 13.652 15.7911 13.7865 15.7103C14.0557 15.5461 14.3681 15.4511 14.6855 15.4354C15.0045 15.4155 15.3339 15.4977 15.6072 15.6599C15.8859 15.8181 16.0944 16.0592 16.2607 16.3091L16.2664 16.3175C16.3329 16.4558 16.4036 16.5919 16.4668 16.7324C16.4812 16.7648 16.4668 16.8023 16.4347 16.8168C16.4072 16.8293 16.3756 16.8206 16.3579 16.798Z" fill="#1D201F" />
    <path fill-rule="evenodd" clip-rule="evenodd" d="M15.3935 16.1928C15.3723 15.898 15.1159 15.6759 14.8208 15.6971C14.526 15.7184 14.3039 15.9748 14.3251 16.2698C14.3466 16.5649 14.603 16.787 14.8978 16.7655C15.1929 16.7443 15.4147 16.4879 15.3935 16.1928Z" fill="#1D201F" />
    <path d="M16.4794 15.8332C16.2586 15.4573 15.9015 15.1634 15.4902 15.0188C15.0787 14.874 14.6165 14.8803 14.209 15.0354M13.7789 16.6817C13.5818 16.6379 13.3954 16.5483 13.2378 16.4223L13.7789 16.6817Z" stroke="#1D201F" stroke-width="0.2" stroke-linecap="round" stroke-linejoin="round" />
    <path d="M16.6449 18.6464C17.1093 19.0729 17.8959 19.0854 18.3739 18.6744M16.6702 18.6886C16.382 18.7237 16.2173 18.4109 16.3529 18.154L16.6702 18.6886ZM18.3581 18.7174C18.6464 18.7526 18.8111 18.4398 18.6758 18.1828L18.3581 18.7174Z" stroke="#1D201F" stroke-width="0.2" stroke-linecap="round" stroke-linejoin="round" />
    <path fill-rule="evenodd" clip-rule="evenodd" d="M30.0731 40.9096C27.5914 42.0294 25.3257 42.3746 25.0127 41.6805C24.6996 40.9866 26.4575 39.5162 28.9391 38.3964C31.4207 37.2766 33.6862 36.9315 33.9995 37.6256C34.3128 38.3197 32.5547 39.7898 30.0731 40.9096Z" fill="#1D201F" />
    <path fill-rule="evenodd" clip-rule="evenodd" d="M28.983 47.0052L26.8909 41.9219L26.107 40.0144L24.3843 35.828C23.477 33.6251 24.3687 31.1852 26.325 30.515C26.6666 30.398 27.0164 30.3454 27.3632 30.3478C27.3953 30.3481 27.4271 30.3484 27.4593 30.3514C28.9762 30.4064 30.4417 31.5325 31.0291 33.2522L35.7457 47.0547" fill="#F2F0F4" />
    <path d="M28.983 47.0052L26.8909 41.9219L26.107 40.0144L24.3843 35.828C23.477 33.6251 24.3687 31.1852 26.325 30.515C26.6666 30.398 27.0164 30.3454 27.3632 30.3478C27.3953 30.3481 27.4271 30.3484 27.4593 30.3514C28.9762 30.4064 30.4417 31.5325 31.0291 33.2522L35.7457 47.0547" stroke="#1D201F" stroke-width="0.2" stroke-linecap="round" stroke-linejoin="round" />
    <path fill-rule="evenodd" clip-rule="evenodd" d="M33.9459 37.5414C33.487 36.9622 31.3132 37.327 28.9402 38.3951C26.458 39.5157 24.698 40.9861 25.0138 41.6821C25.0214 41.6971 25.029 41.7082 25.0402 41.7232L25.0138 41.7346L22.2722 35.3073C21.1968 32.7837 22.3588 29.9069 24.8034 29.053C25.2658 28.8913 25.7359 28.8124 26.206 28.8124C27.8797 28.8124 29.4857 29.8051 30.3091 31.4148L33.9459 37.5414Z" fill="#F2F0F4" />
    <path fill-rule="evenodd" clip-rule="evenodd" d="M33.9459 37.5414C33.487 36.9622 31.3132 37.327 28.9402 38.395C26.458 39.5157 24.698 40.9861 25.0138 41.6821C25.0214 41.6971 25.029 41.7082 25.0402 41.7232L25.0138 41.7346L22.2722 35.3073C21.1968 32.7837 22.3588 29.9069 24.8034 29.053C25.2658 28.8913 25.7359 28.8124 26.206 28.8124C27.8797 28.8124 29.4857 29.8051 30.3091 31.4148L33.9459 37.5414Z" stroke="#1D201F" stroke-width="0.2" stroke-linecap="round" stroke-linejoin="round" />
    <path fill-rule="evenodd" clip-rule="evenodd" d="M4.9877 40.9527C7.46932 42.0725 9.73508 42.4176 10.0481 41.7235C10.3614 41.0297 8.60356 39.5593 6.12194 38.4395C3.64033 37.3196 1.37457 36.9745 1.06154 37.6683C0.748242 38.3624 2.50609 39.8328 4.9877 40.9527Z" fill="#1D201F" />
    <path fill-rule="evenodd" clip-rule="evenodd" d="M-0.745117 47.0547L2.64808 37.3531L4.07194 33.2873C4.68384 31.5368 6.20705 30.4097 7.75639 30.4097H7.77681C8.1176 30.4127 8.45839 30.4679 8.79319 30.5844C10.7446 31.269 11.6213 33.7155 10.698 35.9113L8.9448 40.0849V40.0879L6.0176 47.0547" fill="#F2F0F4" />
    <path d="M-0.745117 47.0547L2.64808 37.3531L4.07194 33.2873C4.68384 31.5368 6.20705 30.4097 7.75639 30.4097H7.77681C8.1176 30.4127 8.45839 30.4679 8.79319 30.5844C10.7446 31.269 11.6213 33.7155 10.698 35.9113L8.9448 40.0849V40.0879L6.0176 47.0547" stroke="#1D201F" stroke-width="0.2" stroke-linecap="round" stroke-linejoin="round" />
    <path fill-rule="evenodd" clip-rule="evenodd" d="M1.11523 37.5842C1.57389 37.005 3.74765 37.37 6.12065 38.4381C8.60281 39.5587 10.3631 41.0294 10.0471 41.7248C10.0395 41.7401 10.0321 41.7513 10.021 41.7665L10.0471 41.7777L12.7886 35.3503C13.8644 32.8268 12.7024 29.9499 10.2578 29.096C9.79503 28.9343 9.32495 28.8554 8.85487 28.8554C7.1814 28.8554 5.57544 29.8481 4.75178 31.4579L1.11523 37.5842Z" fill="#F2F0F4" />
    <path fill-rule="evenodd" clip-rule="evenodd" d="M1.11523 37.5842C1.57389 37.005 3.74765 37.37 6.12065 38.4381C8.60281 39.5587 10.3631 41.0294 10.0471 41.7248C10.0395 41.7401 10.0321 41.7513 10.021 41.7665L10.0471 41.7777L12.7886 35.3503C13.8644 32.8268 12.7024 29.9499 10.2578 29.096C9.79503 28.9343 9.32495 28.8554 8.85487 28.8554C7.1814 28.8554 5.57544 29.8481 4.75178 31.4579L1.11523 37.5842Z" stroke="#1D201F" stroke-width="0.2" stroke-linecap="round" stroke-linejoin="round" />
    <path fill-rule="evenodd" clip-rule="evenodd" d="M27.8849 47.0547H7.11572L7.22351 44.011L7.29918 41.815L7.70421 30.4097L7.7513 28.9496L12.3147 27.465L13.0662 27.1942L13.4388 27.0576L14.4117 26.5341H20.4435L21.5356 27.0369L21.9055 27.1711L22.6568 27.4419L27.2912 28.9496L27.3258 30.4126L27.7074 41.7771V41.7915L27.7888 44.241L27.8849 47.0547Z" fill="#F2F0F4" />
    <path fill-rule="evenodd" clip-rule="evenodd" d="M27.8849 47.0547H7.11572L7.22351 44.011L7.29918 41.815L7.70421 30.4097L7.7513 28.9496L12.3147 27.465L13.0662 27.1942L13.4388 27.0576L14.4117 26.5341H20.4435L21.5356 27.0369L21.9055 27.1711L22.6568 27.4419L27.2912 28.9496L27.3258 30.4126L27.7074 41.7771V41.7915L27.7888 44.241L27.8849 47.0547Z" stroke="#1D201F" stroke-width="0.2" stroke-linecap="round" stroke-linejoin="round" />
    <path fill-rule="evenodd" clip-rule="evenodd" d="M20.6318 26.404L21.3898 26.9735L21.7445 27.1014C21.4794 29.2169 19.6739 30.8495 17.4849 30.8495C15.3057 30.8495 13.5035 29.2264 13.2256 27.1237L13.5868 26.9928L14.448 26.3" fill="#F2F0F4" />
    <path d="M20.6318 26.404L21.3898 26.9735L21.7445 27.1014C21.4794 29.2169 19.6739 30.8495 17.4849 30.8495C15.3057 30.8495 13.5035 29.2264 13.2256 27.1237L13.5868 26.9928L14.448 26.3" stroke="#1D201F" stroke-width="0.2" stroke-linecap="round" stroke-linejoin="round" />
  </g>
</svg>
